<mxfile host="app.diagrams.net" modified="2024-05-06T17:46:01.596Z" agent="Mozilla/5.0 (Windows NT 10.0; Win64; x64) AppleWebKit/537.36 (KHTML, like Gecko) Chrome/124.0.0.0 Safari/537.36 Edg/124.0.0.0" etag="TniQpANVbZjDKtzISMTP" version="24.3.1" type="device" pages="5">
  <diagram name="Page-1" id="8XQq0aCH4keiqsKxRNDR">
    <mxGraphModel dx="6644" dy="4393" grid="1" gridSize="10" guides="1" tooltips="1" connect="1" arrows="1" fold="1" page="1" pageScale="1" pageWidth="4681" pageHeight="3300" math="0" shadow="0">
      <root>
        <mxCell id="0" />
        <mxCell id="1" parent="0" />
        <mxCell id="y5H6D8yGrRoYd4vspd71-1" value="" style="whiteSpace=wrap;html=1;aspect=fixed;" parent="1" vertex="1">
          <mxGeometry x="208" y="-2640" width="1030" height="1030" as="geometry" />
        </mxCell>
        <mxCell id="y5H6D8yGrRoYd4vspd71-9" value="&lt;font style=&quot;font-size: 14px;&quot;&gt;New User&lt;/font&gt;" style="shape=umlActor;verticalLabelPosition=bottom;verticalAlign=top;html=1;" parent="1" vertex="1">
          <mxGeometry x="90" y="-2120" width="30" height="60" as="geometry" />
        </mxCell>
        <mxCell id="LDxG2cPnPeKsREz3wS5U-3" style="edgeStyle=orthogonalEdgeStyle;rounded=0;orthogonalLoop=1;jettySize=auto;html=1;entryX=0.711;entryY=-0.036;entryDx=0;entryDy=0;entryPerimeter=0;endArrow=none;endFill=0;sourcePerimeterSpacing=33;" parent="1" source="y5H6D8yGrRoYd4vspd71-20" target="y5H6D8yGrRoYd4vspd71-21" edge="1">
          <mxGeometry relative="1" as="geometry">
            <mxPoint x="-20" y="-2130" as="targetPoint" />
            <Array as="points">
              <mxPoint x="47" y="-2160" />
              <mxPoint x="-19" y="-2160" />
            </Array>
          </mxGeometry>
        </mxCell>
        <mxCell id="y5H6D8yGrRoYd4vspd71-20" value="&lt;font style=&quot;font-size: 14px;&quot;&gt;User&lt;/font&gt;" style="shape=umlActor;verticalLabelPosition=bottom;verticalAlign=top;html=1;" parent="1" vertex="1">
          <mxGeometry x="30" y="-2275" width="35" height="70" as="geometry" />
        </mxCell>
        <mxCell id="y5H6D8yGrRoYd4vspd71-21" value="&lt;font style=&quot;font-size: 14px;&quot;&gt;Existing User&lt;/font&gt;" style="shape=umlActor;verticalLabelPosition=bottom;verticalAlign=top;html=1;" parent="1" vertex="1">
          <mxGeometry x="-40" y="-2120" width="30" height="60" as="geometry" />
        </mxCell>
        <mxCell id="y5H6D8yGrRoYd4vspd71-24" value="McGregor Institute of Botanical Training" style="text;strokeColor=none;fillColor=none;html=1;fontSize=24;fontStyle=1;verticalAlign=middle;align=center;" parent="1" vertex="1">
          <mxGeometry x="680" y="-2640" width="140" height="40" as="geometry" />
        </mxCell>
        <mxCell id="y5H6D8yGrRoYd4vspd71-35" style="edgeStyle=orthogonalEdgeStyle;rounded=0;orthogonalLoop=1;jettySize=auto;html=1;entryX=0.5;entryY=0;entryDx=0;entryDy=0;endArrow=none;endFill=0;startSize=8;sourcePerimeterSpacing=9;" parent="1" source="y5H6D8yGrRoYd4vspd71-28" target="y5H6D8yGrRoYd4vspd71-33" edge="1">
          <mxGeometry relative="1" as="geometry">
            <Array as="points">
              <mxPoint x="380" y="-2480" />
              <mxPoint x="330" y="-2480" />
              <mxPoint x="330" y="-2464" />
              <mxPoint x="325" y="-2464" />
            </Array>
          </mxGeometry>
        </mxCell>
        <mxCell id="y5H6D8yGrRoYd4vspd71-36" style="edgeStyle=orthogonalEdgeStyle;rounded=0;orthogonalLoop=1;jettySize=auto;html=1;startArrow=block;startFill=0;endArrow=none;endFill=0;" parent="1" source="y5H6D8yGrRoYd4vspd71-28" target="y5H6D8yGrRoYd4vspd71-31" edge="1">
          <mxGeometry relative="1" as="geometry">
            <Array as="points">
              <mxPoint x="380" y="-2480" />
              <mxPoint x="470" y="-2480" />
            </Array>
          </mxGeometry>
        </mxCell>
        <mxCell id="y5H6D8yGrRoYd4vspd71-38" style="edgeStyle=orthogonalEdgeStyle;rounded=0;orthogonalLoop=1;jettySize=auto;html=1;entryX=0;entryY=0.5;entryDx=0;entryDy=0;dashed=1;endArrow=open;endFill=0;" parent="1" source="y5H6D8yGrRoYd4vspd71-28" target="y5H6D8yGrRoYd4vspd71-37" edge="1">
          <mxGeometry relative="1" as="geometry" />
        </mxCell>
        <mxCell id="y5H6D8yGrRoYd4vspd71-28" value="&lt;font style=&quot;font-size: 14px;&quot;&gt;Join Programs&lt;/font&gt;" style="ellipse;whiteSpace=wrap;html=1;" parent="1" vertex="1">
          <mxGeometry x="330" y="-2560" width="100" height="60" as="geometry" />
        </mxCell>
        <mxCell id="y5H6D8yGrRoYd4vspd71-31" value="&lt;font style=&quot;font-size: 13px;&quot;&gt;Post Graduate&lt;/font&gt;" style="ellipse;whiteSpace=wrap;html=1;" parent="1" vertex="1">
          <mxGeometry x="420" y="-2470" width="100" height="40" as="geometry" />
        </mxCell>
        <mxCell id="y5H6D8yGrRoYd4vspd71-33" value="&lt;font style=&quot;font-size: 13px;&quot;&gt;Graduate&lt;/font&gt;" style="ellipse;whiteSpace=wrap;html=1;" parent="1" vertex="1">
          <mxGeometry x="280" y="-2470" width="90" height="40" as="geometry" />
        </mxCell>
        <mxCell id="y5H6D8yGrRoYd4vspd71-37" value="&lt;font style=&quot;font-size: 13px;&quot;&gt;Paid and Unpaid Courses&lt;/font&gt;" style="ellipse;whiteSpace=wrap;html=1;" parent="1" vertex="1">
          <mxGeometry x="520" y="-2560" width="120" height="60" as="geometry" />
        </mxCell>
        <mxCell id="y5H6D8yGrRoYd4vspd71-39" value="&lt;font style=&quot;font-size: 13px;&quot;&gt;&amp;lt;&amp;lt;include&amp;gt;&amp;gt;&lt;/font&gt;" style="text;html=1;strokeColor=none;fillColor=none;align=center;verticalAlign=middle;whiteSpace=wrap;rounded=0;" parent="1" vertex="1">
          <mxGeometry x="440" y="-2570" width="60" height="30" as="geometry" />
        </mxCell>
        <mxCell id="y5H6D8yGrRoYd4vspd71-49" value="&lt;font style=&quot;font-size: 14px;&quot;&gt;Staff&lt;/font&gt;" style="shape=umlActor;verticalLabelPosition=bottom;verticalAlign=top;html=1;" parent="1" vertex="1">
          <mxGeometry x="1330" y="-2500" width="50" height="70" as="geometry" />
        </mxCell>
        <mxCell id="y5H6D8yGrRoYd4vspd71-65" style="edgeStyle=orthogonalEdgeStyle;rounded=0;orthogonalLoop=1;jettySize=auto;html=1;fontFamily=Helvetica;fontSize=12;fontColor=default;dashed=1;endArrow=open;endFill=0;" parent="1" source="y5H6D8yGrRoYd4vspd71-52" target="y5H6D8yGrRoYd4vspd71-63" edge="1">
          <mxGeometry relative="1" as="geometry" />
        </mxCell>
        <mxCell id="y5H6D8yGrRoYd4vspd71-52" value="&lt;font style=&quot;font-size: 14px;&quot;&gt;Register users&lt;/font&gt;" style="ellipse;whiteSpace=wrap;html=1;" parent="1" vertex="1">
          <mxGeometry x="920" y="-2560" width="140" height="50" as="geometry" />
        </mxCell>
        <mxCell id="y5H6D8yGrRoYd4vspd71-54" value="" style="endArrow=none;html=1;rounded=0;entryX=0;entryY=0.857;entryDx=0;entryDy=0;entryPerimeter=0;exitX=1;exitY=0.5;exitDx=0;exitDy=0;" parent="1" source="y5H6D8yGrRoYd4vspd71-52" target="y5H6D8yGrRoYd4vspd71-49" edge="1">
          <mxGeometry width="50" height="50" relative="1" as="geometry">
            <mxPoint x="750" y="-2310" as="sourcePoint" />
            <mxPoint x="800" y="-2360" as="targetPoint" />
          </mxGeometry>
        </mxCell>
        <mxCell id="y5H6D8yGrRoYd4vspd71-63" value="&lt;span style=&quot;font-size: 13px;&quot;&gt;Personal Information&lt;/span&gt;" style="ellipse;whiteSpace=wrap;html=1;" parent="1" vertex="1">
          <mxGeometry x="710" y="-2562.5" width="120" height="55" as="geometry" />
        </mxCell>
        <mxCell id="y5H6D8yGrRoYd4vspd71-67" value="&lt;font style=&quot;font-size: 13px;&quot;&gt;&amp;lt;&amp;lt;include&amp;gt;&amp;gt;&lt;/font&gt;" style="text;html=1;strokeColor=none;fillColor=none;align=center;verticalAlign=middle;whiteSpace=wrap;rounded=0;" parent="1" vertex="1">
          <mxGeometry x="850" y="-2570" width="60" height="30" as="geometry" />
        </mxCell>
        <mxCell id="y5H6D8yGrRoYd4vspd71-76" style="edgeStyle=orthogonalEdgeStyle;rounded=0;orthogonalLoop=1;jettySize=auto;html=1;fontFamily=Helvetica;fontSize=12;fontColor=default;dashed=1;endArrow=open;endFill=0;" parent="1" source="y5H6D8yGrRoYd4vspd71-71" target="y5H6D8yGrRoYd4vspd71-75" edge="1">
          <mxGeometry relative="1" as="geometry" />
        </mxCell>
        <mxCell id="y5H6D8yGrRoYd4vspd71-71" value="&lt;span style=&quot;font-size: 14px;&quot;&gt;Purchase Plants&lt;/span&gt;" style="ellipse;whiteSpace=wrap;html=1;" parent="1" vertex="1">
          <mxGeometry x="325" y="-2280" width="100" height="60" as="geometry" />
        </mxCell>
        <mxCell id="y5H6D8yGrRoYd4vspd71-75" value="&lt;span style=&quot;font-size: 13px;&quot;&gt;View Plant&lt;/span&gt;" style="ellipse;whiteSpace=wrap;html=1;" parent="1" vertex="1">
          <mxGeometry x="550" y="-2275" width="100" height="50" as="geometry" />
        </mxCell>
        <mxCell id="y5H6D8yGrRoYd4vspd71-77" value="&lt;font style=&quot;font-size: 13px;&quot;&gt;&amp;lt;&amp;lt;include&amp;gt;&amp;gt;&lt;/font&gt;" style="text;html=1;strokeColor=none;fillColor=none;align=center;verticalAlign=middle;whiteSpace=wrap;rounded=0;" parent="1" vertex="1">
          <mxGeometry x="460" y="-2290" width="60" height="30" as="geometry" />
        </mxCell>
        <mxCell id="y5H6D8yGrRoYd4vspd71-120" style="edgeStyle=orthogonalEdgeStyle;rounded=0;orthogonalLoop=1;jettySize=auto;html=1;entryX=0.5;entryY=0;entryDx=0;entryDy=0;fontFamily=Helvetica;fontSize=12;fontColor=default;endArrow=none;endFill=0;sourcePerimeterSpacing=9;" parent="1" source="y5H6D8yGrRoYd4vspd71-81" target="y5H6D8yGrRoYd4vspd71-84" edge="1">
          <mxGeometry relative="1" as="geometry" />
        </mxCell>
        <mxCell id="y5H6D8yGrRoYd4vspd71-81" value="&lt;span style=&quot;font-size: 14px;&quot;&gt;Make Payment&lt;/span&gt;" style="ellipse;whiteSpace=wrap;html=1;" parent="1" vertex="1">
          <mxGeometry x="335" y="-2195" width="110" height="60" as="geometry" />
        </mxCell>
        <mxCell id="y5H6D8yGrRoYd4vspd71-83" value="&lt;span style=&quot;font-size: 13px;&quot;&gt;Plant Purchased&lt;/span&gt;" style="ellipse;whiteSpace=wrap;html=1;" parent="1" vertex="1">
          <mxGeometry x="280" y="-2085" width="90" height="50" as="geometry" />
        </mxCell>
        <mxCell id="y5H6D8yGrRoYd4vspd71-84" value="&lt;span style=&quot;font-size: 13px;&quot;&gt;Enrolled Courses&lt;/span&gt;" style="ellipse;whiteSpace=wrap;html=1;" parent="1" vertex="1">
          <mxGeometry x="425" y="-2085" width="100" height="50" as="geometry" />
        </mxCell>
        <mxCell id="y5H6D8yGrRoYd4vspd71-90" value="&lt;span style=&quot;font-size: 14px;&quot;&gt;Expert&lt;/span&gt;" style="shape=umlActor;verticalLabelPosition=bottom;verticalAlign=top;html=1;" parent="1" vertex="1">
          <mxGeometry x="1300" y="-2350" width="30" height="60" as="geometry" />
        </mxCell>
        <mxCell id="y5H6D8yGrRoYd4vspd71-92" value="&lt;span style=&quot;font-size: 14px;&quot;&gt;Admin&lt;/span&gt;" style="shape=umlActor;verticalLabelPosition=bottom;verticalAlign=top;html=1;" parent="1" vertex="1">
          <mxGeometry x="1410" y="-2355" width="30" height="60" as="geometry" />
        </mxCell>
        <mxCell id="LDxG2cPnPeKsREz3wS5U-41" style="edgeStyle=orthogonalEdgeStyle;rounded=0;orthogonalLoop=1;jettySize=auto;html=1;entryX=0.5;entryY=0;entryDx=0;entryDy=0;endArrow=none;endFill=0;startSize=7;sourcePerimeterSpacing=74;targetPerimeterSpacing=9;endSize=0;" parent="1" edge="1">
          <mxGeometry relative="1" as="geometry">
            <Array as="points">
              <mxPoint x="1150" y="-2090" />
              <mxPoint x="830" y="-2090" />
              <mxPoint x="830" y="-2017" />
            </Array>
            <mxPoint x="1150" y="-2040" as="sourcePoint" />
            <mxPoint x="831.97" y="-2017.51" as="targetPoint" />
          </mxGeometry>
        </mxCell>
        <mxCell id="y5H6D8yGrRoYd4vspd71-97" value="&lt;span style=&quot;font-size: 14px;&quot;&gt;Generate Report&lt;/span&gt;" style="ellipse;whiteSpace=wrap;html=1;" parent="1" vertex="1">
          <mxGeometry x="1025" y="-2190" width="140" height="55" as="geometry" />
        </mxCell>
        <mxCell id="y5H6D8yGrRoYd4vspd71-100" value="&lt;span style=&quot;font-size: 13px;&quot;&gt;Financial Report&lt;/span&gt;" style="ellipse;whiteSpace=wrap;html=1;" parent="1" vertex="1">
          <mxGeometry x="780" y="-2035" width="110" height="50" as="geometry" />
        </mxCell>
        <mxCell id="y5H6D8yGrRoYd4vspd71-102" value="&lt;span style=&quot;font-size: 13px;&quot;&gt;Employee Report&lt;/span&gt;" style="ellipse;whiteSpace=wrap;html=1;" parent="1" vertex="1">
          <mxGeometry x="925" y="-2040" width="110" height="50" as="geometry" />
        </mxCell>
        <mxCell id="y5H6D8yGrRoYd4vspd71-104" value="&lt;span style=&quot;font-size: 13px;&quot;&gt;Users Report&lt;/span&gt;" style="ellipse;whiteSpace=wrap;html=1;" parent="1" vertex="1">
          <mxGeometry x="1090" y="-2040" width="100" height="50" as="geometry" />
        </mxCell>
        <mxCell id="y5H6D8yGrRoYd4vspd71-119" style="edgeStyle=orthogonalEdgeStyle;rounded=0;orthogonalLoop=1;jettySize=auto;html=1;entryX=0.406;entryY=-0.002;entryDx=0;entryDy=0;entryPerimeter=0;fontFamily=Helvetica;fontSize=12;fontColor=default;startArrow=block;startFill=0;endArrow=none;endFill=0;" parent="1" source="y5H6D8yGrRoYd4vspd71-81" target="y5H6D8yGrRoYd4vspd71-83" edge="1">
          <mxGeometry relative="1" as="geometry" />
        </mxCell>
        <mxCell id="y5H6D8yGrRoYd4vspd71-121" value="&lt;span style=&quot;font-size: 13px;&quot;&gt;Provide site location and pictures&lt;/span&gt;" style="ellipse;whiteSpace=wrap;html=1;" parent="1" vertex="1">
          <mxGeometry x="470" y="-2410" width="140" height="55" as="geometry" />
        </mxCell>
        <mxCell id="y5H6D8yGrRoYd4vspd71-126" value="&lt;font style=&quot;font-size: 13px;&quot;&gt;&amp;lt;&amp;lt;include&amp;gt;&amp;gt;&lt;/font&gt;" style="text;html=1;strokeColor=none;fillColor=none;align=center;verticalAlign=middle;whiteSpace=wrap;rounded=0;" parent="1" vertex="1">
          <mxGeometry x="640" y="-2420" width="60" height="30" as="geometry" />
        </mxCell>
        <mxCell id="y5H6D8yGrRoYd4vspd71-135" style="edgeStyle=orthogonalEdgeStyle;rounded=0;orthogonalLoop=1;jettySize=auto;html=1;entryX=0.5;entryY=0;entryDx=0;entryDy=0;fontFamily=Helvetica;fontSize=12;fontColor=default;endArrow=none;endFill=0;startSize=8;sourcePerimeterSpacing=9;" parent="1" source="y5H6D8yGrRoYd4vspd71-128" target="y5H6D8yGrRoYd4vspd71-132" edge="1">
          <mxGeometry relative="1" as="geometry" />
        </mxCell>
        <mxCell id="y5H6D8yGrRoYd4vspd71-143" style="edgeStyle=orthogonalEdgeStyle;rounded=0;orthogonalLoop=1;jettySize=auto;html=1;entryX=0;entryY=0.5;entryDx=0;entryDy=0;fontFamily=Helvetica;fontSize=12;fontColor=default;dashed=1;startArrow=open;startFill=0;endArrow=none;endFill=0;" parent="1" source="y5H6D8yGrRoYd4vspd71-128" target="y5H6D8yGrRoYd4vspd71-138" edge="1">
          <mxGeometry relative="1" as="geometry" />
        </mxCell>
        <mxCell id="y5H6D8yGrRoYd4vspd71-128" value="&lt;span style=&quot;font-size: 14px;&quot;&gt;&amp;nbsp;Take Exam&lt;/span&gt;" style="ellipse;whiteSpace=wrap;html=1;" parent="1" vertex="1">
          <mxGeometry x="320" y="-1980" width="140" height="60" as="geometry" />
        </mxCell>
        <mxCell id="y5H6D8yGrRoYd4vspd71-130" value="&lt;span style=&quot;font-size: 13px;&quot;&gt;Mock Test&lt;/span&gt;" style="ellipse;whiteSpace=wrap;html=1;" parent="1" vertex="1">
          <mxGeometry x="300" y="-1880" width="90" height="50" as="geometry" />
        </mxCell>
        <mxCell id="y5H6D8yGrRoYd4vspd71-132" value="&lt;span style=&quot;font-size: 13px;&quot;&gt;Certification Exams&lt;/span&gt;" style="ellipse;whiteSpace=wrap;html=1;" parent="1" vertex="1">
          <mxGeometry x="420" y="-1880" width="110" height="50" as="geometry" />
        </mxCell>
        <mxCell id="y5H6D8yGrRoYd4vspd71-133" style="edgeStyle=orthogonalEdgeStyle;rounded=0;orthogonalLoop=1;jettySize=auto;html=1;fontFamily=Helvetica;fontSize=12;fontColor=default;startArrow=block;startFill=0;entryX=0.272;entryY=0.071;entryDx=0;entryDy=0;entryPerimeter=0;endArrow=none;endFill=0;" parent="1" source="y5H6D8yGrRoYd4vspd71-128" target="y5H6D8yGrRoYd4vspd71-130" edge="1">
          <mxGeometry relative="1" as="geometry">
            <mxPoint x="325" y="-1880" as="targetPoint" />
          </mxGeometry>
        </mxCell>
        <mxCell id="y5H6D8yGrRoYd4vspd71-138" value="&lt;span style=&quot;font-size: 13px;&quot;&gt;Check Results&lt;/span&gt;" style="ellipse;whiteSpace=wrap;html=1;" parent="1" vertex="1">
          <mxGeometry x="565" y="-1977.5" width="110" height="55" as="geometry" />
        </mxCell>
        <mxCell id="y5H6D8yGrRoYd4vspd71-144" value="&lt;span style=&quot;font-size: 13px;&quot;&gt;&amp;lt;&amp;lt;extends&amp;gt;&amp;gt;&lt;/span&gt;" style="text;html=1;strokeColor=none;fillColor=none;align=center;verticalAlign=middle;whiteSpace=wrap;rounded=0;" parent="1" vertex="1">
          <mxGeometry x="480" y="-1980" width="60" height="30" as="geometry" />
        </mxCell>
        <mxCell id="y5H6D8yGrRoYd4vspd71-150" value="&lt;span style=&quot;font-size: 13px;&quot;&gt;Give Reply&lt;/span&gt;" style="ellipse;whiteSpace=wrap;html=1;" parent="1" vertex="1">
          <mxGeometry x="858" y="-2405" width="120" height="55" as="geometry" />
        </mxCell>
        <mxCell id="y5H6D8yGrRoYd4vspd71-222" style="edgeStyle=orthogonalEdgeStyle;rounded=0;orthogonalLoop=1;jettySize=auto;html=1;entryX=0.5;entryY=0;entryDx=0;entryDy=0;fontFamily=Helvetica;fontSize=12;fontColor=default;endArrow=none;endFill=0;sourcePerimeterSpacing=13;" parent="1" source="y5H6D8yGrRoYd4vspd71-163" target="y5H6D8yGrRoYd4vspd71-182" edge="1">
          <mxGeometry relative="1" as="geometry" />
        </mxCell>
        <mxCell id="y5H6D8yGrRoYd4vspd71-224" style="edgeStyle=orthogonalEdgeStyle;rounded=0;orthogonalLoop=1;jettySize=auto;html=1;entryX=0.5;entryY=0;entryDx=0;entryDy=0;fontFamily=Helvetica;fontSize=12;fontColor=default;endArrow=none;endFill=0;sourcePerimeterSpacing=10;" parent="1" source="y5H6D8yGrRoYd4vspd71-163" target="y5H6D8yGrRoYd4vspd71-184" edge="1">
          <mxGeometry relative="1" as="geometry">
            <Array as="points">
              <mxPoint x="370" y="-1720" />
              <mxPoint x="535" y="-1720" />
            </Array>
          </mxGeometry>
        </mxCell>
        <mxCell id="y5H6D8yGrRoYd4vspd71-225" style="edgeStyle=orthogonalEdgeStyle;rounded=0;orthogonalLoop=1;jettySize=auto;html=1;entryX=0.5;entryY=0;entryDx=0;entryDy=0;fontFamily=Helvetica;fontSize=12;fontColor=default;endArrow=none;endFill=0;sourcePerimeterSpacing=10;" parent="1" source="y5H6D8yGrRoYd4vspd71-163" target="y5H6D8yGrRoYd4vspd71-185" edge="1">
          <mxGeometry relative="1" as="geometry">
            <Array as="points">
              <mxPoint x="370" y="-1720" />
              <mxPoint x="645" y="-1720" />
            </Array>
          </mxGeometry>
        </mxCell>
        <mxCell id="y5H6D8yGrRoYd4vspd71-163" value="&lt;span style=&quot;font-size: 14px;&quot;&gt;Participate in Forum&lt;/span&gt;" style="ellipse;whiteSpace=wrap;html=1;" parent="1" vertex="1">
          <mxGeometry x="300" y="-1800" width="140" height="60" as="geometry" />
        </mxCell>
        <mxCell id="y5H6D8yGrRoYd4vspd71-174" style="edgeStyle=orthogonalEdgeStyle;rounded=0;orthogonalLoop=1;jettySize=auto;html=1;entryX=0.5;entryY=0;entryDx=0;entryDy=0;entryPerimeter=0;fontFamily=Helvetica;fontSize=12;fontColor=default;endArrow=none;endFill=0;" parent="1" target="y5H6D8yGrRoYd4vspd71-92" edge="1">
          <mxGeometry relative="1" as="geometry">
            <mxPoint x="1355" y="-2390" as="sourcePoint" />
            <Array as="points">
              <mxPoint x="1355" y="-2370" />
              <mxPoint x="1425" y="-2370" />
            </Array>
          </mxGeometry>
        </mxCell>
        <mxCell id="y5H6D8yGrRoYd4vspd71-175" style="edgeStyle=orthogonalEdgeStyle;rounded=0;orthogonalLoop=1;jettySize=auto;html=1;entryX=0.5;entryY=0;entryDx=0;entryDy=0;entryPerimeter=0;fontFamily=Helvetica;fontSize=12;fontColor=default;startArrow=block;startFill=0;endArrow=none;endFill=0;" parent="1" target="y5H6D8yGrRoYd4vspd71-90" edge="1">
          <mxGeometry relative="1" as="geometry">
            <mxPoint x="1355" y="-2400" as="sourcePoint" />
            <Array as="points">
              <mxPoint x="1355" y="-2370" />
              <mxPoint x="1315" y="-2370" />
            </Array>
          </mxGeometry>
        </mxCell>
        <mxCell id="y5H6D8yGrRoYd4vspd71-180" value="&lt;span style=&quot;font-size: 13px;&quot;&gt;&amp;lt;&amp;lt;extends&amp;gt;&amp;gt;&lt;/span&gt;" style="text;html=1;strokeColor=none;fillColor=none;align=center;verticalAlign=middle;whiteSpace=wrap;rounded=0;" parent="1" vertex="1">
          <mxGeometry x="770" y="-2420" width="60" height="30" as="geometry" />
        </mxCell>
        <mxCell id="y5H6D8yGrRoYd4vspd71-182" value="&lt;span style=&quot;font-size: 13px;&quot;&gt;Create Post&lt;/span&gt;" style="ellipse;whiteSpace=wrap;html=1;" parent="1" vertex="1">
          <mxGeometry x="260" y="-1700" width="90" height="50" as="geometry" />
        </mxCell>
        <mxCell id="y5H6D8yGrRoYd4vspd71-183" value="&lt;span style=&quot;font-size: 13px;&quot;&gt;Comment&lt;/span&gt;" style="ellipse;whiteSpace=wrap;html=1;" parent="1" vertex="1">
          <mxGeometry x="370" y="-1700" width="90" height="50" as="geometry" />
        </mxCell>
        <mxCell id="y5H6D8yGrRoYd4vspd71-184" value="&lt;span style=&quot;font-size: 13px;&quot;&gt;Engage on Post&lt;/span&gt;" style="ellipse;whiteSpace=wrap;html=1;" parent="1" vertex="1">
          <mxGeometry x="490" y="-1700" width="90" height="50" as="geometry" />
        </mxCell>
        <mxCell id="y5H6D8yGrRoYd4vspd71-185" value="Upvote" style="ellipse;whiteSpace=wrap;html=1;" parent="1" vertex="1">
          <mxGeometry x="600" y="-1700" width="90" height="50" as="geometry" />
        </mxCell>
        <mxCell id="y5H6D8yGrRoYd4vspd71-187" value="&lt;span style=&quot;font-size: 13px;&quot;&gt;Payment&amp;nbsp; Methods&lt;/span&gt;" style="ellipse;whiteSpace=wrap;html=1;" parent="1" vertex="1">
          <mxGeometry x="550" y="-2190" width="100" height="50" as="geometry" />
        </mxCell>
        <mxCell id="y5H6D8yGrRoYd4vspd71-192" value="&lt;font style=&quot;font-size: 13px;&quot;&gt;&amp;lt;&amp;lt;include&amp;gt;&amp;gt;&lt;/font&gt;" style="text;html=1;strokeColor=none;fillColor=none;align=center;verticalAlign=middle;whiteSpace=wrap;rounded=0;rotation=288;opacity=70;" parent="1" vertex="1">
          <mxGeometry x="804.11" y="-1929.72" width="59" height="18" as="geometry" />
        </mxCell>
        <mxCell id="y5H6D8yGrRoYd4vspd71-197" value="&lt;span style=&quot;font-size: 13px;&quot;&gt;Finance data&lt;/span&gt;" style="ellipse;whiteSpace=wrap;html=1;" parent="1" vertex="1">
          <mxGeometry x="743" y="-1872.5" width="100" height="55" as="geometry" />
        </mxCell>
        <mxCell id="y5H6D8yGrRoYd4vspd71-198" value="&lt;span style=&quot;font-size: 13px;&quot;&gt;Employee Data&lt;/span&gt;" style="ellipse;whiteSpace=wrap;html=1;" parent="1" vertex="1">
          <mxGeometry x="914" y="-1870" width="115" height="50" as="geometry" />
        </mxCell>
        <mxCell id="y5H6D8yGrRoYd4vspd71-199" value="&lt;span style=&quot;font-size: 13px;&quot;&gt;User Data&lt;/span&gt;" style="ellipse;whiteSpace=wrap;html=1;" parent="1" vertex="1">
          <mxGeometry x="1070" y="-1875" width="90" height="55" as="geometry" />
        </mxCell>
        <mxCell id="y5H6D8yGrRoYd4vspd71-205" value="" style="endArrow=open;html=1;rounded=0;fontFamily=Helvetica;fontSize=12;fontColor=default;exitX=0.256;exitY=1.015;exitDx=0;exitDy=0;exitPerimeter=0;dashed=1;startArrow=none;startFill=0;endFill=0;entryX=0.5;entryY=0;entryDx=0;entryDy=0;" parent="1" source="y5H6D8yGrRoYd4vspd71-100" target="y5H6D8yGrRoYd4vspd71-197" edge="1">
          <mxGeometry width="50" height="50" relative="1" as="geometry">
            <mxPoint x="830" y="-2020" as="sourcePoint" />
            <mxPoint x="730" y="-2160" as="targetPoint" />
          </mxGeometry>
        </mxCell>
        <mxCell id="y5H6D8yGrRoYd4vspd71-211" value="" style="endArrow=open;html=1;rounded=0;fontFamily=Helvetica;fontSize=12;fontColor=default;exitX=0.283;exitY=0.982;exitDx=0;exitDy=0;exitPerimeter=0;dashed=1;startArrow=none;startFill=0;endFill=0;entryX=0.472;entryY=-0.045;entryDx=0;entryDy=0;entryPerimeter=0;" parent="1" source="y5H6D8yGrRoYd4vspd71-104" target="y5H6D8yGrRoYd4vspd71-199" edge="1">
          <mxGeometry width="50" height="50" relative="1" as="geometry">
            <mxPoint x="960" y="-2190" as="sourcePoint" />
            <mxPoint x="871" y="-2142" as="targetPoint" />
          </mxGeometry>
        </mxCell>
        <mxCell id="y5H6D8yGrRoYd4vspd71-213" value="&lt;font style=&quot;font-size: 13px;&quot;&gt;&amp;lt;&amp;lt;include&amp;gt;&amp;gt;&lt;/font&gt;" style="text;html=1;strokeColor=none;fillColor=none;align=center;verticalAlign=middle;whiteSpace=wrap;rounded=0;rotation=280;" parent="1" vertex="1">
          <mxGeometry x="1115" y="-1940" width="50" height="30" as="geometry" />
        </mxCell>
        <mxCell id="y5H6D8yGrRoYd4vspd71-216" value="" style="endArrow=none;html=1;rounded=0;fontFamily=Helvetica;fontSize=12;fontColor=default;entryX=0;entryY=0.5;entryDx=0;entryDy=0;" parent="1" target="y5H6D8yGrRoYd4vspd71-28" edge="1">
          <mxGeometry width="50" height="50" relative="1" as="geometry">
            <mxPoint x="90" y="-2280" as="sourcePoint" />
            <mxPoint x="830" y="-2240" as="targetPoint" />
          </mxGeometry>
        </mxCell>
        <mxCell id="y5H6D8yGrRoYd4vspd71-217" value="" style="endArrow=none;html=1;rounded=0;fontFamily=Helvetica;fontSize=12;fontColor=default;entryX=0;entryY=0.5;entryDx=0;entryDy=0;" parent="1" target="y5H6D8yGrRoYd4vspd71-71" edge="1">
          <mxGeometry width="50" height="50" relative="1" as="geometry">
            <mxPoint x="100" y="-2270" as="sourcePoint" />
            <mxPoint x="340" y="-2520" as="targetPoint" />
          </mxGeometry>
        </mxCell>
        <mxCell id="y5H6D8yGrRoYd4vspd71-218" value="" style="endArrow=none;html=1;rounded=0;fontFamily=Helvetica;fontSize=12;fontColor=default;entryX=0;entryY=0.5;entryDx=0;entryDy=0;" parent="1" target="y5H6D8yGrRoYd4vspd71-81" edge="1">
          <mxGeometry width="50" height="50" relative="1" as="geometry">
            <mxPoint x="100" y="-2260" as="sourcePoint" />
            <mxPoint x="350" y="-2510" as="targetPoint" />
          </mxGeometry>
        </mxCell>
        <mxCell id="y5H6D8yGrRoYd4vspd71-223" style="edgeStyle=orthogonalEdgeStyle;rounded=0;orthogonalLoop=1;jettySize=auto;html=1;entryX=0.67;entryY=0.04;entryDx=0;entryDy=0;entryPerimeter=0;fontFamily=Helvetica;fontSize=12;fontColor=default;startArrow=block;startFill=0;endArrow=none;endFill=0;" parent="1" source="y5H6D8yGrRoYd4vspd71-163" target="y5H6D8yGrRoYd4vspd71-183" edge="1">
          <mxGeometry relative="1" as="geometry" />
        </mxCell>
        <mxCell id="LDxG2cPnPeKsREz3wS5U-4" style="edgeStyle=orthogonalEdgeStyle;rounded=0;orthogonalLoop=1;jettySize=auto;html=1;entryX=0.5;entryY=0;entryDx=0;entryDy=0;entryPerimeter=0;endArrow=none;endFill=0;startArrow=block;startFill=0;sourcePerimeterSpacing=23;" parent="1" source="y5H6D8yGrRoYd4vspd71-20" target="y5H6D8yGrRoYd4vspd71-9" edge="1">
          <mxGeometry relative="1" as="geometry">
            <Array as="points">
              <mxPoint x="48" y="-2160" />
              <mxPoint x="105" y="-2160" />
            </Array>
          </mxGeometry>
        </mxCell>
        <mxCell id="LDxG2cPnPeKsREz3wS5U-6" value="&lt;span style=&quot;font-size: 14px;&quot;&gt;Ask Recommendations&lt;/span&gt;" style="ellipse;whiteSpace=wrap;html=1;" parent="1" vertex="1">
          <mxGeometry x="665" y="-2360" width="155" height="60" as="geometry" />
        </mxCell>
        <mxCell id="LDxG2cPnPeKsREz3wS5U-8" style="edgeStyle=orthogonalEdgeStyle;rounded=0;orthogonalLoop=1;jettySize=auto;html=1;fontFamily=Helvetica;fontSize=12;fontColor=default;dashed=1;endArrow=open;endFill=0;exitX=0.968;exitY=0.583;exitDx=0;exitDy=0;exitPerimeter=0;sourcePerimeterSpacing=0;startSize=6;targetPerimeterSpacing=0;endSize=8;" parent="1" source="y5H6D8yGrRoYd4vspd71-81" edge="1">
          <mxGeometry relative="1" as="geometry">
            <mxPoint x="520" y="-2179.9714285714285" as="sourcePoint" />
            <mxPoint x="550" y="-2160" as="targetPoint" />
          </mxGeometry>
        </mxCell>
        <mxCell id="LDxG2cPnPeKsREz3wS5U-10" value="&lt;font style=&quot;font-size: 13px;&quot;&gt;&amp;lt;&amp;lt;include&amp;gt;&amp;gt;&lt;/font&gt;" style="text;html=1;strokeColor=none;fillColor=none;align=center;verticalAlign=middle;whiteSpace=wrap;rounded=0;" parent="1" vertex="1">
          <mxGeometry x="465" y="-2195" width="60" height="30" as="geometry" />
        </mxCell>
        <mxCell id="LDxG2cPnPeKsREz3wS5U-12" value="" style="endArrow=none;html=1;rounded=0;fontFamily=Helvetica;fontSize=12;fontColor=default;entryX=-0.006;entryY=0.625;entryDx=0;entryDy=0;entryPerimeter=0;" parent="1" target="LDxG2cPnPeKsREz3wS5U-6" edge="1">
          <mxGeometry width="50" height="50" relative="1" as="geometry">
            <mxPoint x="110" y="-2280" as="sourcePoint" />
            <mxPoint x="335" y="-2240" as="targetPoint" />
          </mxGeometry>
        </mxCell>
        <mxCell id="LDxG2cPnPeKsREz3wS5U-17" value="" style="endArrow=none;html=1;rounded=0;" parent="1" source="LDxG2cPnPeKsREz3wS5U-6" target="y5H6D8yGrRoYd4vspd71-90" edge="1">
          <mxGeometry width="50" height="50" relative="1" as="geometry">
            <mxPoint x="1070" y="-2525" as="sourcePoint" />
            <mxPoint x="1340" y="-2430" as="targetPoint" />
          </mxGeometry>
        </mxCell>
        <mxCell id="LDxG2cPnPeKsREz3wS5U-22" value="" style="endArrow=open;html=1;rounded=0;fontFamily=Helvetica;fontSize=12;fontColor=default;dashed=1;startArrow=none;startFill=0;endFill=0;entryX=0.5;entryY=0;entryDx=0;entryDy=0;" parent="1" source="y5H6D8yGrRoYd4vspd71-102" target="y5H6D8yGrRoYd4vspd71-198" edge="1">
          <mxGeometry width="50" height="50" relative="1" as="geometry">
            <mxPoint x="811" y="-2074" as="sourcePoint" />
            <mxPoint x="780" y="-1995" as="targetPoint" />
          </mxGeometry>
        </mxCell>
        <mxCell id="LDxG2cPnPeKsREz3wS5U-26" value="&lt;font style=&quot;font-size: 13px;&quot;&gt;&amp;lt;&amp;lt;include&amp;gt;&amp;gt;&lt;/font&gt;" style="text;html=1;strokeColor=none;fillColor=none;align=center;verticalAlign=middle;whiteSpace=wrap;rounded=0;rotation=283;" parent="1" vertex="1">
          <mxGeometry x="961" y="-1930" width="68" height="20" as="geometry" />
        </mxCell>
        <mxCell id="LDxG2cPnPeKsREz3wS5U-29" value="" style="endArrow=none;html=1;rounded=0;exitX=1;exitY=0;exitDx=0;exitDy=0;" parent="1" source="y5H6D8yGrRoYd4vspd71-97" edge="1">
          <mxGeometry width="50" height="50" relative="1" as="geometry">
            <mxPoint x="826" y="-2345" as="sourcePoint" />
            <mxPoint x="1410" y="-2270" as="targetPoint" />
          </mxGeometry>
        </mxCell>
        <mxCell id="LDxG2cPnPeKsREz3wS5U-34" style="edgeStyle=orthogonalEdgeStyle;rounded=0;orthogonalLoop=1;jettySize=auto;html=1;dashed=1;endArrow=open;endFill=0;sourcePerimeterSpacing=0;startSize=6;" parent="1" source="y5H6D8yGrRoYd4vspd71-150" target="LDxG2cPnPeKsREz3wS5U-6" edge="1">
          <mxGeometry relative="1" as="geometry">
            <mxPoint x="730" y="-2346" as="sourcePoint" />
            <mxPoint x="627" y="-2406" as="targetPoint" />
            <Array as="points">
              <mxPoint x="742" y="-2380" />
            </Array>
          </mxGeometry>
        </mxCell>
        <mxCell id="LDxG2cPnPeKsREz3wS5U-35" style="edgeStyle=orthogonalEdgeStyle;rounded=0;orthogonalLoop=1;jettySize=auto;html=1;dashed=1;endArrow=open;endFill=0;exitX=0.408;exitY=0.013;exitDx=0;exitDy=0;exitPerimeter=0;" parent="1" source="LDxG2cPnPeKsREz3wS5U-6" target="y5H6D8yGrRoYd4vspd71-121" edge="1">
          <mxGeometry relative="1" as="geometry">
            <mxPoint x="720" y="-2356" as="sourcePoint" />
            <mxPoint x="617" y="-2420" as="targetPoint" />
          </mxGeometry>
        </mxCell>
        <mxCell id="LDxG2cPnPeKsREz3wS5U-45" value="" style="endArrow=none;html=1;rounded=0;fontFamily=Helvetica;fontSize=12;fontColor=default;entryX=0;entryY=0.5;entryDx=0;entryDy=0;" parent="1" target="y5H6D8yGrRoYd4vspd71-128" edge="1">
          <mxGeometry width="50" height="50" relative="1" as="geometry">
            <mxPoint x="110" y="-2250" as="sourcePoint" />
            <mxPoint x="345" y="-2155" as="targetPoint" />
          </mxGeometry>
        </mxCell>
        <mxCell id="LDxG2cPnPeKsREz3wS5U-46" value="" style="endArrow=none;html=1;rounded=0;fontFamily=Helvetica;fontSize=12;fontColor=default;entryX=0;entryY=0.5;entryDx=0;entryDy=0;" parent="1" target="y5H6D8yGrRoYd4vspd71-163" edge="1">
          <mxGeometry width="50" height="50" relative="1" as="geometry">
            <mxPoint x="90" y="-2270" as="sourcePoint" />
            <mxPoint x="330" y="-1940" as="targetPoint" />
          </mxGeometry>
        </mxCell>
        <mxCell id="H9mYSLc5KWxEpRCMo_QJ-1" value="Manage Users" style="ellipse;whiteSpace=wrap;html=1;" parent="1" vertex="1">
          <mxGeometry x="810" y="-2305" width="120" height="80" as="geometry" />
        </mxCell>
        <mxCell id="H9mYSLc5KWxEpRCMo_QJ-2" value="" style="endArrow=none;html=1;rounded=0;exitX=1;exitY=0.5;exitDx=0;exitDy=0;entryX=0;entryY=1;entryDx=0;entryDy=0;entryPerimeter=0;" parent="1" source="H9mYSLc5KWxEpRCMo_QJ-1" target="y5H6D8yGrRoYd4vspd71-90" edge="1">
          <mxGeometry width="50" height="50" relative="1" as="geometry">
            <mxPoint x="830" y="-2130" as="sourcePoint" />
            <mxPoint x="880" y="-2180" as="targetPoint" />
          </mxGeometry>
        </mxCell>
        <mxCell id="H9mYSLc5KWxEpRCMo_QJ-3" value="Staff" style="ellipse;whiteSpace=wrap;html=1;" parent="1" vertex="1">
          <mxGeometry x="700" y="-2192.5" width="110" height="75" as="geometry" />
        </mxCell>
        <mxCell id="H9mYSLc5KWxEpRCMo_QJ-4" value="Customers" style="ellipse;whiteSpace=wrap;html=1;" parent="1" vertex="1">
          <mxGeometry x="890" y="-2192.5" width="103" height="80" as="geometry" />
        </mxCell>
        <mxCell id="H9mYSLc5KWxEpRCMo_QJ-8" value="" style="endArrow=block;html=1;rounded=0;exitX=0.5;exitY=0;exitDx=0;exitDy=0;edgeStyle=orthogonalEdgeStyle;endFill=0;" parent="1" source="H9mYSLc5KWxEpRCMo_QJ-3" target="H9mYSLc5KWxEpRCMo_QJ-1" edge="1">
          <mxGeometry width="50" height="50" relative="1" as="geometry">
            <mxPoint x="770" y="-2020" as="sourcePoint" />
            <mxPoint x="820" y="-2070" as="targetPoint" />
          </mxGeometry>
        </mxCell>
        <mxCell id="H9mYSLc5KWxEpRCMo_QJ-9" value="" style="endArrow=block;html=1;rounded=0;edgeStyle=orthogonalEdgeStyle;exitX=0.5;exitY=0;exitDx=0;exitDy=0;entryX=0.5;entryY=1;entryDx=0;entryDy=0;endFill=0;" parent="1" source="H9mYSLc5KWxEpRCMo_QJ-4" target="H9mYSLc5KWxEpRCMo_QJ-1" edge="1">
          <mxGeometry width="50" height="50" relative="1" as="geometry">
            <mxPoint x="770" y="-2020" as="sourcePoint" />
            <mxPoint x="820" y="-2070" as="targetPoint" />
          </mxGeometry>
        </mxCell>
        <mxCell id="rFFRD3WgweKtB0y7yD7u-1" style="edgeStyle=orthogonalEdgeStyle;rounded=0;orthogonalLoop=1;jettySize=auto;html=1;entryX=0.556;entryY=0.028;entryDx=0;entryDy=0;entryPerimeter=0;endArrow=none;endFill=0;startArrow=block;startFill=0;" edge="1" parent="1" source="y5H6D8yGrRoYd4vspd71-97" target="y5H6D8yGrRoYd4vspd71-102">
          <mxGeometry relative="1" as="geometry">
            <Array as="points">
              <mxPoint x="1095" y="-2090" />
              <mxPoint x="986" y="-2090" />
            </Array>
          </mxGeometry>
        </mxCell>
      </root>
    </mxGraphModel>
  </diagram>
  <diagram id="6JhEOm4E1Ug28YK4fjw-" name="Page-2">
    <mxGraphModel dx="6297" dy="4200" grid="1" gridSize="10" guides="1" tooltips="1" connect="1" arrows="1" fold="1" page="1" pageScale="1" pageWidth="4681" pageHeight="3300" math="0" shadow="0">
      <root>
        <mxCell id="0" />
        <mxCell id="1" parent="0" />
        <mxCell id="ilBTg2UwpuuWywrkyXRN-1" value="" style="whiteSpace=wrap;html=1;aspect=fixed;" parent="1" vertex="1">
          <mxGeometry x="208" y="-2660" width="1030" height="1030" as="geometry" />
        </mxCell>
        <mxCell id="ilBTg2UwpuuWywrkyXRN-2" value="&lt;font style=&quot;font-size: 14px;&quot;&gt;New User&lt;/font&gt;" style="shape=umlActor;verticalLabelPosition=bottom;verticalAlign=top;html=1;" parent="1" vertex="1">
          <mxGeometry x="80" y="-2330" width="30" height="60" as="geometry" />
        </mxCell>
        <mxCell id="ilBTg2UwpuuWywrkyXRN-3" value="&lt;font style=&quot;font-size: 14px;&quot;&gt;User&lt;/font&gt;" style="shape=umlActor;verticalLabelPosition=bottom;verticalAlign=top;html=1;" parent="1" vertex="1">
          <mxGeometry x="30" y="-2500" width="35" height="70" as="geometry" />
        </mxCell>
        <mxCell id="ilBTg2UwpuuWywrkyXRN-4" value="&lt;span style=&quot;font-size: 14px;&quot;&gt;Old User&lt;/span&gt;" style="shape=umlActor;verticalLabelPosition=bottom;verticalAlign=top;html=1;" parent="1" vertex="1">
          <mxGeometry x="-40" y="-2330" width="30" height="60" as="geometry" />
        </mxCell>
        <mxCell id="ilBTg2UwpuuWywrkyXRN-5" value="&lt;font style=&quot;font-size: 26px;&quot;&gt;McGregor Institute of Botanical Training&lt;/font&gt;" style="text;strokeColor=none;fillColor=none;html=1;fontSize=24;fontStyle=1;verticalAlign=middle;align=center;" parent="1" vertex="1">
          <mxGeometry x="680" y="-2640" width="140" height="40" as="geometry" />
        </mxCell>
        <mxCell id="ilBTg2UwpuuWywrkyXRN-6" style="edgeStyle=orthogonalEdgeStyle;rounded=0;orthogonalLoop=1;jettySize=auto;html=1;entryX=1;entryY=0;entryDx=0;entryDy=0;" parent="1" source="ilBTg2UwpuuWywrkyXRN-9" target="ilBTg2UwpuuWywrkyXRN-11" edge="1">
          <mxGeometry relative="1" as="geometry" />
        </mxCell>
        <mxCell id="ilBTg2UwpuuWywrkyXRN-7" style="edgeStyle=orthogonalEdgeStyle;rounded=0;orthogonalLoop=1;jettySize=auto;html=1;entryX=0;entryY=0;entryDx=0;entryDy=0;startArrow=classic;startFill=1;" parent="1" source="ilBTg2UwpuuWywrkyXRN-9" target="ilBTg2UwpuuWywrkyXRN-10" edge="1">
          <mxGeometry relative="1" as="geometry" />
        </mxCell>
        <mxCell id="ilBTg2UwpuuWywrkyXRN-8" style="edgeStyle=orthogonalEdgeStyle;rounded=0;orthogonalLoop=1;jettySize=auto;html=1;entryX=0;entryY=0.5;entryDx=0;entryDy=0;dashed=1;" parent="1" source="ilBTg2UwpuuWywrkyXRN-9" target="ilBTg2UwpuuWywrkyXRN-12" edge="1">
          <mxGeometry relative="1" as="geometry" />
        </mxCell>
        <mxCell id="ilBTg2UwpuuWywrkyXRN-9" value="&lt;font style=&quot;font-size: 14px;&quot;&gt;Join the Program&lt;/font&gt;" style="ellipse;whiteSpace=wrap;html=1;" parent="1" vertex="1">
          <mxGeometry x="330" y="-2560" width="100" height="60" as="geometry" />
        </mxCell>
        <mxCell id="ilBTg2UwpuuWywrkyXRN-10" value="&lt;font style=&quot;font-size: 13px;&quot;&gt;Post Graduate&lt;/font&gt;" style="ellipse;whiteSpace=wrap;html=1;" parent="1" vertex="1">
          <mxGeometry x="420" y="-2450" width="100" height="40" as="geometry" />
        </mxCell>
        <mxCell id="ilBTg2UwpuuWywrkyXRN-11" value="&lt;font style=&quot;font-size: 13px;&quot;&gt;Graduate&lt;/font&gt;" style="ellipse;whiteSpace=wrap;html=1;" parent="1" vertex="1">
          <mxGeometry x="250" y="-2450" width="100" height="40" as="geometry" />
        </mxCell>
        <mxCell id="ilBTg2UwpuuWywrkyXRN-12" value="&lt;font style=&quot;font-size: 13px;&quot;&gt;Paid and Unpaid Courses&lt;/font&gt;" style="ellipse;whiteSpace=wrap;html=1;" parent="1" vertex="1">
          <mxGeometry x="520" y="-2560" width="120" height="60" as="geometry" />
        </mxCell>
        <mxCell id="ilBTg2UwpuuWywrkyXRN-13" value="&lt;font style=&quot;font-size: 13px;&quot;&gt;&amp;lt;&amp;lt;include&amp;gt;&amp;gt;&lt;/font&gt;" style="text;html=1;strokeColor=none;fillColor=none;align=center;verticalAlign=middle;whiteSpace=wrap;rounded=0;" parent="1" vertex="1">
          <mxGeometry x="440" y="-2570" width="60" height="30" as="geometry" />
        </mxCell>
        <mxCell id="ilBTg2UwpuuWywrkyXRN-14" value="&lt;font style=&quot;font-size: 14px;&quot;&gt;Staff&lt;/font&gt;" style="shape=umlActor;verticalLabelPosition=bottom;verticalAlign=top;html=1;" parent="1" vertex="1">
          <mxGeometry x="1350" y="-2600" width="50" height="70" as="geometry" />
        </mxCell>
        <mxCell id="ilBTg2UwpuuWywrkyXRN-15" style="edgeStyle=orthogonalEdgeStyle;rounded=0;orthogonalLoop=1;jettySize=auto;html=1;entryX=1;entryY=0;entryDx=0;entryDy=0;" parent="1" source="ilBTg2UwpuuWywrkyXRN-18" target="ilBTg2UwpuuWywrkyXRN-20" edge="1">
          <mxGeometry relative="1" as="geometry">
            <Array as="points">
              <mxPoint x="990" y="-2490" />
              <mxPoint x="895" y="-2490" />
            </Array>
          </mxGeometry>
        </mxCell>
        <mxCell id="ilBTg2UwpuuWywrkyXRN-16" style="edgeStyle=orthogonalEdgeStyle;rounded=0;orthogonalLoop=1;jettySize=auto;html=1;entryX=0.5;entryY=0;entryDx=0;entryDy=0;startArrow=classic;startFill=1;" parent="1" source="ilBTg2UwpuuWywrkyXRN-18" target="ilBTg2UwpuuWywrkyXRN-21" edge="1">
          <mxGeometry relative="1" as="geometry">
            <Array as="points">
              <mxPoint x="990" y="-2490" />
              <mxPoint x="1060" y="-2490" />
            </Array>
          </mxGeometry>
        </mxCell>
        <mxCell id="ilBTg2UwpuuWywrkyXRN-17" style="edgeStyle=orthogonalEdgeStyle;rounded=0;orthogonalLoop=1;jettySize=auto;html=1;fontFamily=Helvetica;fontSize=12;fontColor=default;dashed=1;" parent="1" source="ilBTg2UwpuuWywrkyXRN-18" target="ilBTg2UwpuuWywrkyXRN-22" edge="1">
          <mxGeometry relative="1" as="geometry" />
        </mxCell>
        <mxCell id="ilBTg2UwpuuWywrkyXRN-18" value="&lt;font style=&quot;font-size: 14px;&quot;&gt;Register the users&lt;/font&gt;" style="ellipse;whiteSpace=wrap;html=1;" parent="1" vertex="1">
          <mxGeometry x="920" y="-2560" width="140" height="50" as="geometry" />
        </mxCell>
        <mxCell id="ilBTg2UwpuuWywrkyXRN-19" value="" style="endArrow=none;html=1;rounded=0;entryX=0;entryY=0.857;entryDx=0;entryDy=0;entryPerimeter=0;exitX=1;exitY=0.5;exitDx=0;exitDy=0;" parent="1" source="ilBTg2UwpuuWywrkyXRN-18" target="ilBTg2UwpuuWywrkyXRN-14" edge="1">
          <mxGeometry width="50" height="50" relative="1" as="geometry">
            <mxPoint x="750" y="-2310" as="sourcePoint" />
            <mxPoint x="800" y="-2360" as="targetPoint" />
          </mxGeometry>
        </mxCell>
        <mxCell id="ilBTg2UwpuuWywrkyXRN-20" value="&lt;span style=&quot;font-size: 13px;&quot;&gt;New Users&lt;/span&gt;" style="ellipse;whiteSpace=wrap;html=1;" parent="1" vertex="1">
          <mxGeometry x="810" y="-2450" width="100" height="40" as="geometry" />
        </mxCell>
        <mxCell id="ilBTg2UwpuuWywrkyXRN-21" value="&lt;span style=&quot;font-size: 13px;&quot;&gt;Staffs&lt;/span&gt;" style="ellipse;whiteSpace=wrap;html=1;" parent="1" vertex="1">
          <mxGeometry x="1010" y="-2450" width="100" height="40" as="geometry" />
        </mxCell>
        <mxCell id="ilBTg2UwpuuWywrkyXRN-22" value="&lt;span style=&quot;font-size: 13px;&quot;&gt;Registration Information&lt;/span&gt;" style="ellipse;whiteSpace=wrap;html=1;" parent="1" vertex="1">
          <mxGeometry x="710" y="-2562.5" width="120" height="55" as="geometry" />
        </mxCell>
        <mxCell id="ilBTg2UwpuuWywrkyXRN-23" value="&lt;font style=&quot;font-size: 13px;&quot;&gt;&amp;lt;&amp;lt;include&amp;gt;&amp;gt;&lt;/font&gt;" style="text;html=1;strokeColor=none;fillColor=none;align=center;verticalAlign=middle;whiteSpace=wrap;rounded=0;" parent="1" vertex="1">
          <mxGeometry x="850" y="-2570" width="60" height="30" as="geometry" />
        </mxCell>
        <mxCell id="ilBTg2UwpuuWywrkyXRN-24" style="edgeStyle=orthogonalEdgeStyle;rounded=0;orthogonalLoop=1;jettySize=auto;html=1;fontFamily=Helvetica;fontSize=12;fontColor=default;dashed=1;" parent="1" source="ilBTg2UwpuuWywrkyXRN-25" target="ilBTg2UwpuuWywrkyXRN-26" edge="1">
          <mxGeometry relative="1" as="geometry" />
        </mxCell>
        <mxCell id="ilBTg2UwpuuWywrkyXRN-25" value="&lt;span style=&quot;font-size: 14px;&quot;&gt;Purchase Plants&lt;/span&gt;" style="ellipse;whiteSpace=wrap;html=1;" parent="1" vertex="1">
          <mxGeometry x="330" y="-2350" width="100" height="60" as="geometry" />
        </mxCell>
        <mxCell id="ilBTg2UwpuuWywrkyXRN-26" value="&lt;span style=&quot;font-size: 13px;&quot;&gt;View Plant&lt;/span&gt;" style="ellipse;whiteSpace=wrap;html=1;" parent="1" vertex="1">
          <mxGeometry x="520" y="-2345" width="100" height="50" as="geometry" />
        </mxCell>
        <mxCell id="ilBTg2UwpuuWywrkyXRN-27" value="&lt;font style=&quot;font-size: 13px;&quot;&gt;&amp;lt;&amp;lt;include&amp;gt;&amp;gt;&lt;/font&gt;" style="text;html=1;strokeColor=none;fillColor=none;align=center;verticalAlign=middle;whiteSpace=wrap;rounded=0;" parent="1" vertex="1">
          <mxGeometry x="440" y="-2350" width="60" height="30" as="geometry" />
        </mxCell>
        <mxCell id="ilBTg2UwpuuWywrkyXRN-28" style="edgeStyle=orthogonalEdgeStyle;rounded=0;orthogonalLoop=1;jettySize=auto;html=1;entryX=0.5;entryY=0;entryDx=0;entryDy=0;fontFamily=Helvetica;fontSize=12;fontColor=default;" parent="1" source="ilBTg2UwpuuWywrkyXRN-30" target="ilBTg2UwpuuWywrkyXRN-32" edge="1">
          <mxGeometry relative="1" as="geometry" />
        </mxCell>
        <mxCell id="ilBTg2UwpuuWywrkyXRN-29" style="edgeStyle=orthogonalEdgeStyle;rounded=0;orthogonalLoop=1;jettySize=auto;html=1;entryX=0;entryY=0.5;entryDx=0;entryDy=0;fontFamily=Helvetica;fontSize=12;fontColor=default;dashed=1;" parent="1" source="ilBTg2UwpuuWywrkyXRN-30" target="ilBTg2UwpuuWywrkyXRN-73" edge="1">
          <mxGeometry relative="1" as="geometry" />
        </mxCell>
        <mxCell id="ilBTg2UwpuuWywrkyXRN-30" value="&lt;span style=&quot;font-size: 14px;&quot;&gt;Make Payment&lt;/span&gt;" style="ellipse;whiteSpace=wrap;html=1;" parent="1" vertex="1">
          <mxGeometry x="340" y="-2260" width="110" height="60" as="geometry" />
        </mxCell>
        <mxCell id="ilBTg2UwpuuWywrkyXRN-31" value="&lt;span style=&quot;font-size: 13px;&quot;&gt;Plant Purchased&lt;/span&gt;" style="ellipse;whiteSpace=wrap;html=1;" parent="1" vertex="1">
          <mxGeometry x="290" y="-2150" width="90" height="50" as="geometry" />
        </mxCell>
        <mxCell id="ilBTg2UwpuuWywrkyXRN-32" value="&lt;span style=&quot;font-size: 13px;&quot;&gt;Enrolled Courses&lt;/span&gt;" style="ellipse;whiteSpace=wrap;html=1;" parent="1" vertex="1">
          <mxGeometry x="420" y="-2150" width="100" height="50" as="geometry" />
        </mxCell>
        <mxCell id="ilBTg2UwpuuWywrkyXRN-33" value="&lt;span style=&quot;font-size: 14px;&quot;&gt;Admin&lt;/span&gt;" style="shape=umlActor;verticalLabelPosition=bottom;verticalAlign=top;html=1;" parent="1" vertex="1">
          <mxGeometry x="1330" y="-2375" width="30" height="60" as="geometry" />
        </mxCell>
        <mxCell id="ilBTg2UwpuuWywrkyXRN-34" value="&lt;span style=&quot;font-size: 14px;&quot;&gt;Expert&lt;/span&gt;" style="shape=umlActor;verticalLabelPosition=bottom;verticalAlign=top;html=1;" parent="1" vertex="1">
          <mxGeometry x="1460" y="-2075" width="30" height="60" as="geometry" />
        </mxCell>
        <mxCell id="ilBTg2UwpuuWywrkyXRN-35" style="edgeStyle=orthogonalEdgeStyle;rounded=0;orthogonalLoop=1;jettySize=auto;html=1;entryX=0.5;entryY=0;entryDx=0;entryDy=0;fontFamily=Helvetica;fontSize=12;fontColor=default;" parent="1" source="ilBTg2UwpuuWywrkyXRN-38" target="ilBTg2UwpuuWywrkyXRN-39" edge="1">
          <mxGeometry relative="1" as="geometry">
            <Array as="points">
              <mxPoint x="950" y="-2290" />
              <mxPoint x="810" y="-2290" />
            </Array>
          </mxGeometry>
        </mxCell>
        <mxCell id="ilBTg2UwpuuWywrkyXRN-36" style="edgeStyle=orthogonalEdgeStyle;rounded=0;orthogonalLoop=1;jettySize=auto;html=1;entryX=0.5;entryY=0;entryDx=0;entryDy=0;fontFamily=Helvetica;fontSize=12;fontColor=default;startArrow=classic;startFill=1;" parent="1" source="ilBTg2UwpuuWywrkyXRN-38" target="ilBTg2UwpuuWywrkyXRN-41" edge="1">
          <mxGeometry relative="1" as="geometry">
            <Array as="points">
              <mxPoint x="950" y="-2290" />
              <mxPoint x="1090" y="-2290" />
            </Array>
          </mxGeometry>
        </mxCell>
        <mxCell id="ilBTg2UwpuuWywrkyXRN-37" style="edgeStyle=orthogonalEdgeStyle;rounded=0;orthogonalLoop=1;jettySize=auto;html=1;entryX=0.5;entryY=0;entryDx=0;entryDy=0;fontFamily=Helvetica;fontSize=12;fontColor=default;" parent="1" edge="1">
          <mxGeometry relative="1" as="geometry">
            <mxPoint x="960" y="-2290" as="sourcePoint" />
            <mxPoint x="960" y="-2250" as="targetPoint" />
          </mxGeometry>
        </mxCell>
        <mxCell id="ilBTg2UwpuuWywrkyXRN-38" value="&lt;span style=&quot;font-size: 14px;&quot;&gt;Generate Report&lt;/span&gt;" style="ellipse;whiteSpace=wrap;html=1;" parent="1" vertex="1">
          <mxGeometry x="880" y="-2370" width="140" height="50" as="geometry" />
        </mxCell>
        <mxCell id="ilBTg2UwpuuWywrkyXRN-39" value="&lt;span style=&quot;font-size: 13px;&quot;&gt;Financial Report&lt;/span&gt;" style="ellipse;whiteSpace=wrap;html=1;" parent="1" vertex="1">
          <mxGeometry x="750" y="-2250" width="120" height="50" as="geometry" />
        </mxCell>
        <mxCell id="ilBTg2UwpuuWywrkyXRN-40" value="&lt;span style=&quot;font-size: 13px;&quot;&gt;Employee Report&lt;/span&gt;" style="ellipse;whiteSpace=wrap;html=1;" parent="1" vertex="1">
          <mxGeometry x="890" y="-2250" width="120" height="50" as="geometry" />
        </mxCell>
        <mxCell id="ilBTg2UwpuuWywrkyXRN-41" value="&lt;span style=&quot;font-size: 13px;&quot;&gt;Users Report&lt;/span&gt;" style="ellipse;whiteSpace=wrap;html=1;" parent="1" vertex="1">
          <mxGeometry x="1030" y="-2250" width="120" height="50" as="geometry" />
        </mxCell>
        <mxCell id="ilBTg2UwpuuWywrkyXRN-42" value="" style="endArrow=none;html=1;rounded=0;exitX=1;exitY=0.5;exitDx=0;exitDy=0;" parent="1" source="ilBTg2UwpuuWywrkyXRN-38" target="ilBTg2UwpuuWywrkyXRN-33" edge="1">
          <mxGeometry width="50" height="50" relative="1" as="geometry">
            <mxPoint x="1070" y="-2525" as="sourcePoint" />
            <mxPoint x="1280" y="-2430" as="targetPoint" />
          </mxGeometry>
        </mxCell>
        <mxCell id="ilBTg2UwpuuWywrkyXRN-43" value="&lt;span style=&quot;font-size: 14px;&quot;&gt;Ask Recommendations&lt;/span&gt;" style="ellipse;whiteSpace=wrap;html=1;" parent="1" vertex="1">
          <mxGeometry x="310" y="-2060" width="140" height="60" as="geometry" />
        </mxCell>
        <mxCell id="ilBTg2UwpuuWywrkyXRN-44" style="edgeStyle=orthogonalEdgeStyle;rounded=0;orthogonalLoop=1;jettySize=auto;html=1;entryX=0.321;entryY=-0.064;entryDx=0;entryDy=0;entryPerimeter=0;fontFamily=Helvetica;fontSize=12;fontColor=default;" parent="1" target="ilBTg2UwpuuWywrkyXRN-4" edge="1">
          <mxGeometry relative="1" as="geometry">
            <mxPoint x="47" y="-2400" as="sourcePoint" />
            <Array as="points">
              <mxPoint x="47" y="-2370" />
              <mxPoint x="-30" y="-2370" />
            </Array>
          </mxGeometry>
        </mxCell>
        <mxCell id="ilBTg2UwpuuWywrkyXRN-45" style="edgeStyle=orthogonalEdgeStyle;rounded=0;orthogonalLoop=1;jettySize=auto;html=1;entryX=0.5;entryY=0;entryDx=0;entryDy=0;entryPerimeter=0;fontFamily=Helvetica;fontSize=12;fontColor=default;" parent="1" target="ilBTg2UwpuuWywrkyXRN-2" edge="1">
          <mxGeometry relative="1" as="geometry">
            <mxPoint x="47" y="-2400" as="sourcePoint" />
            <Array as="points">
              <mxPoint x="47" y="-2370" />
              <mxPoint x="95" y="-2370" />
            </Array>
          </mxGeometry>
        </mxCell>
        <mxCell id="ilBTg2UwpuuWywrkyXRN-46" style="edgeStyle=orthogonalEdgeStyle;rounded=0;orthogonalLoop=1;jettySize=auto;html=1;entryX=0.406;entryY=-0.002;entryDx=0;entryDy=0;entryPerimeter=0;fontFamily=Helvetica;fontSize=12;fontColor=default;startArrow=classic;startFill=1;" parent="1" source="ilBTg2UwpuuWywrkyXRN-30" target="ilBTg2UwpuuWywrkyXRN-31" edge="1">
          <mxGeometry relative="1" as="geometry" />
        </mxCell>
        <mxCell id="ilBTg2UwpuuWywrkyXRN-47" value="&lt;span style=&quot;font-size: 13px;&quot;&gt;Queries&lt;/span&gt;" style="ellipse;whiteSpace=wrap;html=1;" parent="1" vertex="1">
          <mxGeometry x="550" y="-2055" width="110" height="55" as="geometry" />
        </mxCell>
        <mxCell id="ilBTg2UwpuuWywrkyXRN-48" style="edgeStyle=orthogonalEdgeStyle;rounded=0;orthogonalLoop=1;jettySize=auto;html=1;fontFamily=Helvetica;fontSize=12;fontColor=default;dashed=1;" parent="1" source="ilBTg2UwpuuWywrkyXRN-43" edge="1">
          <mxGeometry relative="1" as="geometry">
            <mxPoint x="550" y="-2030" as="targetPoint" />
          </mxGeometry>
        </mxCell>
        <mxCell id="ilBTg2UwpuuWywrkyXRN-49" value="&lt;font style=&quot;font-size: 13px;&quot;&gt;&amp;lt;&amp;lt;include&amp;gt;&amp;gt;&lt;/font&gt;" style="text;html=1;strokeColor=none;fillColor=none;align=center;verticalAlign=middle;whiteSpace=wrap;rounded=0;" parent="1" vertex="1">
          <mxGeometry x="470" y="-2060" width="60" height="30" as="geometry" />
        </mxCell>
        <mxCell id="ilBTg2UwpuuWywrkyXRN-50" style="edgeStyle=orthogonalEdgeStyle;rounded=0;orthogonalLoop=1;jettySize=auto;html=1;entryX=0.5;entryY=0;entryDx=0;entryDy=0;fontFamily=Helvetica;fontSize=12;fontColor=default;" parent="1" source="ilBTg2UwpuuWywrkyXRN-52" target="ilBTg2UwpuuWywrkyXRN-54" edge="1">
          <mxGeometry relative="1" as="geometry" />
        </mxCell>
        <mxCell id="ilBTg2UwpuuWywrkyXRN-51" style="edgeStyle=orthogonalEdgeStyle;rounded=0;orthogonalLoop=1;jettySize=auto;html=1;entryX=0;entryY=0.5;entryDx=0;entryDy=0;fontFamily=Helvetica;fontSize=12;fontColor=default;dashed=1;startArrow=classic;startFill=1;endArrow=none;endFill=0;" parent="1" source="ilBTg2UwpuuWywrkyXRN-52" target="ilBTg2UwpuuWywrkyXRN-56" edge="1">
          <mxGeometry relative="1" as="geometry" />
        </mxCell>
        <mxCell id="ilBTg2UwpuuWywrkyXRN-52" value="&lt;span style=&quot;font-size: 14px;&quot;&gt;Certification Exam&lt;/span&gt;" style="ellipse;whiteSpace=wrap;html=1;" parent="1" vertex="1">
          <mxGeometry x="320" y="-1980" width="140" height="60" as="geometry" />
        </mxCell>
        <mxCell id="ilBTg2UwpuuWywrkyXRN-53" value="&lt;span style=&quot;font-size: 13px;&quot;&gt;Mock Test&lt;/span&gt;" style="ellipse;whiteSpace=wrap;html=1;" parent="1" vertex="1">
          <mxGeometry x="300" y="-1880" width="90" height="50" as="geometry" />
        </mxCell>
        <mxCell id="ilBTg2UwpuuWywrkyXRN-54" value="&lt;span style=&quot;font-size: 13px;&quot;&gt;Certification Exams&lt;/span&gt;" style="ellipse;whiteSpace=wrap;html=1;" parent="1" vertex="1">
          <mxGeometry x="420" y="-1880" width="110" height="50" as="geometry" />
        </mxCell>
        <mxCell id="ilBTg2UwpuuWywrkyXRN-55" style="edgeStyle=orthogonalEdgeStyle;rounded=0;orthogonalLoop=1;jettySize=auto;html=1;fontFamily=Helvetica;fontSize=12;fontColor=default;startArrow=classic;startFill=1;entryX=0.272;entryY=0.071;entryDx=0;entryDy=0;entryPerimeter=0;" parent="1" source="ilBTg2UwpuuWywrkyXRN-52" target="ilBTg2UwpuuWywrkyXRN-53" edge="1">
          <mxGeometry relative="1" as="geometry">
            <mxPoint x="325" y="-1880" as="targetPoint" />
          </mxGeometry>
        </mxCell>
        <mxCell id="ilBTg2UwpuuWywrkyXRN-56" value="&lt;span style=&quot;font-size: 13px;&quot;&gt;Check Results&lt;/span&gt;" style="ellipse;whiteSpace=wrap;html=1;" parent="1" vertex="1">
          <mxGeometry x="565" y="-1977.5" width="110" height="55" as="geometry" />
        </mxCell>
        <mxCell id="ilBTg2UwpuuWywrkyXRN-57" value="&lt;span style=&quot;font-size: 13px;&quot;&gt;&amp;lt;&amp;lt;extends&amp;gt;&amp;gt;&lt;/span&gt;" style="text;html=1;strokeColor=none;fillColor=none;align=center;verticalAlign=middle;whiteSpace=wrap;rounded=0;" parent="1" vertex="1">
          <mxGeometry x="480" y="-1980" width="60" height="30" as="geometry" />
        </mxCell>
        <mxCell id="NbRQkMBVSkeO5zS_WDZy-1" style="edgeStyle=orthogonalEdgeStyle;rounded=0;orthogonalLoop=1;jettySize=auto;html=1;fontFamily=Helvetica;fontSize=12;fontColor=default;startArrow=classic;startFill=1;endArrow=none;endFill=0;" parent="1" source="ilBTg2UwpuuWywrkyXRN-58" target="ilBTg2UwpuuWywrkyXRN-61" edge="1">
          <mxGeometry relative="1" as="geometry" />
        </mxCell>
        <mxCell id="ilBTg2UwpuuWywrkyXRN-58" value="&lt;span style=&quot;font-size: 14px;&quot;&gt;Provide Recommendations&lt;/span&gt;" style="ellipse;whiteSpace=wrap;html=1;" parent="1" vertex="1">
          <mxGeometry x="1060" y="-2040" width="150" height="60" as="geometry" />
        </mxCell>
        <mxCell id="ilBTg2UwpuuWywrkyXRN-59" value="" style="endArrow=none;html=1;rounded=0;exitX=1.02;exitY=0.392;exitDx=0;exitDy=0;exitPerimeter=0;entryX=0;entryY=1;entryDx=0;entryDy=0;entryPerimeter=0;" parent="1" source="ilBTg2UwpuuWywrkyXRN-58" target="ilBTg2UwpuuWywrkyXRN-34" edge="1">
          <mxGeometry width="50" height="50" relative="1" as="geometry">
            <mxPoint x="1030" y="-2335" as="sourcePoint" />
            <mxPoint x="1430" y="-2270" as="targetPoint" />
          </mxGeometry>
        </mxCell>
        <mxCell id="ilBTg2UwpuuWywrkyXRN-61" value="&lt;span style=&quot;font-size: 13px;&quot;&gt;Provides Reply&lt;/span&gt;" style="ellipse;whiteSpace=wrap;html=1;" parent="1" vertex="1">
          <mxGeometry x="1075" y="-1890" width="120" height="55" as="geometry" />
        </mxCell>
        <mxCell id="ilBTg2UwpuuWywrkyXRN-62" style="edgeStyle=orthogonalEdgeStyle;rounded=0;orthogonalLoop=1;jettySize=auto;html=1;entryX=0.5;entryY=0;entryDx=0;entryDy=0;fontFamily=Helvetica;fontSize=12;fontColor=default;" parent="1" source="ilBTg2UwpuuWywrkyXRN-65" target="ilBTg2UwpuuWywrkyXRN-69" edge="1">
          <mxGeometry relative="1" as="geometry" />
        </mxCell>
        <mxCell id="ilBTg2UwpuuWywrkyXRN-63" style="edgeStyle=orthogonalEdgeStyle;rounded=0;orthogonalLoop=1;jettySize=auto;html=1;entryX=0.5;entryY=0;entryDx=0;entryDy=0;fontFamily=Helvetica;fontSize=12;fontColor=default;" parent="1" source="ilBTg2UwpuuWywrkyXRN-65" target="ilBTg2UwpuuWywrkyXRN-71" edge="1">
          <mxGeometry relative="1" as="geometry">
            <Array as="points">
              <mxPoint x="370" y="-1720" />
              <mxPoint x="535" y="-1720" />
            </Array>
          </mxGeometry>
        </mxCell>
        <mxCell id="ilBTg2UwpuuWywrkyXRN-64" style="edgeStyle=orthogonalEdgeStyle;rounded=0;orthogonalLoop=1;jettySize=auto;html=1;entryX=0.5;entryY=0;entryDx=0;entryDy=0;fontFamily=Helvetica;fontSize=12;fontColor=default;" parent="1" source="ilBTg2UwpuuWywrkyXRN-65" target="ilBTg2UwpuuWywrkyXRN-72" edge="1">
          <mxGeometry relative="1" as="geometry">
            <Array as="points">
              <mxPoint x="370" y="-1720" />
              <mxPoint x="645" y="-1720" />
            </Array>
          </mxGeometry>
        </mxCell>
        <mxCell id="ilBTg2UwpuuWywrkyXRN-65" value="&lt;span style=&quot;font-size: 14px;&quot;&gt;Participate in Forum&lt;/span&gt;" style="ellipse;whiteSpace=wrap;html=1;" parent="1" vertex="1">
          <mxGeometry x="300" y="-1800" width="140" height="60" as="geometry" />
        </mxCell>
        <mxCell id="ilBTg2UwpuuWywrkyXRN-68" value="&lt;span style=&quot;font-size: 13px;&quot;&gt;&amp;lt;&amp;lt;extends&amp;gt;&amp;gt;&lt;/span&gt;" style="text;html=1;strokeColor=none;fillColor=none;align=center;verticalAlign=middle;whiteSpace=wrap;rounded=0;rotation=-90;" parent="1" vertex="1">
          <mxGeometry x="1080" y="-1950" width="60" height="30" as="geometry" />
        </mxCell>
        <mxCell id="ilBTg2UwpuuWywrkyXRN-69" value="&lt;span style=&quot;font-size: 13px;&quot;&gt;Create Post&lt;/span&gt;" style="ellipse;whiteSpace=wrap;html=1;" parent="1" vertex="1">
          <mxGeometry x="260" y="-1700" width="90" height="50" as="geometry" />
        </mxCell>
        <mxCell id="ilBTg2UwpuuWywrkyXRN-70" value="&lt;span style=&quot;font-size: 13px;&quot;&gt;Comment&lt;/span&gt;" style="ellipse;whiteSpace=wrap;html=1;" parent="1" vertex="1">
          <mxGeometry x="370" y="-1700" width="90" height="50" as="geometry" />
        </mxCell>
        <mxCell id="ilBTg2UwpuuWywrkyXRN-71" value="&lt;span style=&quot;font-size: 13px;&quot;&gt;Engage on Post&lt;/span&gt;" style="ellipse;whiteSpace=wrap;html=1;" parent="1" vertex="1">
          <mxGeometry x="490" y="-1700" width="90" height="50" as="geometry" />
        </mxCell>
        <mxCell id="ilBTg2UwpuuWywrkyXRN-72" value="&lt;span style=&quot;font-size: 13px;&quot;&gt;Upvote&lt;/span&gt;" style="ellipse;whiteSpace=wrap;html=1;" parent="1" vertex="1">
          <mxGeometry x="600" y="-1700" width="90" height="50" as="geometry" />
        </mxCell>
        <mxCell id="ilBTg2UwpuuWywrkyXRN-73" value="&lt;span style=&quot;font-size: 13px;&quot;&gt;Payment&amp;nbsp; Methods&lt;/span&gt;" style="ellipse;whiteSpace=wrap;html=1;" parent="1" vertex="1">
          <mxGeometry x="520" y="-2255" width="100" height="50" as="geometry" />
        </mxCell>
        <mxCell id="ilBTg2UwpuuWywrkyXRN-79" value="&lt;font style=&quot;font-size: 13px;&quot;&gt;&amp;lt;&amp;lt;include&amp;gt;&amp;gt;&lt;/font&gt;" style="text;html=1;strokeColor=none;fillColor=none;align=center;verticalAlign=middle;whiteSpace=wrap;rounded=0;" parent="1" vertex="1">
          <mxGeometry x="454" y="-2260" width="60" height="30" as="geometry" />
        </mxCell>
        <mxCell id="ilBTg2UwpuuWywrkyXRN-84" value="" style="endArrow=none;html=1;rounded=0;fontFamily=Helvetica;fontSize=12;fontColor=default;entryX=0;entryY=0.5;entryDx=0;entryDy=0;" parent="1" target="ilBTg2UwpuuWywrkyXRN-9" edge="1">
          <mxGeometry width="50" height="50" relative="1" as="geometry">
            <mxPoint x="140" y="-2460" as="sourcePoint" />
            <mxPoint x="830" y="-2240" as="targetPoint" />
          </mxGeometry>
        </mxCell>
        <mxCell id="ilBTg2UwpuuWywrkyXRN-85" value="" style="endArrow=none;html=1;rounded=0;fontFamily=Helvetica;fontSize=12;fontColor=default;entryX=0;entryY=0.5;entryDx=0;entryDy=0;" parent="1" target="ilBTg2UwpuuWywrkyXRN-25" edge="1">
          <mxGeometry width="50" height="50" relative="1" as="geometry">
            <mxPoint x="140" y="-2450" as="sourcePoint" />
            <mxPoint x="340" y="-2520" as="targetPoint" />
          </mxGeometry>
        </mxCell>
        <mxCell id="ilBTg2UwpuuWywrkyXRN-86" value="" style="endArrow=none;html=1;rounded=0;fontFamily=Helvetica;fontSize=12;fontColor=default;entryX=0;entryY=0.5;entryDx=0;entryDy=0;" parent="1" target="ilBTg2UwpuuWywrkyXRN-30" edge="1">
          <mxGeometry width="50" height="50" relative="1" as="geometry">
            <mxPoint x="130" y="-2440" as="sourcePoint" />
            <mxPoint x="350" y="-2510" as="targetPoint" />
          </mxGeometry>
        </mxCell>
        <mxCell id="ilBTg2UwpuuWywrkyXRN-87" value="" style="endArrow=none;html=1;rounded=0;fontFamily=Helvetica;fontSize=12;fontColor=default;entryX=0;entryY=0.5;entryDx=0;entryDy=0;" parent="1" target="ilBTg2UwpuuWywrkyXRN-43" edge="1">
          <mxGeometry width="50" height="50" relative="1" as="geometry">
            <mxPoint x="130" y="-2430" as="sourcePoint" />
            <mxPoint x="350" y="-2220" as="targetPoint" />
          </mxGeometry>
        </mxCell>
        <mxCell id="ilBTg2UwpuuWywrkyXRN-88" value="" style="endArrow=none;html=1;rounded=0;fontFamily=Helvetica;fontSize=12;fontColor=default;entryX=0;entryY=0.5;entryDx=0;entryDy=0;" parent="1" target="ilBTg2UwpuuWywrkyXRN-52" edge="1">
          <mxGeometry width="50" height="50" relative="1" as="geometry">
            <mxPoint x="130" y="-2400" as="sourcePoint" />
            <mxPoint x="320" y="-2020" as="targetPoint" />
          </mxGeometry>
        </mxCell>
        <mxCell id="ilBTg2UwpuuWywrkyXRN-89" value="" style="endArrow=none;html=1;rounded=0;fontFamily=Helvetica;fontSize=12;fontColor=default;entryX=0;entryY=0.5;entryDx=0;entryDy=0;" parent="1" target="ilBTg2UwpuuWywrkyXRN-65" edge="1">
          <mxGeometry width="50" height="50" relative="1" as="geometry">
            <mxPoint x="130" y="-2400" as="sourcePoint" />
            <mxPoint x="330" y="-1940" as="targetPoint" />
          </mxGeometry>
        </mxCell>
        <mxCell id="ilBTg2UwpuuWywrkyXRN-90" style="edgeStyle=orthogonalEdgeStyle;rounded=0;orthogonalLoop=1;jettySize=auto;html=1;entryX=0.67;entryY=0.04;entryDx=0;entryDy=0;entryPerimeter=0;fontFamily=Helvetica;fontSize=12;fontColor=default;startArrow=classic;startFill=1;" parent="1" source="ilBTg2UwpuuWywrkyXRN-65" target="ilBTg2UwpuuWywrkyXRN-70" edge="1">
          <mxGeometry relative="1" as="geometry" />
        </mxCell>
      </root>
    </mxGraphModel>
  </diagram>
  <diagram id="cqZzo6DNMPHxSNRzSRFU" name="Page-3">
    <mxGraphModel dx="7857" dy="1680" grid="0" gridSize="10" guides="1" tooltips="1" connect="1" arrows="1" fold="1" page="1" pageScale="1" pageWidth="4681" pageHeight="3300" math="0" shadow="0">
      <root>
        <mxCell id="0" />
        <mxCell id="1" parent="0" />
        <mxCell id="Y-RGR6bOoZYTj-JDIk73-1" value="Actor" style="shape=umlActor;verticalLabelPosition=bottom;verticalAlign=top;html=1;outlineConnect=0;strokeColor=default;align=center;fontFamily=Helvetica;fontSize=12;fontColor=default;fillColor=default;" parent="1" vertex="1">
          <mxGeometry x="600" y="220" width="30" height="60" as="geometry" />
        </mxCell>
        <mxCell id="Y-RGR6bOoZYTj-JDIk73-3" value="" style="rounded=0;whiteSpace=wrap;html=1;strokeColor=default;align=center;verticalAlign=middle;fontFamily=Helvetica;fontSize=12;fontColor=default;fillColor=default;" parent="1" vertex="1">
          <mxGeometry x="810" y="280" width="120" height="60" as="geometry" />
        </mxCell>
        <mxCell id="Y-RGR6bOoZYTj-JDIk73-4" value="System" style="text;html=1;align=center;verticalAlign=middle;resizable=0;points=[];autosize=1;strokeColor=none;fillColor=none;fontSize=12;fontFamily=Helvetica;fontColor=default;" parent="1" vertex="1">
          <mxGeometry x="840" y="348" width="60" height="30" as="geometry" />
        </mxCell>
        <mxCell id="Y-RGR6bOoZYTj-JDIk73-5" value="" style="ellipse;whiteSpace=wrap;html=1;strokeColor=default;align=center;verticalAlign=middle;fontFamily=Helvetica;fontSize=12;fontColor=default;fillColor=default;" parent="1" vertex="1">
          <mxGeometry x="520" y="378" width="110" height="52" as="geometry" />
        </mxCell>
        <mxCell id="Y-RGR6bOoZYTj-JDIk73-6" value="Use Case" style="text;html=1;align=center;verticalAlign=middle;resizable=0;points=[];autosize=1;strokeColor=none;fillColor=none;fontSize=12;fontFamily=Helvetica;fontColor=default;" parent="1" vertex="1">
          <mxGeometry x="535" y="430" width="80" height="30" as="geometry" />
        </mxCell>
        <mxCell id="RnvtBBWhbVIhiOhTgPqe-1" value="" style="endArrow=none;html=1;rounded=0;fontFamily=Helvetica;fontSize=12;fontColor=default;" parent="1" edge="1">
          <mxGeometry width="50" height="50" relative="1" as="geometry">
            <mxPoint x="710" y="730" as="sourcePoint" />
            <mxPoint x="840" y="730" as="targetPoint" />
          </mxGeometry>
        </mxCell>
        <mxCell id="RnvtBBWhbVIhiOhTgPqe-2" value="" style="endArrow=classic;startArrow=classic;html=1;rounded=0;fontFamily=Helvetica;fontSize=12;fontColor=default;" parent="1" edge="1">
          <mxGeometry width="50" height="50" relative="1" as="geometry">
            <mxPoint x="710" y="760" as="sourcePoint" />
            <mxPoint x="840" y="760" as="targetPoint" />
          </mxGeometry>
        </mxCell>
        <mxCell id="p-EiN2sKlDmFAK7DfV1a-6" style="edgeStyle=orthogonalEdgeStyle;rounded=0;orthogonalLoop=1;jettySize=auto;html=1;entryX=0.5;entryY=0;entryDx=0;entryDy=0;fontFamily=Helvetica;fontSize=12;fontColor=default;endArrow=none;endFill=0;sourcePerimeterSpacing=9;" parent="1" source="p-EiN2sKlDmFAK7DfV1a-1" target="p-EiN2sKlDmFAK7DfV1a-4" edge="1">
          <mxGeometry relative="1" as="geometry" />
        </mxCell>
        <mxCell id="p-EiN2sKlDmFAK7DfV1a-1" value="" style="ellipse;whiteSpace=wrap;html=1;strokeColor=default;align=center;verticalAlign=middle;fontFamily=Helvetica;fontSize=12;fontColor=default;fillColor=default;" parent="1" vertex="1">
          <mxGeometry x="299" y="752" width="100" height="60" as="geometry" />
        </mxCell>
        <mxCell id="p-EiN2sKlDmFAK7DfV1a-2" value="" style="ellipse;whiteSpace=wrap;html=1;strokeColor=default;align=center;verticalAlign=middle;fontFamily=Helvetica;fontSize=12;fontColor=default;fillColor=default;" parent="1" vertex="1">
          <mxGeometry x="180" y="680" width="100" height="60" as="geometry" />
        </mxCell>
        <mxCell id="p-EiN2sKlDmFAK7DfV1a-4" value="" style="ellipse;whiteSpace=wrap;html=1;strokeColor=default;align=center;verticalAlign=middle;fontFamily=Helvetica;fontSize=12;fontColor=default;fillColor=default;" parent="1" vertex="1">
          <mxGeometry x="370" y="680" width="100" height="60" as="geometry" />
        </mxCell>
        <mxCell id="p-EiN2sKlDmFAK7DfV1a-5" style="edgeStyle=orthogonalEdgeStyle;rounded=0;orthogonalLoop=1;jettySize=auto;html=1;entryX=0.65;entryY=-0.039;entryDx=0;entryDy=0;entryPerimeter=0;fontFamily=Helvetica;fontSize=12;fontColor=default;endArrow=none;endFill=0;startArrow=block;startFill=0;" parent="1" source="p-EiN2sKlDmFAK7DfV1a-1" target="p-EiN2sKlDmFAK7DfV1a-2" edge="1">
          <mxGeometry relative="1" as="geometry" />
        </mxCell>
        <mxCell id="p-EiN2sKlDmFAK7DfV1a-9" style="edgeStyle=orthogonalEdgeStyle;rounded=0;orthogonalLoop=1;jettySize=auto;html=1;entryX=0;entryY=0.5;entryDx=0;entryDy=0;fontFamily=Helvetica;fontSize=12;fontColor=default;dashed=1;endArrow=open;endFill=0;" parent="1" source="p-EiN2sKlDmFAK7DfV1a-7" target="p-EiN2sKlDmFAK7DfV1a-8" edge="1">
          <mxGeometry relative="1" as="geometry" />
        </mxCell>
        <mxCell id="p-EiN2sKlDmFAK7DfV1a-7" value="Checkout" style="ellipse;whiteSpace=wrap;html=1;strokeColor=default;align=center;verticalAlign=middle;fontFamily=Helvetica;fontSize=12;fontColor=default;fillColor=default;" parent="1" vertex="1">
          <mxGeometry x="180" y="980" width="100" height="50" as="geometry" />
        </mxCell>
        <mxCell id="p-EiN2sKlDmFAK7DfV1a-8" value="Payment" style="ellipse;whiteSpace=wrap;html=1;strokeColor=default;align=center;verticalAlign=middle;fontFamily=Helvetica;fontSize=12;fontColor=default;fillColor=default;" parent="1" vertex="1">
          <mxGeometry x="370" y="980" width="90" height="50" as="geometry" />
        </mxCell>
        <mxCell id="p-EiN2sKlDmFAK7DfV1a-10" value="&amp;lt;&amp;lt;include&amp;gt;&amp;gt;" style="text;html=1;align=center;verticalAlign=middle;resizable=0;points=[];autosize=1;strokeColor=none;fillColor=none;fontSize=12;fontFamily=Helvetica;fontColor=default;" parent="1" vertex="1">
          <mxGeometry x="275" y="968" width="90" height="30" as="geometry" />
        </mxCell>
        <mxCell id="p-EiN2sKlDmFAK7DfV1a-13" style="edgeStyle=orthogonalEdgeStyle;rounded=0;orthogonalLoop=1;jettySize=auto;html=1;entryX=0;entryY=0.5;entryDx=0;entryDy=0;fontFamily=Helvetica;fontSize=12;fontColor=default;startArrow=open;startFill=0;endArrow=none;endFill=0;dashed=1;" parent="1" source="p-EiN2sKlDmFAK7DfV1a-11" target="p-EiN2sKlDmFAK7DfV1a-12" edge="1">
          <mxGeometry relative="1" as="geometry" />
        </mxCell>
        <mxCell id="p-EiN2sKlDmFAK7DfV1a-11" value="Place Order" style="ellipse;whiteSpace=wrap;html=1;strokeColor=default;align=center;verticalAlign=middle;fontFamily=Helvetica;fontSize=12;fontColor=default;fillColor=default;" parent="1" vertex="1">
          <mxGeometry x="180" y="1100" width="100" height="50" as="geometry" />
        </mxCell>
        <mxCell id="p-EiN2sKlDmFAK7DfV1a-12" value="Apply Discount" style="ellipse;whiteSpace=wrap;html=1;strokeColor=default;align=center;verticalAlign=middle;fontFamily=Helvetica;fontSize=12;fontColor=default;fillColor=default;" parent="1" vertex="1">
          <mxGeometry x="370" y="1100" width="100" height="50" as="geometry" />
        </mxCell>
        <mxCell id="p-EiN2sKlDmFAK7DfV1a-14" value="&amp;lt;&amp;lt;extend&amp;gt;&amp;gt;" style="text;html=1;align=center;verticalAlign=middle;resizable=0;points=[];autosize=1;strokeColor=none;fillColor=none;fontSize=12;fontFamily=Helvetica;fontColor=default;" parent="1" vertex="1">
          <mxGeometry x="280" y="1090" width="90" height="30" as="geometry" />
        </mxCell>
        <mxCell id="hzsMhS_soS8miRvjJMHh-2" style="edgeStyle=orthogonalEdgeStyle;rounded=0;orthogonalLoop=1;jettySize=auto;html=1;endArrow=none;endFill=0;dashed=1;" parent="1" source="hzsMhS_soS8miRvjJMHh-1" target="hzsMhS_soS8miRvjJMHh-9" edge="1">
          <mxGeometry relative="1" as="geometry">
            <mxPoint x="206" y="407" as="targetPoint" />
            <Array as="points">
              <mxPoint x="204" y="307" />
              <mxPoint x="204" y="388" />
            </Array>
          </mxGeometry>
        </mxCell>
        <mxCell id="hzsMhS_soS8miRvjJMHh-1" value="Object" style="rounded=0;whiteSpace=wrap;html=1;" parent="1" vertex="1">
          <mxGeometry x="162" y="189" width="83" height="38" as="geometry" />
        </mxCell>
        <mxCell id="hzsMhS_soS8miRvjJMHh-9" value="" style="html=1;points=[[0,0,0,0,5],[0,1,0,0,-5],[1,0,0,0,5],[1,1,0,0,-5]];perimeter=orthogonalPerimeter;outlineConnect=0;targetShapes=umlLifeline;portConstraint=eastwest;newEdgeStyle={&quot;curved&quot;:0,&quot;rounded&quot;:0};" parent="1" vertex="1">
          <mxGeometry x="198.5" y="290" width="10" height="105" as="geometry" />
        </mxCell>
        <mxCell id="hzsMhS_soS8miRvjJMHh-13" value="" style="edgeStyle=orthogonalEdgeStyle;rounded=0;orthogonalLoop=1;jettySize=auto;html=1;exitX=0.499;exitY=0.186;exitDx=0;exitDy=0;exitPerimeter=0;endArrow=none;endFill=0;dashed=1;" parent="1" target="hzsMhS_soS8miRvjJMHh-9" edge="1">
          <mxGeometry relative="1" as="geometry">
            <mxPoint x="203.48000000000002" y="418.9760000000001" as="sourcePoint" />
            <Array as="points">
              <mxPoint x="204" y="396" />
              <mxPoint x="204" y="396" />
            </Array>
          </mxGeometry>
        </mxCell>
        <mxCell id="hzsMhS_soS8miRvjJMHh-16" style="edgeStyle=orthogonalEdgeStyle;rounded=0;orthogonalLoop=1;jettySize=auto;html=1;curved=0;exitX=1;exitY=1;exitDx=0;exitDy=-5;exitPerimeter=0;startArrow=classic;startFill=1;endArrow=none;endFill=0;" parent="1" source="hzsMhS_soS8miRvjJMHh-15" edge="1">
          <mxGeometry relative="1" as="geometry">
            <mxPoint x="209" y="324" as="targetPoint" />
            <Array as="points">
              <mxPoint x="238" y="373" />
              <mxPoint x="238" y="322" />
              <mxPoint x="209" y="322" />
            </Array>
          </mxGeometry>
        </mxCell>
        <mxCell id="hzsMhS_soS8miRvjJMHh-15" value="" style="html=1;points=[[0,0,0,0,5],[0,1,0,0,-5],[1,0,0,0,5],[1,1,0,0,-5]];perimeter=orthogonalPerimeter;outlineConnect=0;targetShapes=umlLifeline;portConstraint=eastwest;newEdgeStyle={&quot;curved&quot;:0,&quot;rounded&quot;:0};" parent="1" vertex="1">
          <mxGeometry x="208.5" y="338" width="10" height="40" as="geometry" />
        </mxCell>
        <mxCell id="hzsMhS_soS8miRvjJMHh-17" value="Message" style="text;html=1;align=center;verticalAlign=middle;resizable=0;points=[];autosize=1;strokeColor=none;fillColor=none;" parent="1" vertex="1">
          <mxGeometry x="236" y="332" width="67" height="26" as="geometry" />
        </mxCell>
        <mxCell id="hzsMhS_soS8miRvjJMHh-18" value="Comment" style="shape=note2;boundedLbl=1;whiteSpace=wrap;html=1;size=25;verticalAlign=top;align=center;" parent="1" vertex="1">
          <mxGeometry x="192" y="452" width="120" height="60" as="geometry" />
        </mxCell>
        <mxCell id="hzsMhS_soS8miRvjJMHh-20" style="edgeStyle=orthogonalEdgeStyle;rounded=0;orthogonalLoop=1;jettySize=auto;html=1;endArrow=none;endFill=0;dashed=1;" parent="1" source="hzsMhS_soS8miRvjJMHh-19" edge="1">
          <mxGeometry relative="1" as="geometry">
            <mxPoint x="190.2413793103451" y="479.5" as="targetPoint" />
          </mxGeometry>
        </mxCell>
        <mxCell id="hzsMhS_soS8miRvjJMHh-22" style="edgeStyle=orthogonalEdgeStyle;rounded=0;orthogonalLoop=1;jettySize=auto;html=1;endArrow=none;endFill=0;dashed=1;" parent="1" source="hzsMhS_soS8miRvjJMHh-19" target="hzsMhS_soS8miRvjJMHh-21" edge="1">
          <mxGeometry relative="1" as="geometry">
            <Array as="points">
              <mxPoint x="39" y="564" />
              <mxPoint x="39" y="564" />
            </Array>
          </mxGeometry>
        </mxCell>
        <mxCell id="hzsMhS_soS8miRvjJMHh-19" value="Object" style="rounded=0;whiteSpace=wrap;html=1;" parent="1" vertex="1">
          <mxGeometry x="-11" y="452" width="100" height="55" as="geometry" />
        </mxCell>
        <mxCell id="hzsMhS_soS8miRvjJMHh-21" value="" style="html=1;points=[[0,0,0,0,5],[0,1,0,0,-5],[1,0,0,0,5],[1,1,0,0,-5]];perimeter=orthogonalPerimeter;outlineConnect=0;targetShapes=umlLifeline;portConstraint=eastwest;newEdgeStyle={&quot;curved&quot;:0,&quot;rounded&quot;:0};" parent="1" vertex="1">
          <mxGeometry x="34" y="583" width="10" height="80" as="geometry" />
        </mxCell>
        <mxCell id="hzsMhS_soS8miRvjJMHh-23" value="Name" style="shape=umlFrame;whiteSpace=wrap;html=1;pointerEvents=0;" parent="1" vertex="1">
          <mxGeometry x="315" y="112" width="210" height="104" as="geometry" />
        </mxCell>
        <mxCell id="hzsMhS_soS8miRvjJMHh-24" value="[Condition]" style="text;html=1;align=center;verticalAlign=middle;resizable=0;points=[];autosize=1;strokeColor=none;fillColor=none;" parent="1" vertex="1">
          <mxGeometry x="311.5" y="146" width="75" height="26" as="geometry" />
        </mxCell>
      </root>
    </mxGraphModel>
  </diagram>
  <diagram id="0J9wgbIfgzwqxA5yaoUA" name="Page-4">
    <mxGraphModel dx="6950" dy="4500" grid="1" gridSize="10" guides="1" tooltips="1" connect="1" arrows="1" fold="1" page="1" pageScale="1" pageWidth="4681" pageHeight="3300" math="0" shadow="0">
      <root>
        <mxCell id="0" />
        <mxCell id="1" parent="0" />
        <mxCell id="8K_nrp7X1eubTlWL3vP8-1" value="&lt;span style=&quot;color: rgba(0, 0, 0, 0); font-family: monospace; font-size: 0px; text-align: start;&quot;&gt;%3CmxGraphModel%3E%3Croot%3E%3CmxCell%20id%3D%220%22%2F%3E%3CmxCell%20id%3D%221%22%20parent%3D%220%22%2F%3E%3CmxCell%20id%3D%222%22%20value%3D%22%22%20style%3D%22whiteSpace%3Dwrap%3Bhtml%3D1%3Baspect%3Dfixed%3B%22%20vertex%3D%221%22%20parent%3D%221%22%3E%3CmxGeometry%20x%3D%22208%22%20y%3D%22-2640%22%20width%3D%221030%22%20height%3D%221030%22%20as%3D%22geometry%22%2F%3E%3C%2FmxCell%3E%3CmxCell%20id%3D%223%22%20value%3D%22%26lt%3Bfont%20style%3D%26quot%3Bfont-size%3A%2014px%3B%26quot%3B%26gt%3BNew%20User%26lt%3B%2Ffont%26gt%3B%22%20style%3D%22shape%3DumlActor%3BverticalLabelPosition%3Dbottom%3BverticalAlign%3Dtop%3Bhtml%3D1%3B%22%20vertex%3D%221%22%20parent%3D%221%22%3E%3CmxGeometry%20x%3D%2290%22%20y%3D%22-2120%22%20width%3D%2230%22%20height%3D%2260%22%20as%3D%22geometry%22%2F%3E%3C%2FmxCell%3E%3CmxCell%20id%3D%224%22%20style%3D%22edgeStyle%3DorthogonalEdgeStyle%3Brounded%3D0%3BorthogonalLoop%3D1%3BjettySize%3Dauto%3Bhtml%3D1%3BentryX%3D0.711%3BentryY%3D-0.036%3BentryDx%3D0%3BentryDy%3D0%3BentryPerimeter%3D0%3BendArrow%3Dnone%3BendFill%3D0%3BsourcePerimeterSpacing%3D33%3B%22%20edge%3D%221%22%20source%3D%225%22%20target%3D%226%22%20parent%3D%221%22%3E%3CmxGeometry%20relative%3D%221%22%20as%3D%22geometry%22%3E%3CmxPoint%20x%3D%22-20%22%20y%3D%22-2130%22%20as%3D%22targetPoint%22%2F%3E%3CArray%20as%3D%22points%22%3E%3CmxPoint%20x%3D%2247%22%20y%3D%22-2160%22%2F%3E%3CmxPoint%20x%3D%22-19%22%20y%3D%22-2160%22%2F%3E%3C%2FArray%3E%3C%2FmxGeometry%3E%3C%2FmxCell%3E%3CmxCell%20id%3D%225%22%20value%3D%22%26lt%3Bfont%20style%3D%26quot%3Bfont-size%3A%2014px%3B%26quot%3B%26gt%3BUser%26lt%3B%2Ffont%26gt%3B%22%20style%3D%22shape%3DumlActor%3BverticalLabelPosition%3Dbottom%3BverticalAlign%3Dtop%3Bhtml%3D1%3B%22%20vertex%3D%221%22%20parent%3D%221%22%3E%3CmxGeometry%20x%3D%2230%22%20y%3D%22-2275%22%20width%3D%2235%22%20height%3D%2270%22%20as%3D%22geometry%22%2F%3E%3C%2FmxCell%3E%3CmxCell%20id%3D%226%22%20value%3D%22%26lt%3Bfont%20style%3D%26quot%3Bfont-size%3A%2014px%3B%26quot%3B%26gt%3BExisting%20User%26lt%3B%2Ffont%26gt%3B%22%20style%3D%22shape%3DumlActor%3BverticalLabelPosition%3Dbottom%3BverticalAlign%3Dtop%3Bhtml%3D1%3B%22%20vertex%3D%221%22%20parent%3D%221%22%3E%3CmxGeometry%20x%3D%22-40%22%20y%3D%22-2120%22%20width%3D%2230%22%20height%3D%2260%22%20as%3D%22geometry%22%2F%3E%3C%2FmxCell%3E%3CmxCell%20id%3D%227%22%20value%3D%22McGregor%20Institute%20of%20Botanical%20Training%22%20style%3D%22text%3BstrokeColor%3Dnone%3BfillColor%3Dnone%3Bhtml%3D1%3BfontSize%3D24%3BfontStyle%3D1%3BverticalAlign%3Dmiddle%3Balign%3Dcenter%3B%22%20vertex%3D%221%22%20parent%3D%221%22%3E%3CmxGeometry%20x%3D%22680%22%20y%3D%22-2640%22%20width%3D%22140%22%20height%3D%2240%22%20as%3D%22geometry%22%2F%3E%3C%2FmxCell%3E%3CmxCell%20id%3D%228%22%20style%3D%22edgeStyle%3DorthogonalEdgeStyle%3Brounded%3D0%3BorthogonalLoop%3D1%3BjettySize%3Dauto%3Bhtml%3D1%3BentryX%3D0.5%3BentryY%3D0%3BentryDx%3D0%3BentryDy%3D0%3BendArrow%3Dnone%3BendFill%3D0%3BstartSize%3D8%3BsourcePerimeterSpacing%3D9%3B%22%20edge%3D%221%22%20source%3D%2211%22%20target%3D%2213%22%20parent%3D%221%22%3E%3CmxGeometry%20relative%3D%221%22%20as%3D%22geometry%22%3E%3CArray%20as%3D%22points%22%3E%3CmxPoint%20x%3D%22380%22%20y%3D%22-2480%22%2F%3E%3CmxPoint%20x%3D%22330%22%20y%3D%22-2480%22%2F%3E%3CmxPoint%20x%3D%22330%22%20y%3D%22-2464%22%2F%3E%3CmxPoint%20x%3D%22325%22%20y%3D%22-2464%22%2F%3E%3C%2FArray%3E%3C%2FmxGeometry%3E%3C%2FmxCell%3E%3CmxCell%20id%3D%229%22%20style%3D%22edgeStyle%3DorthogonalEdgeStyle%3Brounded%3D0%3BorthogonalLoop%3D1%3BjettySize%3Dauto%3Bhtml%3D1%3BstartArrow%3Dblock%3BstartFill%3D0%3BendArrow%3Dnone%3BendFill%3D0%3B%22%20edge%3D%221%22%20source%3D%2211%22%20target%3D%2212%22%20parent%3D%221%22%3E%3CmxGeometry%20relative%3D%221%22%20as%3D%22geometry%22%3E%3CArray%20as%3D%22points%22%3E%3CmxPoint%20x%3D%22380%22%20y%3D%22-2480%22%2F%3E%3CmxPoint%20x%3D%22470%22%20y%3D%22-2480%22%2F%3E%3C%2FArray%3E%3C%2FmxGeometry%3E%3C%2FmxCell%3E%3CmxCell%20id%3D%2210%22%20style%3D%22edgeStyle%3DorthogonalEdgeStyle%3Brounded%3D0%3BorthogonalLoop%3D1%3BjettySize%3Dauto%3Bhtml%3D1%3BentryX%3D0%3BentryY%3D0.5%3BentryDx%3D0%3BentryDy%3D0%3Bdashed%3D1%3BendArrow%3Dopen%3BendFill%3D0%3B%22%20edge%3D%221%22%20source%3D%2211%22%20target%3D%2214%22%20parent%3D%221%22%3E%3CmxGeometry%20relative%3D%221%22%20as%3D%22geometry%22%2F%3E%3C%2FmxCell%3E%3CmxCell%20id%3D%2211%22%20value%3D%22%26lt%3Bfont%20style%3D%26quot%3Bfont-size%3A%2014px%3B%26quot%3B%26gt%3BJoin%20Programs%26lt%3B%2Ffont%26gt%3B%22%20style%3D%22ellipse%3BwhiteSpace%3Dwrap%3Bhtml%3D1%3B%22%20vertex%3D%221%22%20parent%3D%221%22%3E%3CmxGeometry%20x%3D%22330%22%20y%3D%22-2560%22%20width%3D%22100%22%20height%3D%2260%22%20as%3D%22geometry%22%2F%3E%3C%2FmxCell%3E%3CmxCell%20id%3D%2212%22%20value%3D%22%26lt%3Bfont%20style%3D%26quot%3Bfont-size%3A%2013px%3B%26quot%3B%26gt%3BPost%20Graduate%26lt%3B%2Ffont%26gt%3B%22%20style%3D%22ellipse%3BwhiteSpace%3Dwrap%3Bhtml%3D1%3B%22%20vertex%3D%221%22%20parent%3D%221%22%3E%3CmxGeometry%20x%3D%22420%22%20y%3D%22-2470%22%20width%3D%22100%22%20height%3D%2240%22%20as%3D%22geometry%22%2F%3E%3C%2FmxCell%3E%3CmxCell%20id%3D%2213%22%20value%3D%22%26lt%3Bfont%20style%3D%26quot%3Bfont-size%3A%2013px%3B%26quot%3B%26gt%3BGraduate%26lt%3B%2Ffont%26gt%3B%22%20style%3D%22ellipse%3BwhiteSpace%3Dwrap%3Bhtml%3D1%3B%22%20vertex%3D%221%22%20parent%3D%221%22%3E%3CmxGeometry%20x%3D%22280%22%20y%3D%22-2470%22%20width%3D%2290%22%20height%3D%2240%22%20as%3D%22geometry%22%2F%3E%3C%2FmxCell%3E%3CmxCell%20id%3D%2214%22%20value%3D%22%26lt%3Bfont%20style%3D%26quot%3Bfont-size%3A%2013px%3B%26quot%3B%26gt%3BPaid%20and%20Unpaid%20Courses%26lt%3B%2Ffont%26gt%3B%22%20style%3D%22ellipse%3BwhiteSpace%3Dwrap%3Bhtml%3D1%3B%22%20vertex%3D%221%22%20parent%3D%221%22%3E%3CmxGeometry%20x%3D%22520%22%20y%3D%22-2560%22%20width%3D%22120%22%20height%3D%2260%22%20as%3D%22geometry%22%2F%3E%3C%2FmxCell%3E%3CmxCell%20id%3D%2215%22%20value%3D%22%26lt%3Bfont%20style%3D%26quot%3Bfont-size%3A%2013px%3B%26quot%3B%26gt%3B%26amp%3Blt%3B%26amp%3Blt%3Binclude%26amp%3Bgt%3B%26amp%3Bgt%3B%26lt%3B%2Ffont%26gt%3B%22%20style%3D%22text%3Bhtml%3D1%3BstrokeColor%3Dnone%3BfillColor%3Dnone%3Balign%3Dcenter%3BverticalAlign%3Dmiddle%3BwhiteSpace%3Dwrap%3Brounded%3D0%3B%22%20vertex%3D%221%22%20parent%3D%221%22%3E%3CmxGeometry%20x%3D%22440%22%20y%3D%22-2570%22%20width%3D%2260%22%20height%3D%2230%22%20as%3D%22geometry%22%2F%3E%3C%2FmxCell%3E%3CmxCell%20id%3D%2216%22%20value%3D%22%26lt%3Bfont%20style%3D%26quot%3Bfont-size%3A%2014px%3B%26quot%3B%26gt%3BStaff%26lt%3B%2Ffont%26gt%3B%22%20style%3D%22shape%3DumlActor%3BverticalLabelPosition%3Dbottom%3BverticalAlign%3Dtop%3Bhtml%3D1%3B%22%20vertex%3D%221%22%20parent%3D%221%22%3E%3CmxGeometry%20x%3D%221330%22%20y%3D%22-2500%22%20width%3D%2250%22%20height%3D%2270%22%20as%3D%22geometry%22%2F%3E%3C%2FmxCell%3E%3CmxCell%20id%3D%2217%22%20style%3D%22edgeStyle%3DorthogonalEdgeStyle%3Brounded%3D0%3BorthogonalLoop%3D1%3BjettySize%3Dauto%3Bhtml%3D1%3BfontFamily%3DHelvetica%3BfontSize%3D12%3BfontColor%3Ddefault%3Bdashed%3D1%3BendArrow%3Dopen%3BendFill%3D0%3B%22%20edge%3D%221%22%20source%3D%2218%22%20target%3D%2220%22%20parent%3D%221%22%3E%3CmxGeometry%20relative%3D%221%22%20as%3D%22geometry%22%2F%3E%3C%2FmxCell%3E%3CmxCell%20id%3D%2218%22%20value%3D%22%26lt%3Bfont%20style%3D%26quot%3Bfont-size%3A%2014px%3B%26quot%3B%26gt%3BRegister%20users%26lt%3B%2Ffont%26gt%3B%22%20style%3D%22ellipse%3BwhiteSpace%3Dwrap%3Bhtml%3D1%3B%22%20vertex%3D%221%22%20parent%3D%221%22%3E%3CmxGeometry%20x%3D%22920%22%20y%3D%22-2560%22%20width%3D%22140%22%20height%3D%2250%22%20as%3D%22geometry%22%2F%3E%3C%2FmxCell%3E%3CmxCell%20id%3D%2219%22%20value%3D%22%22%20style%3D%22endArrow%3Dnone%3Bhtml%3D1%3Brounded%3D0%3BentryX%3D0%3BentryY%3D0.857%3BentryDx%3D0%3BentryDy%3D0%3BentryPerimeter%3D0%3BexitX%3D1%3BexitY%3D0.5%3BexitDx%3D0%3BexitDy%3D0%3B%22%20edge%3D%221%22%20source%3D%2218%22%20target%3D%2216%22%20parent%3D%221%22%3E%3CmxGeometry%20width%3D%2250%22%20height%3D%2250%22%20relative%3D%221%22%20as%3D%22geometry%22%3E%3CmxPoint%20x%3D%22750%22%20y%3D%22-2310%22%20as%3D%22sourcePoint%22%2F%3E%3CmxPoint%20x%3D%22800%22%20y%3D%22-2360%22%20as%3D%22targetPoint%22%2F%3E%3C%2FmxGeometry%3E%3C%2FmxCell%3E%3CmxCell%20id%3D%2220%22%20value%3D%22%26lt%3Bspan%20style%3D%26quot%3Bfont-size%3A%2013px%3B%26quot%3B%26gt%3BPersonal%20Information%26lt%3B%2Fspan%26gt%3B%22%20style%3D%22ellipse%3BwhiteSpace%3Dwrap%3Bhtml%3D1%3B%22%20vertex%3D%221%22%20parent%3D%221%22%3E%3CmxGeometry%20x%3D%22710%22%20y%3D%22-2562.5%22%20width%3D%22120%22%20height%3D%2255%22%20as%3D%22geometry%22%2F%3E%3C%2FmxCell%3E%3CmxCell%20id%3D%2221%22%20value%3D%22%26lt%3Bfont%20style%3D%26quot%3Bfont-size%3A%2013px%3B%26quot%3B%26gt%3B%26amp%3Blt%3B%26amp%3Blt%3Binclude%26amp%3Bgt%3B%26amp%3Bgt%3B%26lt%3B%2Ffont%26gt%3B%22%20style%3D%22text%3Bhtml%3D1%3BstrokeColor%3Dnone%3BfillColor%3Dnone%3Balign%3Dcenter%3BverticalAlign%3Dmiddle%3BwhiteSpace%3Dwrap%3Brounded%3D0%3B%22%20vertex%3D%221%22%20parent%3D%221%22%3E%3CmxGeometry%20x%3D%22850%22%20y%3D%22-2570%22%20width%3D%2260%22%20height%3D%2230%22%20as%3D%22geometry%22%2F%3E%3C%2FmxCell%3E%3CmxCell%20id%3D%2222%22%20style%3D%22edgeStyle%3DorthogonalEdgeStyle%3Brounded%3D0%3BorthogonalLoop%3D1%3BjettySize%3Dauto%3Bhtml%3D1%3BfontFamily%3DHelvetica%3BfontSize%3D12%3BfontColor%3Ddefault%3Bdashed%3D1%3BendArrow%3Dopen%3BendFill%3D0%3B%22%20edge%3D%221%22%20source%3D%2223%22%20target%3D%2224%22%20parent%3D%221%22%3E%3CmxGeometry%20relative%3D%221%22%20as%3D%22geometry%22%2F%3E%3C%2FmxCell%3E%3CmxCell%20id%3D%2223%22%20value%3D%22%26lt%3Bspan%20style%3D%26quot%3Bfont-size%3A%2014px%3B%26quot%3B%26gt%3BPurchase%20Plants%26lt%3B%2Fspan%26gt%3B%22%20style%3D%22ellipse%3BwhiteSpace%3Dwrap%3Bhtml%3D1%3B%22%20vertex%3D%221%22%20parent%3D%221%22%3E%3CmxGeometry%20x%3D%22325%22%20y%3D%22-2280%22%20width%3D%22100%22%20height%3D%2260%22%20as%3D%22geometry%22%2F%3E%3C%2FmxCell%3E%3CmxCell%20id%3D%2224%22%20value%3D%22%26lt%3Bspan%20style%3D%26quot%3Bfont-size%3A%2013px%3B%26quot%3B%26gt%3BView%20Plant%26lt%3B%2Fspan%26gt%3B%22%20style%3D%22ellipse%3BwhiteSpace%3Dwrap%3Bhtml%3D1%3B%22%20vertex%3D%221%22%20parent%3D%221%22%3E%3CmxGeometry%20x%3D%22550%22%20y%3D%22-2275%22%20width%3D%22100%22%20height%3D%2250%22%20as%3D%22geometry%22%2F%3E%3C%2FmxCell%3E%3CmxCell%20id%3D%2225%22%20value%3D%22%26lt%3Bfont%20style%3D%26quot%3Bfont-size%3A%2013px%3B%26quot%3B%26gt%3B%26amp%3Blt%3B%26amp%3Blt%3Binclude%26amp%3Bgt%3B%26amp%3Bgt%3B%26lt%3B%2Ffont%26gt%3B%22%20style%3D%22text%3Bhtml%3D1%3BstrokeColor%3Dnone%3BfillColor%3Dnone%3Balign%3Dcenter%3BverticalAlign%3Dmiddle%3BwhiteSpace%3Dwrap%3Brounded%3D0%3B%22%20vertex%3D%221%22%20parent%3D%221%22%3E%3CmxGeometry%20x%3D%22460%22%20y%3D%22-2290%22%20width%3D%2260%22%20height%3D%2230%22%20as%3D%22geometry%22%2F%3E%3C%2FmxCell%3E%3CmxCell%20id%3D%2226%22%20style%3D%22edgeStyle%3DorthogonalEdgeStyle%3Brounded%3D0%3BorthogonalLoop%3D1%3BjettySize%3Dauto%3Bhtml%3D1%3BentryX%3D0.5%3BentryY%3D0%3BentryDx%3D0%3BentryDy%3D0%3BfontFamily%3DHelvetica%3BfontSize%3D12%3BfontColor%3Ddefault%3BendArrow%3Dnone%3BendFill%3D0%3BsourcePerimeterSpacing%3D9%3B%22%20edge%3D%221%22%20source%3D%2227%22%20target%3D%2229%22%20parent%3D%221%22%3E%3CmxGeometry%20relative%3D%221%22%20as%3D%22geometry%22%2F%3E%3C%2FmxCell%3E%3CmxCell%20id%3D%2227%22%20value%3D%22%26lt%3Bspan%20style%3D%26quot%3Bfont-size%3A%2014px%3B%26quot%3B%26gt%3BMake%20Payment%26lt%3B%2Fspan%26gt%3B%22%20style%3D%22ellipse%3BwhiteSpace%3Dwrap%3Bhtml%3D1%3B%22%20vertex%3D%221%22%20parent%3D%221%22%3E%3CmxGeometry%20x%3D%22335%22%20y%3D%22-2195%22%20width%3D%22110%22%20height%3D%2260%22%20as%3D%22geometry%22%2F%3E%3C%2FmxCell%3E%3CmxCell%20id%3D%2228%22%20value%3D%22%26lt%3Bspan%20style%3D%26quot%3Bfont-size%3A%2013px%3B%26quot%3B%26gt%3BPlant%20Purchased%26lt%3B%2Fspan%26gt%3B%22%20style%3D%22ellipse%3BwhiteSpace%3Dwrap%3Bhtml%3D1%3B%22%20vertex%3D%221%22%20parent%3D%221%22%3E%3CmxGeometry%20x%3D%22280%22%20y%3D%22-2085%22%20width%3D%2290%22%20height%3D%2250%22%20as%3D%22geometry%22%2F%3E%3C%2FmxCell%3E%3CmxCell%20id%3D%2229%22%20value%3D%22%26lt%3Bspan%20style%3D%26quot%3Bfont-size%3A%2013px%3B%26quot%3B%26gt%3BEnrolled%20Courses%26lt%3B%2Fspan%26gt%3B%22%20style%3D%22ellipse%3BwhiteSpace%3Dwrap%3Bhtml%3D1%3B%22%20vertex%3D%221%22%20parent%3D%221%22%3E%3CmxGeometry%20x%3D%22425%22%20y%3D%22-2085%22%20width%3D%22100%22%20height%3D%2250%22%20as%3D%22geometry%22%2F%3E%3C%2FmxCell%3E%3CmxCell%20id%3D%2230%22%20value%3D%22%26lt%3Bspan%20style%3D%26quot%3Bfont-size%3A%2014px%3B%26quot%3B%26gt%3BExpert%26lt%3B%2Fspan%26gt%3B%22%20style%3D%22shape%3DumlActor%3BverticalLabelPosition%3Dbottom%3BverticalAlign%3Dtop%3Bhtml%3D1%3B%22%20vertex%3D%221%22%20parent%3D%221%22%3E%3CmxGeometry%20x%3D%221300%22%20y%3D%22-2350%22%20width%3D%2230%22%20height%3D%2260%22%20as%3D%22geometry%22%2F%3E%3C%2FmxCell%3E%3CmxCell%20id%3D%2231%22%20value%3D%22%26lt%3Bspan%20style%3D%26quot%3Bfont-size%3A%2014px%3B%26quot%3B%26gt%3BAdmin%26lt%3B%2Fspan%26gt%3B%22%20style%3D%22shape%3DumlActor%3BverticalLabelPosition%3Dbottom%3BverticalAlign%3Dtop%3Bhtml%3D1%3B%22%20vertex%3D%221%22%20parent%3D%221%22%3E%3CmxGeometry%20x%3D%221410%22%20y%3D%22-2355%22%20width%3D%2230%22%20height%3D%2260%22%20as%3D%22geometry%22%2F%3E%3C%2FmxCell%3E%3CmxCell%20id%3D%2232%22%20style%3D%22edgeStyle%3DorthogonalEdgeStyle%3Brounded%3D0%3BorthogonalLoop%3D1%3BjettySize%3Dauto%3Bhtml%3D1%3BentryX%3D0.5%3BentryY%3D0%3BentryDx%3D0%3BentryDy%3D0%3BendArrow%3Dnone%3BendFill%3D0%3BstartSize%3D7%3BsourcePerimeterSpacing%3D11%3B%22%20edge%3D%221%22%20source%3D%2233%22%20target%3D%2234%22%20parent%3D%221%22%3E%3CmxGeometry%20relative%3D%221%22%20as%3D%22geometry%22%3E%3CArray%20as%3D%22points%22%3E%3CmxPoint%20x%3D%22995%22%20y%3D%22-2140%22%2F%3E%3CmxPoint%20x%3D%22833%22%20y%3D%22-2140%22%2F%3E%3C%2FArray%3E%3C%2FmxGeometry%3E%3C%2FmxCell%3E%3CmxCell%20id%3D%2233%22%20value%3D%22%26lt%3Bspan%20style%3D%26quot%3Bfont-size%3A%2014px%3B%26quot%3B%26gt%3BGenerate%20Report%26lt%3B%2Fspan%26gt%3B%22%20style%3D%22ellipse%3BwhiteSpace%3Dwrap%3Bhtml%3D1%3B%22%20vertex%3D%221%22%20parent%3D%221%22%3E%3CmxGeometry%20x%3D%22925%22%20y%3D%22-2207.5%22%20width%3D%22140%22%20height%3D%2255%22%20as%3D%22geometry%22%2F%3E%3C%2FmxCell%3E%3CmxCell%20id%3D%2234%22%20value%3D%22%26lt%3Bspan%20style%3D%26quot%3Bfont-size%3A%2013px%3B%26quot%3B%26gt%3BFinancial%20Report%26lt%3B%2Fspan%26gt%3B%22%20style%3D%22ellipse%3BwhiteSpace%3Dwrap%3Bhtml%3D1%3B%22%20vertex%3D%221%22%20parent%3D%221%22%3E%3CmxGeometry%20x%3D%22777.5%22%20y%3D%22-2123.37%22%20width%3D%22110%22%20height%3D%2250%22%20as%3D%22geometry%22%2F%3E%3C%2FmxCell%3E%3CmxCell%20id%3D%2235%22%20value%3D%22%26lt%3Bspan%20style%3D%26quot%3Bfont-size%3A%2013px%3B%26quot%3B%26gt%3BEmployee%20Report%26lt%3B%2Fspan%26gt%3B%22%20style%3D%22ellipse%3BwhiteSpace%3Dwrap%3Bhtml%3D1%3B%22%20vertex%3D%221%22%20parent%3D%221%22%3E%3CmxGeometry%20x%3D%22931%22%20y%3D%22-2115%22%20width%3D%22110%22%20height%3D%2250%22%20as%3D%22geometry%22%2F%3E%3C%2FmxCell%3E%3CmxCell%20id%3D%2236%22%20value%3D%22%26lt%3Bspan%20style%3D%26quot%3Bfont-size%3A%2013px%3B%26quot%3B%26gt%3BUsers%20Report%26lt%3B%2Fspan%26gt%3B%22%20style%3D%22ellipse%3BwhiteSpace%3Dwrap%3Bhtml%3D1%3B%22%20vertex%3D%221%22%20parent%3D%221%22%3E%3CmxGeometry%20x%3D%221090%22%20y%3D%22-2120%22%20width%3D%22100%22%20height%3D%2250%22%20as%3D%22geometry%22%2F%3E%3C%2FmxCell%3E%3CmxCell%20id%3D%2237%22%20style%3D%22edgeStyle%3DorthogonalEdgeStyle%3Brounded%3D0%3BorthogonalLoop%3D1%3BjettySize%3Dauto%3Bhtml%3D1%3BentryX%3D0.406%3BentryY%3D-0.002%3BentryDx%3D0%3BentryDy%3D0%3BentryPerimeter%3D0%3BfontFamily%3DHelvetica%3BfontSize%3D12%3BfontColor%3Ddefault%3BstartArrow%3Dblock%3BstartFill%3D0%3BendArrow%3Dnone%3BendFill%3D0%3B%22%20edge%3D%221%22%20source%3D%2227%22%20target%3D%2228%22%20parent%3D%221%22%3E%3CmxGeometry%20relative%3D%221%22%20as%3D%22geometry%22%2F%3E%3C%2FmxCell%3E%3CmxCell%20id%3D%2238%22%20value%3D%22%26lt%3Bspan%20style%3D%26quot%3Bfont-size%3A%2013px%3B%26quot%3B%26gt%3BProvide%20site%20location%20and%20images%26lt%3B%2Fspan%26gt%3B%22%20style%3D%22ellipse%3BwhiteSpace%3Dwrap%3Bhtml%3D1%3B%22%20vertex%3D%221%22%20parent%3D%221%22%3E%3CmxGeometry%20x%3D%22470%22%20y%3D%22-2410%22%20width%3D%22140%22%20height%3D%2255%22%20as%3D%22geometry%22%2F%3E%3C%2FmxCell%3E%3CmxCell%20id%3D%2239%22%20value%3D%22%26lt%3Bfont%20style%3D%26quot%3Bfont-size%3A%2013px%3B%26quot%3B%26gt%3B%26amp%3Blt%3B%26amp%3Blt%3Binclude%26amp%3Bgt%3B%26amp%3Bgt%3B%26lt%3B%2Ffont%26gt%3B%22%20style%3D%22text%3Bhtml%3D1%3BstrokeColor%3Dnone%3BfillColor%3Dnone%3Balign%3Dcenter%3BverticalAlign%3Dmiddle%3BwhiteSpace%3Dwrap%3Brounded%3D0%3B%22%20vertex%3D%221%22%20parent%3D%221%22%3E%3CmxGeometry%20x%3D%22640%22%20y%3D%22-2420%22%20width%3D%2260%22%20height%3D%2230%22%20as%3D%22geometry%22%2F%3E%3C%2FmxCell%3E%3CmxCell%20id%3D%2240%22%20style%3D%22edgeStyle%3DorthogonalEdgeStyle%3Brounded%3D0%3BorthogonalLoop%3D1%3BjettySize%3Dauto%3Bhtml%3D1%3BentryX%3D0.5%3BentryY%3D0%3BentryDx%3D0%3BentryDy%3D0%3BfontFamily%3DHelvetica%3BfontSize%3D12%3BfontColor%3Ddefault%3BendArrow%3Dnone%3BendFill%3D0%3BstartSize%3D8%3BsourcePerimeterSpacing%3D9%3B%22%20edge%3D%221%22%20source%3D%2242%22%20target%3D%2244%22%20parent%3D%221%22%3E%3CmxGeometry%20relative%3D%221%22%20as%3D%22geometry%22%2F%3E%3C%2FmxCell%3E%3CmxCell%20id%3D%2241%22%20style%3D%22edgeStyle%3DorthogonalEdgeStyle%3Brounded%3D0%3BorthogonalLoop%3D1%3BjettySize%3Dauto%3Bhtml%3D1%3BentryX%3D0%3BentryY%3D0.5%3BentryDx%3D0%3BentryDy%3D0%3BfontFamily%3DHelvetica%3BfontSize%3D12%3BfontColor%3Ddefault%3Bdashed%3D1%3BstartArrow%3Dopen%3BstartFill%3D0%3BendArrow%3Dnone%3BendFill%3D0%3B%22%20edge%3D%221%22%20source%3D%2242%22%20target%3D%2246%22%20parent%3D%221%22%3E%3CmxGeometry%20relative%3D%221%22%20as%3D%22geometry%22%2F%3E%3C%2FmxCell%3E%3CmxCell%20id%3D%2242%22%20value%3D%22%26lt%3Bspan%20style%3D%26quot%3Bfont-size%3A%2014px%3B%26quot%3B%26gt%3B%26amp%3Bnbsp%3BTake%20Exam%26lt%3B%2Fspan%26gt%3B%22%20style%3D%22ellipse%3BwhiteSpace%3Dwrap%3Bhtml%3D1%3B%22%20vertex%3D%221%22%20parent%3D%221%22%3E%3CmxGeometry%20x%3D%22320%22%20y%3D%22-1980%22%20width%3D%22140%22%20height%3D%2260%22%20as%3D%22geometry%22%2F%3E%3C%2FmxCell%3E%3CmxCell%20id%3D%2243%22%20value%3D%22%26lt%3Bspan%20style%3D%26quot%3Bfont-size%3A%2013px%3B%26quot%3B%26gt%3BMock%20Test%26lt%3B%2Fspan%26gt%3B%22%20style%3D%22ellipse%3BwhiteSpace%3Dwrap%3Bhtml%3D1%3B%22%20vertex%3D%221%22%20parent%3D%221%22%3E%3CmxGeometry%20x%3D%22300%22%20y%3D%22-1880%22%20width%3D%2290%22%20height%3D%2250%22%20as%3D%22geometry%22%2F%3E%3C%2FmxCell%3E%3CmxCell%20id%3D%2244%22%20value%3D%22%26lt%3Bspan%20style%3D%26quot%3Bfont-size%3A%2013px%3B%26quot%3B%26gt%3BCertification%20Exams%26lt%3B%2Fspan%26gt%3B%22%20style%3D%22ellipse%3BwhiteSpace%3Dwrap%3Bhtml%3D1%3B%22%20vertex%3D%221%22%20parent%3D%221%22%3E%3CmxGeometry%20x%3D%22420%22%20y%3D%22-1880%22%20width%3D%22110%22%20height%3D%2250%22%20as%3D%22geometry%22%2F%3E%3C%2FmxCell%3E%3CmxCell%20id%3D%2245%22%20style%3D%22edgeStyle%3DorthogonalEdgeStyle%3Brounded%3D0%3BorthogonalLoop%3D1%3BjettySize%3Dauto%3Bhtml%3D1%3BfontFamily%3DHelvetica%3BfontSize%3D12%3BfontColor%3Ddefault%3BstartArrow%3Dblock%3BstartFill%3D0%3BentryX%3D0.272%3BentryY%3D0.071%3BentryDx%3D0%3BentryDy%3D0%3BentryPerimeter%3D0%3BendArrow%3Dnone%3BendFill%3D0%3B%22%20edge%3D%221%22%20source%3D%2242%22%20target%3D%2243%22%20parent%3D%221%22%3E%3CmxGeometry%20relative%3D%221%22%20as%3D%22geometry%22%3E%3CmxPoint%20x%3D%22325%22%20y%3D%22-1880%22%20as%3D%22targetPoint%22%2F%3E%3C%2FmxGeometry%3E%3C%2FmxCell%3E%3CmxCell%20id%3D%2246%22%20value%3D%22%26lt%3Bspan%20style%3D%26quot%3Bfont-size%3A%2013px%3B%26quot%3B%26gt%3BCheck%20Results%26lt%3B%2Fspan%26gt%3B%22%20style%3D%22ellipse%3BwhiteSpace%3Dwrap%3Bhtml%3D1%3B%22%20vertex%3D%221%22%20parent%3D%221%22%3E%3CmxGeometry%20x%3D%22565%22%20y%3D%22-1977.5%22%20width%3D%22110%22%20height%3D%2255%22%20as%3D%22geometry%22%2F%3E%3C%2FmxCell%3E%3CmxCell%20id%3D%2247%22%20value%3D%22%26lt%3Bspan%20style%3D%26quot%3Bfont-size%3A%2013px%3B%26quot%3B%26gt%3B%26amp%3Blt%3B%26amp%3Blt%3Bextends%26amp%3Bgt%3B%26amp%3Bgt%3B%26lt%3B%2Fspan%26gt%3B%22%20style%3D%22text%3Bhtml%3D1%3BstrokeColor%3Dnone%3BfillColor%3Dnone%3Balign%3Dcenter%3BverticalAlign%3Dmiddle%3BwhiteSpace%3Dwrap%3Brounded%3D0%3B%22%20vertex%3D%221%22%20parent%3D%221%22%3E%3CmxGeometry%20x%3D%22480%22%20y%3D%22-1980%22%20width%3D%2260%22%20height%3D%2230%22%20as%3D%22geometry%22%2F%3E%3C%2FmxCell%3E%3CmxCell%20id%3D%2248%22%20value%3D%22%26lt%3Bspan%20style%3D%26quot%3Bfont-size%3A%2013px%3B%26quot%3B%26gt%3BProvides%20Reply%26lt%3B%2Fspan%26gt%3B%22%20style%3D%22ellipse%3BwhiteSpace%3Dwrap%3Bhtml%3D1%3B%22%20vertex%3D%221%22%20parent%3D%221%22%3E%3CmxGeometry%20x%3D%22858%22%20y%3D%22-2405%22%20width%3D%22120%22%20height%3D%2255%22%20as%3D%22geometry%22%2F%3E%3C%2FmxCell%3E%3CmxCell%20id%3D%2249%22%20style%3D%22edgeStyle%3DorthogonalEdgeStyle%3Brounded%3D0%3BorthogonalLoop%3D1%3BjettySize%3Dauto%3Bhtml%3D1%3BentryX%3D0.5%3BentryY%3D0%3BentryDx%3D0%3BentryDy%3D0%3BfontFamily%3DHelvetica%3BfontSize%3D12%3BfontColor%3Ddefault%3BendArrow%3Dnone%3BendFill%3D0%3BsourcePerimeterSpacing%3D13%3B%22%20edge%3D%221%22%20source%3D%2252%22%20target%3D%2256%22%20parent%3D%221%22%3E%3CmxGeometry%20relative%3D%221%22%20as%3D%22geometry%22%2F%3E%3C%2FmxCell%3E%3CmxCell%20id%3D%2250%22%20style%3D%22edgeStyle%3DorthogonalEdgeStyle%3Brounded%3D0%3BorthogonalLoop%3D1%3BjettySize%3Dauto%3Bhtml%3D1%3BentryX%3D0.5%3BentryY%3D0%3BentryDx%3D0%3BentryDy%3D0%3BfontFamily%3DHelvetica%3BfontSize%3D12%3BfontColor%3Ddefault%3BendArrow%3Dnone%3BendFill%3D0%3BsourcePerimeterSpacing%3D10%3B%22%20edge%3D%221%22%20source%3D%2252%22%20target%3D%2258%22%20parent%3D%221%22%3E%3CmxGeometry%20relative%3D%221%22%20as%3D%22geometry%22%3E%3CArray%20as%3D%22points%22%3E%3CmxPoint%20x%3D%22370%22%20y%3D%22-1720%22%2F%3E%3CmxPoint%20x%3D%22535%22%20y%3D%22-1720%22%2F%3E%3C%2FArray%3E%3C%2FmxGeometry%3E%3C%2FmxCell%3E%3CmxCell%20id%3D%2251%22%20style%3D%22edgeStyle%3DorthogonalEdgeStyle%3Brounded%3D0%3BorthogonalLoop%3D1%3BjettySize%3Dauto%3Bhtml%3D1%3BentryX%3D0.5%3BentryY%3D0%3BentryDx%3D0%3BentryDy%3D0%3BfontFamily%3DHelvetica%3BfontSize%3D12%3BfontColor%3Ddefault%3BendArrow%3Dnone%3BendFill%3D0%3BsourcePerimeterSpacing%3D10%3B%22%20edge%3D%221%22%20source%3D%2252%22%20target%3D%2259%22%20parent%3D%221%22%3E%3CmxGeometry%20relative%3D%221%22%20as%3D%22geometry%22%3E%3CArray%20as%3D%22points%22%3E%3CmxPoint%20x%3D%22370%22%20y%3D%22-1720%22%2F%3E%3CmxPoint%20x%3D%22645%22%20y%3D%22-1720%22%2F%3E%3C%2FArray%3E%3C%2FmxGeometry%3E%3C%2FmxCell%3E%3CmxCell%20id%3D%2252%22%20value%3D%22%26lt%3Bspan%20style%3D%26quot%3Bfont-size%3A%2014px%3B%26quot%3B%26gt%3BParticipate%20in%20Forum%26lt%3B%2Fspan%26gt%3B%22%20style%3D%22ellipse%3BwhiteSpace%3Dwrap%3Bhtml%3D1%3B%22%20vertex%3D%221%22%20parent%3D%221%22%3E%3CmxGeometry%20x%3D%22300%22%20y%3D%22-1800%22%20width%3D%22140%22%20height%3D%2260%22%20as%3D%22geometry%22%2F%3E%3C%2FmxCell%3E%3CmxCell%20id%3D%2253%22%20style%3D%22edgeStyle%3DorthogonalEdgeStyle%3Brounded%3D0%3BorthogonalLoop%3D1%3BjettySize%3Dauto%3Bhtml%3D1%3BentryX%3D0.5%3BentryY%3D0%3BentryDx%3D0%3BentryDy%3D0%3BentryPerimeter%3D0%3BfontFamily%3DHelvetica%3BfontSize%3D12%3BfontColor%3Ddefault%3BendArrow%3Dnone%3BendFill%3D0%3B%22%20edge%3D%221%22%20target%3D%2231%22%20parent%3D%221%22%3E%3CmxGeometry%20relative%3D%221%22%20as%3D%22geometry%22%3E%3CmxPoint%20x%3D%221355%22%20y%3D%22-2390%22%20as%3D%22sourcePoint%22%2F%3E%3CArray%20as%3D%22points%22%3E%3CmxPoint%20x%3D%221355%22%20y%3D%22-2370%22%2F%3E%3CmxPoint%20x%3D%221425%22%20y%3D%22-2370%22%2F%3E%3C%2FArray%3E%3C%2FmxGeometry%3E%3C%2FmxCell%3E%3CmxCell%20id%3D%2254%22%20style%3D%22edgeStyle%3DorthogonalEdgeStyle%3Brounded%3D0%3BorthogonalLoop%3D1%3BjettySize%3Dauto%3Bhtml%3D1%3BentryX%3D0.5%3BentryY%3D0%3BentryDx%3D0%3BentryDy%3D0%3BentryPerimeter%3D0%3BfontFamily%3DHelvetica%3BfontSize%3D12%3BfontColor%3Ddefault%3BstartArrow%3Dblock%3BstartFill%3D0%3BendArrow%3Dnone%3BendFill%3D0%3B%22%20edge%3D%221%22%20target%3D%2230%22%20parent%3D%221%22%3E%3CmxGeometry%20relative%3D%221%22%20as%3D%22geometry%22%3E%3CmxPoint%20x%3D%221355%22%20y%3D%22-2400%22%20as%3D%22sourcePoint%22%2F%3E%3CArray%20as%3D%22points%22%3E%3CmxPoint%20x%3D%221355%22%20y%3D%22-2370%22%2F%3E%3CmxPoint%20x%3D%221315%22%20y%3D%22-2370%22%2F%3E%3C%2FArray%3E%3C%2FmxGeometry%3E%3C%2FmxCell%3E%3CmxCell%20id%3D%2255%22%20value%3D%22%26lt%3Bspan%20style%3D%26quot%3Bfont-size%3A%2013px%3B%26quot%3B%26gt%3B%26amp%3Blt%3B%26amp%3Blt%3Bextends%26amp%3Bgt%3B%26amp%3Bgt%3B%26lt%3B%2Fspan%26gt%3B%22%20style%3D%22text%3Bhtml%3D1%3BstrokeColor%3Dnone%3BfillColor%3Dnone%3Balign%3Dcenter%3BverticalAlign%3Dmiddle%3BwhiteSpace%3Dwrap%3Brounded%3D0%3B%22%20vertex%3D%221%22%20parent%3D%221%22%3E%3CmxGeometry%20x%3D%22770%22%20y%3D%22-2420%22%20width%3D%2260%22%20height%3D%2230%22%20as%3D%22geometry%22%2F%3E%3C%2FmxCell%3E%3CmxCell%20id%3D%2256%22%20value%3D%22%26lt%3Bspan%20style%3D%26quot%3Bfont-size%3A%2013px%3B%26quot%3B%26gt%3BCreate%20Post%26lt%3B%2Fspan%26gt%3B%22%20style%3D%22ellipse%3BwhiteSpace%3Dwrap%3Bhtml%3D1%3B%22%20vertex%3D%221%22%20parent%3D%221%22%3E%3CmxGeometry%20x%3D%22260%22%20y%3D%22-1700%22%20width%3D%2290%22%20height%3D%2250%22%20as%3D%22geometry%22%2F%3E%3C%2FmxCell%3E%3CmxCell%20id%3D%2257%22%20value%3D%22%26lt%3Bspan%20style%3D%26quot%3Bfont-size%3A%2013px%3B%26quot%3B%26gt%3BComment%26lt%3B%2Fspan%26gt%3B%22%20style%3D%22ellipse%3BwhiteSpace%3Dwrap%3Bhtml%3D1%3B%22%20vertex%3D%221%22%20parent%3D%221%22%3E%3CmxGeometry%20x%3D%22370%22%20y%3D%22-1700%22%20width%3D%2290%22%20height%3D%2250%22%20as%3D%22geometry%22%2F%3E%3C%2FmxCell%3E%3CmxCell%20id%3D%2258%22%20value%3D%22%26lt%3Bspan%20style%3D%26quot%3Bfont-size%3A%2013px%3B%26quot%3B%26gt%3BEngage%20on%20Post%26lt%3B%2Fspan%26gt%3B%22%20style%3D%22ellipse%3BwhiteSpace%3Dwrap%3Bhtml%3D1%3B%22%20vertex%3D%221%22%20parent%3D%221%22%3E%3CmxGeometry%20x%3D%22490%22%20y%3D%22-1700%22%20width%3D%2290%22%20height%3D%2250%22%20as%3D%22geometry%22%2F%3E%3C%2FmxCell%3E%3CmxCell%20id%3D%2259%22%20value%3D%22%26lt%3Bspan%20style%3D%26quot%3Bfont-size%3A%2013px%3B%26quot%3B%26gt%3BUpvote%26lt%3B%2Fspan%26gt%3B%22%20style%3D%22ellipse%3BwhiteSpace%3Dwrap%3Bhtml%3D1%3B%22%20vertex%3D%221%22%20parent%3D%221%22%3E%3CmxGeometry%20x%3D%22600%22%20y%3D%22-1700%22%20width%3D%2290%22%20height%3D%2250%22%20as%3D%22geometry%22%2F%3E%3C%2FmxCell%3E%3CmxCell%20id%3D%2260%22%20value%3D%22%26lt%3Bspan%20style%3D%26quot%3Bfont-size%3A%2013px%3B%26quot%3B%26gt%3BPayment%26amp%3Bnbsp%3B%20Methods%26lt%3B%2Fspan%26gt%3B%22%20style%3D%22ellipse%3BwhiteSpace%3Dwrap%3Bhtml%3D1%3B%22%20vertex%3D%221%22%20parent%3D%221%22%3E%3CmxGeometry%20x%3D%22550%22%20y%3D%22-2190%22%20width%3D%22100%22%20height%3D%2250%22%20as%3D%22geometry%22%2F%3E%3C%2FmxCell%3E%3CmxCell%20id%3D%2261%22%20value%3D%22%26lt%3Bfont%20style%3D%26quot%3Bfont-size%3A%2013px%3B%26quot%3B%26gt%3B%26amp%3Blt%3B%26amp%3Blt%3Binclude%26amp%3Bgt%3B%26amp%3Bgt%3B%26lt%3B%2Ffont%26gt%3B%22%20style%3D%22text%3Bhtml%3D1%3BstrokeColor%3Dnone%3BfillColor%3Dnone%3Balign%3Dcenter%3BverticalAlign%3Dmiddle%3BwhiteSpace%3Dwrap%3Brounded%3D0%3Brotation%3D288%3Bopacity%3D70%3B%22%20vertex%3D%221%22%20parent%3D%221%22%3E%3CmxGeometry%20x%3D%22743%22%20y%3D%22-2050%22%20width%3D%2268%22%20height%3D%2218%22%20as%3D%22geometry%22%2F%3E%3C%2FmxCell%3E%3CmxCell%20id%3D%2262%22%20value%3D%22%26lt%3Bspan%20style%3D%26quot%3Bfont-size%3A%2013px%3B%26quot%3B%26gt%3BFinance%20data%26lt%3B%2Fspan%26gt%3B%22%20style%3D%22ellipse%3BwhiteSpace%3Dwrap%3Bhtml%3D1%3B%22%20vertex%3D%221%22%20parent%3D%221%22%3E%3CmxGeometry%20x%3D%22730%22%20y%3D%22-1990%22%20width%3D%22100%22%20height%3D%2255%22%20as%3D%22geometry%22%2F%3E%3C%2FmxCell%3E%3CmxCell%20id%3D%2263%22%20value%3D%22%26lt%3Bspan%20style%3D%26quot%3Bfont-size%3A%2013px%3B%26quot%3B%26gt%3BEmployee%20Data%26lt%3B%2Fspan%26gt%3B%22%20style%3D%22ellipse%3BwhiteSpace%3Dwrap%3Bhtml%3D1%3B%22%20vertex%3D%221%22%20parent%3D%221%22%3E%3CmxGeometry%20x%3D%22900%22%20y%3D%22-1980%22%20width%3D%22115%22%20height%3D%2250%22%20as%3D%22geometry%22%2F%3E%3C%2FmxCell%3E%3CmxCell%20id%3D%2264%22%20value%3D%22%26lt%3Bspan%20style%3D%26quot%3Bfont-size%3A%2013px%3B%26quot%3B%26gt%3BUser%20Data%26lt%3B%2Fspan%26gt%3B%22%20style%3D%22ellipse%3BwhiteSpace%3Dwrap%3Bhtml%3D1%3B%22%20vertex%3D%221%22%20parent%3D%221%22%3E%3CmxGeometry%20x%3D%221060%22%20y%3D%22-1982.5%22%20width%3D%2290%22%20height%3D%2255%22%20as%3D%22geometry%22%2F%3E%3C%2FmxCell%3E%3CmxCell%20id%3D%2265%22%20value%3D%22%22%20style%3D%22endArrow%3Dopen%3Bhtml%3D1%3Brounded%3D0%3BfontFamily%3DHelvetica%3BfontSize%3D12%3BfontColor%3Ddefault%3BexitX%3D0.256%3BexitY%3D1.015%3BexitDx%3D0%3BexitDy%3D0%3BexitPerimeter%3D0%3Bdashed%3D1%3BstartArrow%3Dnone%3BstartFill%3D0%3BendFill%3D0%3BentryX%3D0.5%3BentryY%3D0%3BentryDx%3D0%3BentryDy%3D0%3B%22%20edge%3D%221%22%20source%3D%2234%22%20target%3D%2262%22%20parent%3D%221%22%3E%3CmxGeometry%20width%3D%2250%22%20height%3D%2250%22%20relative%3D%221%22%20as%3D%22geometry%22%3E%3CmxPoint%20x%3D%22830%22%20y%3D%22-2020%22%20as%3D%22sourcePoint%22%2F%3E%3CmxPoint%20x%3D%22730%22%20y%3D%22-2160%22%20as%3D%22targetPoint%22%2F%3E%3C%2FmxGeometry%3E%3C%2FmxCell%3E%3CmxCell%20id%3D%2266%22%20value%3D%22%22%20style%3D%22endArrow%3Dopen%3Bhtml%3D1%3Brounded%3D0%3BfontFamily%3DHelvetica%3BfontSize%3D12%3BfontColor%3Ddefault%3BexitX%3D0.283%3BexitY%3D0.982%3BexitDx%3D0%3BexitDy%3D0%3BexitPerimeter%3D0%3Bdashed%3D1%3BstartArrow%3Dnone%3BstartFill%3D0%3BendFill%3D0%3BentryX%3D0.472%3BentryY%3D-0.045%3BentryDx%3D0%3BentryDy%3D0%3BentryPerimeter%3D0%3B%22%20edge%3D%221%22%20source%3D%2236%22%20target%3D%2264%22%20parent%3D%221%22%3E%3CmxGeometry%20width%3D%2250%22%20height%3D%2250%22%20relative%3D%221%22%20as%3D%22geometry%22%3E%3CmxPoint%20x%3D%22960%22%20y%3D%22-2190%22%20as%3D%22sourcePoint%22%2F%3E%3CmxPoint%20x%3D%22871%22%20y%3D%22-2142%22%20as%3D%22targetPoint%22%2F%3E%3C%2FmxGeometry%3E%3C%2FmxCell%3E%3CmxCell%20id%3D%2267%22%20value%3D%22%26lt%3Bfont%20style%3D%26quot%3Bfont-size%3A%2013px%3B%26quot%3B%26gt%3B%26amp%3Blt%3B%26amp%3Blt%3Binclude%26amp%3Bgt%3B%26amp%3Bgt%3B%26lt%3B%2Ffont%26gt%3B%22%20style%3D%22text%3Bhtml%3D1%3BstrokeColor%3Dnone%3BfillColor%3Dnone%3Balign%3Dcenter%3BverticalAlign%3Dmiddle%3BwhiteSpace%3Dwrap%3Brounded%3D0%3Brotation%3D280%3B%22%20vertex%3D%221%22%20parent%3D%221%22%3E%3CmxGeometry%20x%3D%221065%22%20y%3D%22-2050%22%20width%3D%2250%22%20height%3D%2230%22%20as%3D%22geometry%22%2F%3E%3C%2FmxCell%3E%3CmxCell%20id%3D%2268%22%20value%3D%22%22%20style%3D%22endArrow%3Dnone%3Bhtml%3D1%3Brounded%3D0%3BfontFamily%3DHelvetica%3BfontSize%3D12%3BfontColor%3Ddefault%3BentryX%3D0%3BentryY%3D0.5%3BentryDx%3D0%3BentryDy%3D0%3B%22%20edge%3D%221%22%20target%3D%2211%22%20parent%3D%221%22%3E%3CmxGeometry%20width%3D%2250%22%20height%3D%2250%22%20relative%3D%221%22%20as%3D%22geometry%22%3E%3CmxPoint%20x%3D%2290%22%20y%3D%22-2280%22%20as%3D%22sourcePoint%22%2F%3E%3CmxPoint%20x%3D%22830%22%20y%3D%22-2240%22%20as%3D%22targetPoint%22%2F%3E%3C%2FmxGeometry%3E%3C%2FmxCell%3E%3CmxCell%20id%3D%2269%22%20value%3D%22%22%20style%3D%22endArrow%3Dnone%3Bhtml%3D1%3Brounded%3D0%3BfontFamily%3DHelvetica%3BfontSize%3D12%3BfontColor%3Ddefault%3BentryX%3D0%3BentryY%3D0.5%3BentryDx%3D0%3BentryDy%3D0%3B%22%20edge%3D%221%22%20target%3D%2223%22%20parent%3D%221%22%3E%3CmxGeometry%20width%3D%2250%22%20height%3D%2250%22%20relative%3D%221%22%20as%3D%22geometry%22%3E%3CmxPoint%20x%3D%22100%22%20y%3D%22-2270%22%20as%3D%22sourcePoint%22%2F%3E%3CmxPoint%20x%3D%22340%22%20y%3D%22-2520%22%20as%3D%22targetPoint%22%2F%3E%3C%2FmxGeometry%3E%3C%2FmxCell%3E%3CmxCell%20id%3D%2270%22%20value%3D%22%22%20style%3D%22endArrow%3Dnone%3Bhtml%3D1%3Brounded%3D0%3BfontFamily%3DHelvetica%3BfontSize%3D12%3BfontColor%3Ddefault%3BentryX%3D0%3BentryY%3D0.5%3BentryDx%3D0%3BentryDy%3D0%3B%22%20edge%3D%221%22%20target%3D%2227%22%20parent%3D%221%22%3E%3CmxGeometry%20width%3D%2250%22%20height%3D%2250%22%20relative%3D%221%22%20as%3D%22geometry%22%3E%3CmxPoint%20x%3D%22100%22%20y%3D%22-2260%22%20as%3D%22sourcePoint%22%2F%3E%3CmxPoint%20x%3D%22350%22%20y%3D%22-2510%22%20as%3D%22targetPoint%22%2F%3E%3C%2FmxGeometry%3E%3C%2FmxCell%3E%3CmxCell%20id%3D%2271%22%20style%3D%22edgeStyle%3DorthogonalEdgeStyle%3Brounded%3D0%3BorthogonalLoop%3D1%3BjettySize%3Dauto%3Bhtml%3D1%3BentryX%3D0.67%3BentryY%3D0.04%3BentryDx%3D0%3BentryDy%3D0%3BentryPerimeter%3D0%3BfontFamily%3DHelvetica%3BfontSize%3D12%3BfontColor%3Ddefault%3BstartArrow%3Dblock%3BstartFill%3D0%3BendArrow%3Dnone%3BendFill%3D0%3B%22%20edge%3D%221%22%20source%3D%2252%22%20target%3D%2257%22%20parent%3D%221%22%3E%3CmxGeometry%20relative%3D%221%22%20as%3D%22geometry%22%2F%3E%3C%2FmxCell%3E%3CmxCell%20id%3D%2272%22%20style%3D%22edgeStyle%3DorthogonalEdgeStyle%3Brounded%3D0%3BorthogonalLoop%3D1%3BjettySize%3Dauto%3Bhtml%3D1%3BentryX%3D0.5%3BentryY%3D0%3BentryDx%3D0%3BentryDy%3D0%3BentryPerimeter%3D0%3BendArrow%3Dnone%3BendFill%3D0%3BstartArrow%3Dblock%3BstartFill%3D0%3BsourcePerimeterSpacing%3D23%3B%22%20edge%3D%221%22%20source%3D%225%22%20target%3D%223%22%20parent%3D%221%22%3E%3CmxGeometry%20relative%3D%221%22%20as%3D%22geometry%22%3E%3CArray%20as%3D%22points%22%3E%3CmxPoint%20x%3D%2248%22%20y%3D%22-2160%22%2F%3E%3CmxPoint%20x%3D%22105%22%20y%3D%22-2160%22%2F%3E%3C%2FArray%3E%3C%2FmxGeometry%3E%3C%2FmxCell%3E%3CmxCell%20id%3D%2273%22%20value%3D%22%26lt%3Bspan%20style%3D%26quot%3Bfont-size%3A%2014px%3B%26quot%3B%26gt%3BAsk%20Recommensations%26lt%3B%2Fspan%26gt%3B%22%20style%3D%22ellipse%3BwhiteSpace%3Dwrap%3Bhtml%3D1%3B%22%20vertex%3D%221%22%20parent%3D%221%22%3E%3CmxGeometry%20x%3D%22665%22%20y%3D%22-2360%22%20width%3D%22155%22%20height%3D%2260%22%20as%3D%22geometry%22%2F%3E%3C%2FmxCell%3E%3CmxCell%20id%3D%2274%22%20style%3D%22edgeStyle%3DorthogonalEdgeStyle%3Brounded%3D0%3BorthogonalLoop%3D1%3BjettySize%3Dauto%3Bhtml%3D1%3BfontFamily%3DHelvetica%3BfontSize%3D12%3BfontColor%3Ddefault%3Bdashed%3D1%3BendArrow%3Dopen%3BendFill%3D0%3BexitX%3D0.968%3BexitY%3D0.583%3BexitDx%3D0%3BexitDy%3D0%3BexitPerimeter%3D0%3BsourcePerimeterSpacing%3D0%3BstartSize%3D6%3BtargetPerimeterSpacing%3D0%3BendSize%3D8%3B%22%20edge%3D%221%22%20source%3D%2227%22%20parent%3D%221%22%3E%3CmxGeometry%20relative%3D%221%22%20as%3D%22geometry%22%3E%3CmxPoint%20x%3D%22520%22%20y%3D%22-2179.9714285714285%22%20as%3D%22sourcePoint%22%2F%3E%3CmxPoint%20x%3D%22550%22%20y%3D%22-2160%22%20as%3D%22targetPoint%22%2F%3E%3C%2FmxGeometry%3E%3C%2FmxCell%3E%3CmxCell%20id%3D%2275%22%20value%3D%22%26lt%3Bfont%20style%3D%26quot%3Bfont-size%3A%2013px%3B%26quot%3B%26gt%3B%26amp%3Blt%3B%26amp%3Blt%3Binclude%26amp%3Bgt%3B%26amp%3Bgt%3B%26lt%3B%2Ffont%26gt%3B%22%20style%3D%22text%3Bhtml%3D1%3BstrokeColor%3Dnone%3BfillColor%3Dnone%3Balign%3Dcenter%3BverticalAlign%3Dmiddle%3BwhiteSpace%3Dwrap%3Brounded%3D0%3B%22%20vertex%3D%221%22%20parent%3D%221%22%3E%3CmxGeometry%20x%3D%22465%22%20y%3D%22-2195%22%20width%3D%2260%22%20height%3D%2230%22%20as%3D%22geometry%22%2F%3E%3C%2FmxCell%3E%3CmxCell%20id%3D%2276%22%20value%3D%22%22%20style%3D%22endArrow%3Dnone%3Bhtml%3D1%3Brounded%3D0%3BfontFamily%3DHelvetica%3BfontSize%3D12%3BfontColor%3Ddefault%3BentryX%3D-0.006%3BentryY%3D0.625%3BentryDx%3D0%3BentryDy%3D0%3BentryPerimeter%3D0%3B%22%20edge%3D%221%22%20target%3D%2273%22%20parent%3D%221%22%3E%3CmxGeometry%20width%3D%2250%22%20height%3D%2250%22%20relative%3D%221%22%20as%3D%22geometry%22%3E%3CmxPoint%20x%3D%22110%22%20y%3D%22-2280%22%20as%3D%22sourcePoint%22%2F%3E%3CmxPoint%20x%3D%22335%22%20y%3D%22-2240%22%20as%3D%22targetPoint%22%2F%3E%3C%2FmxGeometry%3E%3C%2FmxCell%3E%3CmxCell%20id%3D%2277%22%20value%3D%22%22%20style%3D%22endArrow%3Dnone%3Bhtml%3D1%3Brounded%3D0%3B%22%20edge%3D%221%22%20source%3D%2273%22%20target%3D%2230%22%20parent%3D%221%22%3E%3CmxGeometry%20width%3D%2250%22%20height%3D%2250%22%20relative%3D%221%22%20as%3D%22geometry%22%3E%3CmxPoint%20x%3D%221070%22%20y%3D%22-2525%22%20as%3D%22sourcePoint%22%2F%3E%3CmxPoint%20x%3D%221340%22%20y%3D%22-2430%22%20as%3D%22targetPoint%22%2F%3E%3C%2FmxGeometry%3E%3C%2FmxCell%3E%3CmxCell%20id%3D%2278%22%20value%3D%22%22%20style%3D%22endArrow%3Dopen%3Bhtml%3D1%3Brounded%3D0%3BfontFamily%3DHelvetica%3BfontSize%3D12%3BfontColor%3Ddefault%3Bdashed%3D1%3BstartArrow%3Dnone%3BstartFill%3D0%3BendFill%3D0%3BentryX%3D0.5%3BentryY%3D0%3BentryDx%3D0%3BentryDy%3D0%3B%22%20edge%3D%221%22%20source%3D%2235%22%20target%3D%2263%22%20parent%3D%221%22%3E%3CmxGeometry%20width%3D%2250%22%20height%3D%2250%22%20relative%3D%221%22%20as%3D%22geometry%22%3E%3CmxPoint%20x%3D%22811%22%20y%3D%22-2074%22%20as%3D%22sourcePoint%22%2F%3E%3CmxPoint%20x%3D%22780%22%20y%3D%22-1995%22%20as%3D%22targetPoint%22%2F%3E%3C%2FmxGeometry%3E%3C%2FmxCell%3E%3CmxCell%20id%3D%2279%22%20value%3D%22%26lt%3Bfont%20style%3D%26quot%3Bfont-size%3A%2013px%3B%26quot%3B%26gt%3B%26amp%3Blt%3B%26amp%3Blt%3Binclude%26amp%3Bgt%3B%26amp%3Bgt%3B%26lt%3B%2Ffont%26gt%3B%22%20style%3D%22text%3Bhtml%3D1%3BstrokeColor%3Dnone%3BfillColor%3Dnone%3Balign%3Dcenter%3BverticalAlign%3Dmiddle%3BwhiteSpace%3Dwrap%3Brounded%3D0%3Brotation%3D283%3B%22%20vertex%3D%221%22%20parent%3D%221%22%3E%3CmxGeometry%20x%3D%22910%22%20y%3D%22-2035%22%20width%3D%2268%22%20height%3D%2220%22%20as%3D%22geometry%22%2F%3E%3C%2FmxCell%3E%3CmxCell%20id%3D%2280%22%20value%3D%22%22%20style%3D%22endArrow%3Dnone%3Bhtml%3D1%3Brounded%3D0%3BexitX%3D1%3BexitY%3D0%3BexitDx%3D0%3BexitDy%3D0%3B%22%20edge%3D%221%22%20source%3D%2233%22%20parent%3D%221%22%3E%3CmxGeometry%20width%3D%2250%22%20height%3D%2250%22%20relative%3D%221%22%20as%3D%22geometry%22%3E%3CmxPoint%20x%3D%22826%22%20y%3D%22-2345%22%20as%3D%22sourcePoint%22%2F%3E%3CmxPoint%20x%3D%221420%22%20y%3D%22-2270%22%20as%3D%22targetPoint%22%2F%3E%3C%2FmxGeometry%3E%3C%2FmxCell%3E%3CmxCell%20id%3D%2281%22%20style%3D%22edgeStyle%3DorthogonalEdgeStyle%3Brounded%3D0%3BorthogonalLoop%3D1%3BjettySize%3Dauto%3Bhtml%3D1%3Bdashed%3D1%3BendArrow%3Dopen%3BendFill%3D0%3BsourcePerimeterSpacing%3D0%3BstartSize%3D6%3B%22%20edge%3D%221%22%20source%3D%2248%22%20target%3D%2273%22%20parent%3D%221%22%3E%3CmxGeometry%20relative%3D%221%22%20as%3D%22geometry%22%3E%3CmxPoint%20x%3D%22730%22%20y%3D%22-2346%22%20as%3D%22sourcePoint%22%2F%3E%3CmxPoint%20x%3D%22627%22%20y%3D%22-2406%22%20as%3D%22targetPoint%22%2F%3E%3CArray%20as%3D%22points%22%3E%3CmxPoint%20x%3D%22742%22%20y%3D%22-2380%22%2F%3E%3C%2FArray%3E%3C%2FmxGeometry%3E%3C%2FmxCell%3E%3CmxCell%20id%3D%2282%22%20style%3D%22edgeStyle%3DorthogonalEdgeStyle%3Brounded%3D0%3BorthogonalLoop%3D1%3BjettySize%3Dauto%3Bhtml%3D1%3Bdashed%3D1%3BendArrow%3Dopen%3BendFill%3D0%3BexitX%3D0.408%3BexitY%3D0.013%3BexitDx%3D0%3BexitDy%3D0%3BexitPerimeter%3D0%3B%22%20edge%3D%221%22%20source%3D%2273%22%20target%3D%2238%22%20parent%3D%221%22%3E%3CmxGeometry%20relative%3D%221%22%20as%3D%22geometry%22%3E%3CmxPoint%20x%3D%22720%22%20y%3D%22-2356%22%20as%3D%22sourcePoint%22%2F%3E%3CmxPoint%20x%3D%22617%22%20y%3D%22-2420%22%20as%3D%22targetPoint%22%2F%3E%3C%2FmxGeometry%3E%3C%2FmxCell%3E%3CmxCell%20id%3D%2283%22%20style%3D%22edgeStyle%3DorthogonalEdgeStyle%3Brounded%3D0%3BorthogonalLoop%3D1%3BjettySize%3Dauto%3Bhtml%3D1%3BentryX%3D0.582%3BentryY%3D0.026%3BentryDx%3D0%3BentryDy%3D0%3BentryPerimeter%3D0%3BendArrow%3Dnone%3BendFill%3D0%3BstartArrow%3Dblock%3BstartFill%3D0%3BsourcePerimeterSpacing%3D2%3B%22%20edge%3D%221%22%20source%3D%2233%22%20target%3D%2236%22%20parent%3D%221%22%3E%3CmxGeometry%20relative%3D%221%22%20as%3D%22geometry%22%3E%3CArray%20as%3D%22points%22%3E%3CmxPoint%20x%3D%22995%22%20y%3D%22-2140%22%2F%3E%3CmxPoint%20x%3D%221148%22%20y%3D%22-2140%22%2F%3E%3C%2FArray%3E%3C%2FmxGeometry%3E%3C%2FmxCell%3E%3CmxCell%20id%3D%2284%22%20style%3D%22edgeStyle%3DorthogonalEdgeStyle%3Brounded%3D0%3BorthogonalLoop%3D1%3BjettySize%3Dauto%3Bhtml%3D1%3BentryX%3D0.581%3BentryY%3D-0.015%3BentryDx%3D0%3BentryDy%3D0%3BentryPerimeter%3D0%3BendArrow%3Dnone%3BendFill%3D0%3BsourcePerimeterSpacing%3D12%3B%22%20edge%3D%221%22%20source%3D%2233%22%20target%3D%2235%22%20parent%3D%221%22%3E%3CmxGeometry%20relative%3D%221%22%20as%3D%22geometry%22%2F%3E%3C%2FmxCell%3E%3CmxCell%20id%3D%2285%22%20value%3D%22%22%20style%3D%22endArrow%3Dnone%3Bhtml%3D1%3Brounded%3D0%3BfontFamily%3DHelvetica%3BfontSize%3D12%3BfontColor%3Ddefault%3BentryX%3D0%3BentryY%3D0.5%3BentryDx%3D0%3BentryDy%3D0%3B%22%20edge%3D%221%22%20target%3D%2242%22%20parent%3D%221%22%3E%3CmxGeometry%20width%3D%2250%22%20height%3D%2250%22%20relative%3D%221%22%20as%3D%22geometry%22%3E%3CmxPoint%20x%3D%22110%22%20y%3D%22-2250%22%20as%3D%22sourcePoint%22%2F%3E%3CmxPoint%20x%3D%22345%22%20y%3D%22-2155%22%20as%3D%22targetPoint%22%2F%3E%3C%2FmxGeometry%3E%3C%2FmxCell%3E%3CmxCell%20id%3D%2286%22%20value%3D%22%22%20style%3D%22endArrow%3Dnone%3Bhtml%3D1%3Brounded%3D0%3BfontFamily%3DHelvetica%3BfontSize%3D12%3BfontColor%3Ddefault%3BentryX%3D0%3BentryY%3D0.5%3BentryDx%3D0%3BentryDy%3D0%3B%22%20edge%3D%221%22%20target%3D%2252%22%20parent%3D%221%22%3E%3CmxGeometry%20width%3D%2250%22%20height%3D%2250%22%20relative%3D%221%22%20as%3D%22geometry%22%3E%3CmxPoint%20x%3D%2290%22%20y%3D%22-2270%22%20as%3D%22sourcePoint%22%2F%3E%3CmxPoint%20x%3D%22330%22%20y%3D%22-1940%22%20as%3D%22targetPoint%22%2F%3E%3C%2FmxGeometry%3E%3C%2FmxCell%3E%3C%2Froot%3E%3C%2FmxGraphModel%3E&lt;/span&gt;" style="text;html=1;align=center;verticalAlign=middle;resizable=0;points=[];autosize=1;strokeColor=none;fillColor=none;" parent="1" vertex="1">
          <mxGeometry x="750" y="818" width="20" height="30" as="geometry" />
        </mxCell>
        <mxCell id="8K_nrp7X1eubTlWL3vP8-2" value="" style="whiteSpace=wrap;html=1;aspect=fixed;" parent="1" vertex="1">
          <mxGeometry x="208" y="-2640" width="1030" height="1030" as="geometry" />
        </mxCell>
        <mxCell id="8K_nrp7X1eubTlWL3vP8-3" value="&lt;span style=&quot;font-size: 14px;&quot;&gt;Plant Enthusiasts&lt;/span&gt;" style="shape=umlActor;verticalLabelPosition=bottom;verticalAlign=top;html=1;" parent="1" vertex="1">
          <mxGeometry x="90" y="-2120" width="30" height="60" as="geometry" />
        </mxCell>
        <mxCell id="8K_nrp7X1eubTlWL3vP8-4" style="edgeStyle=orthogonalEdgeStyle;rounded=0;orthogonalLoop=1;jettySize=auto;html=1;entryX=0.711;entryY=-0.036;entryDx=0;entryDy=0;entryPerimeter=0;endArrow=none;endFill=0;sourcePerimeterSpacing=33;" parent="1" source="8K_nrp7X1eubTlWL3vP8-5" target="8K_nrp7X1eubTlWL3vP8-6" edge="1">
          <mxGeometry relative="1" as="geometry">
            <mxPoint x="-20" y="-2130" as="targetPoint" />
            <Array as="points">
              <mxPoint x="47" y="-2160" />
              <mxPoint x="-19" y="-2160" />
            </Array>
          </mxGeometry>
        </mxCell>
        <mxCell id="8K_nrp7X1eubTlWL3vP8-5" value="&lt;font style=&quot;font-size: 14px;&quot;&gt;Generalized User&lt;/font&gt;" style="shape=umlActor;verticalLabelPosition=bottom;verticalAlign=top;html=1;" parent="1" vertex="1">
          <mxGeometry x="30" y="-2275" width="35" height="70" as="geometry" />
        </mxCell>
        <mxCell id="8K_nrp7X1eubTlWL3vP8-6" value="&lt;span style=&quot;font-size: 14px;&quot;&gt;Customer&lt;/span&gt;" style="shape=umlActor;verticalLabelPosition=bottom;verticalAlign=top;html=1;" parent="1" vertex="1">
          <mxGeometry x="-40" y="-2120" width="30" height="60" as="geometry" />
        </mxCell>
        <mxCell id="8K_nrp7X1eubTlWL3vP8-7" value="McGregor Institute of Botanical Training" style="text;strokeColor=none;fillColor=none;html=1;fontSize=24;fontStyle=1;verticalAlign=middle;align=center;" parent="1" vertex="1">
          <mxGeometry x="680" y="-2640" width="140" height="40" as="geometry" />
        </mxCell>
        <mxCell id="8K_nrp7X1eubTlWL3vP8-8" style="edgeStyle=orthogonalEdgeStyle;rounded=0;orthogonalLoop=1;jettySize=auto;html=1;entryX=0.5;entryY=0;entryDx=0;entryDy=0;endArrow=none;endFill=0;startSize=8;sourcePerimeterSpacing=9;" parent="1" source="8K_nrp7X1eubTlWL3vP8-11" target="8K_nrp7X1eubTlWL3vP8-13" edge="1">
          <mxGeometry relative="1" as="geometry">
            <Array as="points">
              <mxPoint x="380" y="-2480" />
              <mxPoint x="330" y="-2480" />
              <mxPoint x="330" y="-2464" />
              <mxPoint x="325" y="-2464" />
            </Array>
          </mxGeometry>
        </mxCell>
        <mxCell id="8K_nrp7X1eubTlWL3vP8-9" style="edgeStyle=orthogonalEdgeStyle;rounded=0;orthogonalLoop=1;jettySize=auto;html=1;startArrow=block;startFill=0;endArrow=none;endFill=0;" parent="1" source="8K_nrp7X1eubTlWL3vP8-11" target="8K_nrp7X1eubTlWL3vP8-12" edge="1">
          <mxGeometry relative="1" as="geometry">
            <Array as="points">
              <mxPoint x="380" y="-2480" />
              <mxPoint x="470" y="-2480" />
            </Array>
          </mxGeometry>
        </mxCell>
        <mxCell id="8K_nrp7X1eubTlWL3vP8-10" style="edgeStyle=orthogonalEdgeStyle;rounded=0;orthogonalLoop=1;jettySize=auto;html=1;entryX=0;entryY=0.5;entryDx=0;entryDy=0;dashed=1;endArrow=open;endFill=0;" parent="1" source="8K_nrp7X1eubTlWL3vP8-11" target="8K_nrp7X1eubTlWL3vP8-14" edge="1">
          <mxGeometry relative="1" as="geometry" />
        </mxCell>
        <mxCell id="8K_nrp7X1eubTlWL3vP8-11" value="&lt;font style=&quot;font-size: 14px;&quot;&gt;Join Programs&lt;/font&gt;" style="ellipse;whiteSpace=wrap;html=1;" parent="1" vertex="1">
          <mxGeometry x="330" y="-2560" width="100" height="60" as="geometry" />
        </mxCell>
        <mxCell id="8K_nrp7X1eubTlWL3vP8-12" value="&lt;font style=&quot;font-size: 13px;&quot;&gt;Post Graduate&lt;/font&gt;" style="ellipse;whiteSpace=wrap;html=1;" parent="1" vertex="1">
          <mxGeometry x="420" y="-2470" width="100" height="40" as="geometry" />
        </mxCell>
        <mxCell id="8K_nrp7X1eubTlWL3vP8-13" value="&lt;font style=&quot;font-size: 13px;&quot;&gt;Graduate&lt;/font&gt;" style="ellipse;whiteSpace=wrap;html=1;" parent="1" vertex="1">
          <mxGeometry x="280" y="-2470" width="90" height="40" as="geometry" />
        </mxCell>
        <mxCell id="8K_nrp7X1eubTlWL3vP8-14" value="&lt;font style=&quot;font-size: 13px;&quot;&gt;Paid and Unpaid Courses&lt;/font&gt;" style="ellipse;whiteSpace=wrap;html=1;" parent="1" vertex="1">
          <mxGeometry x="520" y="-2560" width="120" height="60" as="geometry" />
        </mxCell>
        <mxCell id="8K_nrp7X1eubTlWL3vP8-15" value="&lt;font style=&quot;font-size: 13px;&quot;&gt;&amp;lt;&amp;lt;include&amp;gt;&amp;gt;&lt;/font&gt;" style="text;html=1;strokeColor=none;fillColor=none;align=center;verticalAlign=middle;whiteSpace=wrap;rounded=0;" parent="1" vertex="1">
          <mxGeometry x="440" y="-2570" width="60" height="30" as="geometry" />
        </mxCell>
        <mxCell id="8K_nrp7X1eubTlWL3vP8-16" value="&lt;font style=&quot;font-size: 14px;&quot;&gt;Staff&lt;/font&gt;" style="shape=umlActor;verticalLabelPosition=bottom;verticalAlign=top;html=1;" parent="1" vertex="1">
          <mxGeometry x="1330" y="-2450" width="50" height="70" as="geometry" />
        </mxCell>
        <mxCell id="8K_nrp7X1eubTlWL3vP8-17" style="edgeStyle=orthogonalEdgeStyle;rounded=0;orthogonalLoop=1;jettySize=auto;html=1;fontFamily=Helvetica;fontSize=12;fontColor=default;dashed=1;endArrow=open;endFill=0;exitX=0.5;exitY=0;exitDx=0;exitDy=0;" parent="1" source="8K_nrp7X1eubTlWL3vP8-18" target="8K_nrp7X1eubTlWL3vP8-20" edge="1">
          <mxGeometry relative="1" as="geometry" />
        </mxCell>
        <mxCell id="8K_nrp7X1eubTlWL3vP8-18" value="&lt;font style=&quot;font-size: 14px;&quot;&gt;Register users&lt;/font&gt;" style="ellipse;whiteSpace=wrap;html=1;" parent="1" vertex="1">
          <mxGeometry x="637.5" y="-2470" width="140" height="50" as="geometry" />
        </mxCell>
        <mxCell id="8K_nrp7X1eubTlWL3vP8-19" value="" style="endArrow=none;html=1;rounded=0;entryX=0;entryY=0.857;entryDx=0;entryDy=0;entryPerimeter=0;exitX=1;exitY=0.5;exitDx=0;exitDy=0;" parent="1" source="8K_nrp7X1eubTlWL3vP8-18" target="8K_nrp7X1eubTlWL3vP8-16" edge="1">
          <mxGeometry width="50" height="50" relative="1" as="geometry">
            <mxPoint x="750" y="-2310" as="sourcePoint" />
            <mxPoint x="800" y="-2360" as="targetPoint" />
          </mxGeometry>
        </mxCell>
        <mxCell id="8K_nrp7X1eubTlWL3vP8-20" value="&lt;span style=&quot;font-size: 13px;&quot;&gt;Personal Information&lt;/span&gt;" style="ellipse;whiteSpace=wrap;html=1;" parent="1" vertex="1">
          <mxGeometry x="820" y="-2520" width="120" height="55" as="geometry" />
        </mxCell>
        <mxCell id="8K_nrp7X1eubTlWL3vP8-21" value="&lt;font style=&quot;font-size: 13px;&quot;&gt;&amp;lt;&amp;lt;include&amp;gt;&amp;gt;&lt;/font&gt;" style="text;html=1;strokeColor=none;fillColor=none;align=center;verticalAlign=middle;whiteSpace=wrap;rounded=0;" parent="1" vertex="1">
          <mxGeometry x="730" y="-2530" width="60" height="30" as="geometry" />
        </mxCell>
        <mxCell id="8K_nrp7X1eubTlWL3vP8-22" style="edgeStyle=orthogonalEdgeStyle;rounded=0;orthogonalLoop=1;jettySize=auto;html=1;fontFamily=Helvetica;fontSize=12;fontColor=default;dashed=1;endArrow=open;endFill=0;" parent="1" source="8K_nrp7X1eubTlWL3vP8-23" target="8K_nrp7X1eubTlWL3vP8-24" edge="1">
          <mxGeometry relative="1" as="geometry" />
        </mxCell>
        <mxCell id="8K_nrp7X1eubTlWL3vP8-23" value="&lt;span style=&quot;font-size: 14px;&quot;&gt;Purchase Plants&lt;/span&gt;" style="ellipse;whiteSpace=wrap;html=1;" parent="1" vertex="1">
          <mxGeometry x="325" y="-2280" width="100" height="60" as="geometry" />
        </mxCell>
        <mxCell id="8K_nrp7X1eubTlWL3vP8-24" value="&lt;span style=&quot;font-size: 13px;&quot;&gt;View Plant&lt;/span&gt;" style="ellipse;whiteSpace=wrap;html=1;" parent="1" vertex="1">
          <mxGeometry x="550" y="-2275" width="100" height="50" as="geometry" />
        </mxCell>
        <mxCell id="8K_nrp7X1eubTlWL3vP8-25" value="&lt;font style=&quot;font-size: 13px;&quot;&gt;&amp;lt;&amp;lt;include&amp;gt;&amp;gt;&lt;/font&gt;" style="text;html=1;strokeColor=none;fillColor=none;align=center;verticalAlign=middle;whiteSpace=wrap;rounded=0;" parent="1" vertex="1">
          <mxGeometry x="460" y="-2290" width="60" height="30" as="geometry" />
        </mxCell>
        <mxCell id="8K_nrp7X1eubTlWL3vP8-26" style="edgeStyle=orthogonalEdgeStyle;rounded=0;orthogonalLoop=1;jettySize=auto;html=1;entryX=0.5;entryY=0;entryDx=0;entryDy=0;fontFamily=Helvetica;fontSize=12;fontColor=default;endArrow=none;endFill=0;sourcePerimeterSpacing=9;" parent="1" source="8K_nrp7X1eubTlWL3vP8-27" target="8K_nrp7X1eubTlWL3vP8-29" edge="1">
          <mxGeometry relative="1" as="geometry" />
        </mxCell>
        <mxCell id="8K_nrp7X1eubTlWL3vP8-27" value="&lt;span style=&quot;font-size: 14px;&quot;&gt;Make Payment&lt;/span&gt;" style="ellipse;whiteSpace=wrap;html=1;" parent="1" vertex="1">
          <mxGeometry x="335" y="-2195" width="110" height="60" as="geometry" />
        </mxCell>
        <mxCell id="8K_nrp7X1eubTlWL3vP8-28" value="&lt;span style=&quot;font-size: 13px;&quot;&gt;Plant Purchased&lt;/span&gt;" style="ellipse;whiteSpace=wrap;html=1;" parent="1" vertex="1">
          <mxGeometry x="280" y="-2085" width="90" height="50" as="geometry" />
        </mxCell>
        <mxCell id="8K_nrp7X1eubTlWL3vP8-29" value="&lt;span style=&quot;font-size: 13px;&quot;&gt;Enrolled Courses&lt;/span&gt;" style="ellipse;whiteSpace=wrap;html=1;" parent="1" vertex="1">
          <mxGeometry x="425" y="-2085" width="100" height="50" as="geometry" />
        </mxCell>
        <mxCell id="8K_nrp7X1eubTlWL3vP8-30" value="&lt;span style=&quot;font-size: 14px;&quot;&gt;Expert&lt;/span&gt;" style="shape=umlActor;verticalLabelPosition=bottom;verticalAlign=top;html=1;" parent="1" vertex="1">
          <mxGeometry x="1300" y="-2305" width="30" height="60" as="geometry" />
        </mxCell>
        <mxCell id="8K_nrp7X1eubTlWL3vP8-31" value="&lt;span style=&quot;font-size: 14px;&quot;&gt;Admin&lt;/span&gt;" style="shape=umlActor;verticalLabelPosition=bottom;verticalAlign=top;html=1;" parent="1" vertex="1">
          <mxGeometry x="1420" y="-2305" width="30" height="60" as="geometry" />
        </mxCell>
        <mxCell id="8K_nrp7X1eubTlWL3vP8-32" style="edgeStyle=orthogonalEdgeStyle;rounded=0;orthogonalLoop=1;jettySize=auto;html=1;entryX=0.5;entryY=0;entryDx=0;entryDy=0;endArrow=none;endFill=0;startSize=7;sourcePerimeterSpacing=11;" parent="1" source="8K_nrp7X1eubTlWL3vP8-33" target="8K_nrp7X1eubTlWL3vP8-34" edge="1">
          <mxGeometry relative="1" as="geometry">
            <Array as="points">
              <mxPoint x="995" y="-2140" />
              <mxPoint x="833" y="-2140" />
            </Array>
          </mxGeometry>
        </mxCell>
        <mxCell id="8K_nrp7X1eubTlWL3vP8-33" value="&lt;span style=&quot;font-size: 14px;&quot;&gt;Generate Report&lt;/span&gt;" style="ellipse;whiteSpace=wrap;html=1;" parent="1" vertex="1">
          <mxGeometry x="925" y="-2207.5" width="140" height="55" as="geometry" />
        </mxCell>
        <mxCell id="8K_nrp7X1eubTlWL3vP8-34" value="&lt;span style=&quot;font-size: 13px;&quot;&gt;Financial Report&lt;/span&gt;" style="ellipse;whiteSpace=wrap;html=1;" parent="1" vertex="1">
          <mxGeometry x="777.5" y="-2123.37" width="110" height="50" as="geometry" />
        </mxCell>
        <mxCell id="8K_nrp7X1eubTlWL3vP8-35" value="&lt;span style=&quot;font-size: 13px;&quot;&gt;Employee Report&lt;/span&gt;" style="ellipse;whiteSpace=wrap;html=1;" parent="1" vertex="1">
          <mxGeometry x="931" y="-2115" width="110" height="50" as="geometry" />
        </mxCell>
        <mxCell id="8K_nrp7X1eubTlWL3vP8-36" value="&lt;span style=&quot;font-size: 13px;&quot;&gt;Users Report&lt;/span&gt;" style="ellipse;whiteSpace=wrap;html=1;" parent="1" vertex="1">
          <mxGeometry x="1090" y="-2120" width="100" height="50" as="geometry" />
        </mxCell>
        <mxCell id="8K_nrp7X1eubTlWL3vP8-37" style="edgeStyle=orthogonalEdgeStyle;rounded=0;orthogonalLoop=1;jettySize=auto;html=1;entryX=0.406;entryY=-0.002;entryDx=0;entryDy=0;entryPerimeter=0;fontFamily=Helvetica;fontSize=12;fontColor=default;startArrow=block;startFill=0;endArrow=none;endFill=0;" parent="1" source="8K_nrp7X1eubTlWL3vP8-27" target="8K_nrp7X1eubTlWL3vP8-28" edge="1">
          <mxGeometry relative="1" as="geometry" />
        </mxCell>
        <mxCell id="8K_nrp7X1eubTlWL3vP8-38" value="&lt;span style=&quot;font-size: 13px;&quot;&gt;Provide site location and images&lt;/span&gt;" style="ellipse;whiteSpace=wrap;html=1;" parent="1" vertex="1">
          <mxGeometry x="470" y="-2370" width="140" height="55" as="geometry" />
        </mxCell>
        <mxCell id="8K_nrp7X1eubTlWL3vP8-39" value="&lt;font style=&quot;font-size: 13px;&quot;&gt;&amp;lt;&amp;lt;include&amp;gt;&amp;gt;&lt;/font&gt;" style="text;html=1;strokeColor=none;fillColor=none;align=center;verticalAlign=middle;whiteSpace=wrap;rounded=0;" parent="1" vertex="1">
          <mxGeometry x="630" y="-2370" width="60" height="30" as="geometry" />
        </mxCell>
        <mxCell id="8K_nrp7X1eubTlWL3vP8-40" style="edgeStyle=orthogonalEdgeStyle;rounded=0;orthogonalLoop=1;jettySize=auto;html=1;entryX=0.5;entryY=0;entryDx=0;entryDy=0;fontFamily=Helvetica;fontSize=12;fontColor=default;endArrow=none;endFill=0;startSize=8;sourcePerimeterSpacing=9;" parent="1" source="8K_nrp7X1eubTlWL3vP8-42" target="8K_nrp7X1eubTlWL3vP8-44" edge="1">
          <mxGeometry relative="1" as="geometry" />
        </mxCell>
        <mxCell id="8K_nrp7X1eubTlWL3vP8-41" style="edgeStyle=orthogonalEdgeStyle;rounded=0;orthogonalLoop=1;jettySize=auto;html=1;entryX=0;entryY=0.5;entryDx=0;entryDy=0;fontFamily=Helvetica;fontSize=12;fontColor=default;dashed=1;startArrow=open;startFill=0;endArrow=none;endFill=0;" parent="1" source="8K_nrp7X1eubTlWL3vP8-42" target="8K_nrp7X1eubTlWL3vP8-46" edge="1">
          <mxGeometry relative="1" as="geometry" />
        </mxCell>
        <mxCell id="8K_nrp7X1eubTlWL3vP8-42" value="&lt;span style=&quot;font-size: 14px;&quot;&gt;&amp;nbsp;Take Exam&lt;/span&gt;" style="ellipse;whiteSpace=wrap;html=1;" parent="1" vertex="1">
          <mxGeometry x="320" y="-1980" width="140" height="60" as="geometry" />
        </mxCell>
        <mxCell id="8K_nrp7X1eubTlWL3vP8-43" value="&lt;span style=&quot;font-size: 13px;&quot;&gt;Mock Test&lt;/span&gt;" style="ellipse;whiteSpace=wrap;html=1;" parent="1" vertex="1">
          <mxGeometry x="300" y="-1880" width="90" height="50" as="geometry" />
        </mxCell>
        <mxCell id="8K_nrp7X1eubTlWL3vP8-44" value="&lt;span style=&quot;font-size: 13px;&quot;&gt;Certification Exams&lt;/span&gt;" style="ellipse;whiteSpace=wrap;html=1;" parent="1" vertex="1">
          <mxGeometry x="420" y="-1880" width="110" height="50" as="geometry" />
        </mxCell>
        <mxCell id="8K_nrp7X1eubTlWL3vP8-45" style="edgeStyle=orthogonalEdgeStyle;rounded=0;orthogonalLoop=1;jettySize=auto;html=1;fontFamily=Helvetica;fontSize=12;fontColor=default;startArrow=block;startFill=0;entryX=0.272;entryY=0.071;entryDx=0;entryDy=0;entryPerimeter=0;endArrow=none;endFill=0;" parent="1" source="8K_nrp7X1eubTlWL3vP8-42" target="8K_nrp7X1eubTlWL3vP8-43" edge="1">
          <mxGeometry relative="1" as="geometry">
            <mxPoint x="325" y="-1880" as="targetPoint" />
          </mxGeometry>
        </mxCell>
        <mxCell id="8K_nrp7X1eubTlWL3vP8-46" value="&lt;span style=&quot;font-size: 13px;&quot;&gt;Check Results&lt;/span&gt;" style="ellipse;whiteSpace=wrap;html=1;" parent="1" vertex="1">
          <mxGeometry x="565" y="-1977.5" width="110" height="55" as="geometry" />
        </mxCell>
        <mxCell id="8K_nrp7X1eubTlWL3vP8-47" value="&lt;span style=&quot;font-size: 13px;&quot;&gt;&amp;lt;&amp;lt;extends&amp;gt;&amp;gt;&lt;/span&gt;" style="text;html=1;strokeColor=none;fillColor=none;align=center;verticalAlign=middle;whiteSpace=wrap;rounded=0;" parent="1" vertex="1">
          <mxGeometry x="480" y="-1980" width="60" height="30" as="geometry" />
        </mxCell>
        <mxCell id="8K_nrp7X1eubTlWL3vP8-48" value="&lt;span style=&quot;font-size: 13px;&quot;&gt;Provides Reply&lt;/span&gt;" style="ellipse;whiteSpace=wrap;html=1;" parent="1" vertex="1">
          <mxGeometry x="925" y="-2370" width="120" height="55" as="geometry" />
        </mxCell>
        <mxCell id="8K_nrp7X1eubTlWL3vP8-49" style="edgeStyle=orthogonalEdgeStyle;rounded=0;orthogonalLoop=1;jettySize=auto;html=1;entryX=0.5;entryY=0;entryDx=0;entryDy=0;fontFamily=Helvetica;fontSize=12;fontColor=default;endArrow=none;endFill=0;sourcePerimeterSpacing=13;" parent="1" source="8K_nrp7X1eubTlWL3vP8-52" target="8K_nrp7X1eubTlWL3vP8-56" edge="1">
          <mxGeometry relative="1" as="geometry" />
        </mxCell>
        <mxCell id="8K_nrp7X1eubTlWL3vP8-50" style="edgeStyle=orthogonalEdgeStyle;rounded=0;orthogonalLoop=1;jettySize=auto;html=1;entryX=0.5;entryY=0;entryDx=0;entryDy=0;fontFamily=Helvetica;fontSize=12;fontColor=default;endArrow=none;endFill=0;sourcePerimeterSpacing=10;" parent="1" source="8K_nrp7X1eubTlWL3vP8-52" target="8K_nrp7X1eubTlWL3vP8-58" edge="1">
          <mxGeometry relative="1" as="geometry">
            <Array as="points">
              <mxPoint x="370" y="-1720" />
              <mxPoint x="535" y="-1720" />
            </Array>
          </mxGeometry>
        </mxCell>
        <mxCell id="8K_nrp7X1eubTlWL3vP8-51" style="edgeStyle=orthogonalEdgeStyle;rounded=0;orthogonalLoop=1;jettySize=auto;html=1;entryX=0.5;entryY=0;entryDx=0;entryDy=0;fontFamily=Helvetica;fontSize=12;fontColor=default;endArrow=none;endFill=0;sourcePerimeterSpacing=10;" parent="1" source="8K_nrp7X1eubTlWL3vP8-52" target="8K_nrp7X1eubTlWL3vP8-59" edge="1">
          <mxGeometry relative="1" as="geometry">
            <Array as="points">
              <mxPoint x="370" y="-1720" />
              <mxPoint x="645" y="-1720" />
            </Array>
          </mxGeometry>
        </mxCell>
        <mxCell id="8K_nrp7X1eubTlWL3vP8-52" value="&lt;span style=&quot;font-size: 14px;&quot;&gt;Participate in Forum&lt;/span&gt;" style="ellipse;whiteSpace=wrap;html=1;" parent="1" vertex="1">
          <mxGeometry x="300" y="-1800" width="140" height="60" as="geometry" />
        </mxCell>
        <mxCell id="8K_nrp7X1eubTlWL3vP8-54" style="edgeStyle=orthogonalEdgeStyle;rounded=0;orthogonalLoop=1;jettySize=auto;html=1;entryX=0.5;entryY=0;entryDx=0;entryDy=0;entryPerimeter=0;fontFamily=Helvetica;fontSize=12;fontColor=default;startArrow=block;startFill=0;endArrow=none;endFill=0;sourcePerimeterSpacing=5;" parent="1" target="8K_nrp7X1eubTlWL3vP8-30" edge="1">
          <mxGeometry relative="1" as="geometry">
            <mxPoint x="1355" y="-2350" as="sourcePoint" />
            <Array as="points">
              <mxPoint x="1355" y="-2320" />
              <mxPoint x="1315" y="-2320" />
            </Array>
          </mxGeometry>
        </mxCell>
        <mxCell id="8K_nrp7X1eubTlWL3vP8-55" value="&lt;span style=&quot;font-size: 13px;&quot;&gt;&amp;lt;&amp;lt;extends&amp;gt;&amp;gt;&lt;/span&gt;" style="text;html=1;strokeColor=none;fillColor=none;align=center;verticalAlign=middle;whiteSpace=wrap;rounded=0;" parent="1" vertex="1">
          <mxGeometry x="802.5" y="-2380" width="60" height="30" as="geometry" />
        </mxCell>
        <mxCell id="8K_nrp7X1eubTlWL3vP8-56" value="&lt;span style=&quot;font-size: 13px;&quot;&gt;Create Post&lt;/span&gt;" style="ellipse;whiteSpace=wrap;html=1;" parent="1" vertex="1">
          <mxGeometry x="260" y="-1700" width="90" height="50" as="geometry" />
        </mxCell>
        <mxCell id="8K_nrp7X1eubTlWL3vP8-57" value="&lt;span style=&quot;font-size: 13px;&quot;&gt;Comment&lt;/span&gt;" style="ellipse;whiteSpace=wrap;html=1;" parent="1" vertex="1">
          <mxGeometry x="370" y="-1700" width="90" height="50" as="geometry" />
        </mxCell>
        <mxCell id="8K_nrp7X1eubTlWL3vP8-58" value="&lt;span style=&quot;font-size: 13px;&quot;&gt;Engage on Post&lt;/span&gt;" style="ellipse;whiteSpace=wrap;html=1;" parent="1" vertex="1">
          <mxGeometry x="490" y="-1700" width="90" height="50" as="geometry" />
        </mxCell>
        <mxCell id="8K_nrp7X1eubTlWL3vP8-59" value="&lt;span style=&quot;font-size: 13px;&quot;&gt;Upvote&lt;/span&gt;" style="ellipse;whiteSpace=wrap;html=1;" parent="1" vertex="1">
          <mxGeometry x="600" y="-1700" width="90" height="50" as="geometry" />
        </mxCell>
        <mxCell id="8K_nrp7X1eubTlWL3vP8-60" value="&lt;span style=&quot;font-size: 13px;&quot;&gt;Payment&amp;nbsp; Methods&lt;/span&gt;" style="ellipse;whiteSpace=wrap;html=1;" parent="1" vertex="1">
          <mxGeometry x="550" y="-2190" width="100" height="50" as="geometry" />
        </mxCell>
        <mxCell id="8K_nrp7X1eubTlWL3vP8-61" value="&lt;font style=&quot;font-size: 13px;&quot;&gt;&amp;lt;&amp;lt;include&amp;gt;&amp;gt;&lt;/font&gt;" style="text;html=1;strokeColor=none;fillColor=none;align=center;verticalAlign=middle;whiteSpace=wrap;rounded=0;rotation=288;opacity=70;" parent="1" vertex="1">
          <mxGeometry x="743" y="-2050" width="68" height="18" as="geometry" />
        </mxCell>
        <mxCell id="8K_nrp7X1eubTlWL3vP8-62" value="&lt;span style=&quot;font-size: 13px;&quot;&gt;Finance data&lt;/span&gt;" style="ellipse;whiteSpace=wrap;html=1;" parent="1" vertex="1">
          <mxGeometry x="730" y="-1990" width="100" height="55" as="geometry" />
        </mxCell>
        <mxCell id="8K_nrp7X1eubTlWL3vP8-63" value="&lt;span style=&quot;font-size: 13px;&quot;&gt;Employee Data&lt;/span&gt;" style="ellipse;whiteSpace=wrap;html=1;" parent="1" vertex="1">
          <mxGeometry x="900" y="-1980" width="115" height="50" as="geometry" />
        </mxCell>
        <mxCell id="8K_nrp7X1eubTlWL3vP8-64" value="&lt;span style=&quot;font-size: 13px;&quot;&gt;User Data&lt;/span&gt;" style="ellipse;whiteSpace=wrap;html=1;" parent="1" vertex="1">
          <mxGeometry x="1060" y="-1982.5" width="90" height="55" as="geometry" />
        </mxCell>
        <mxCell id="8K_nrp7X1eubTlWL3vP8-65" value="" style="endArrow=open;html=1;rounded=0;fontFamily=Helvetica;fontSize=12;fontColor=default;exitX=0.256;exitY=1.015;exitDx=0;exitDy=0;exitPerimeter=0;dashed=1;startArrow=none;startFill=0;endFill=0;entryX=0.5;entryY=0;entryDx=0;entryDy=0;" parent="1" source="8K_nrp7X1eubTlWL3vP8-34" target="8K_nrp7X1eubTlWL3vP8-62" edge="1">
          <mxGeometry width="50" height="50" relative="1" as="geometry">
            <mxPoint x="830" y="-2020" as="sourcePoint" />
            <mxPoint x="730" y="-2160" as="targetPoint" />
          </mxGeometry>
        </mxCell>
        <mxCell id="8K_nrp7X1eubTlWL3vP8-66" value="" style="endArrow=open;html=1;rounded=0;fontFamily=Helvetica;fontSize=12;fontColor=default;exitX=0.283;exitY=0.982;exitDx=0;exitDy=0;exitPerimeter=0;dashed=1;startArrow=none;startFill=0;endFill=0;entryX=0.472;entryY=-0.045;entryDx=0;entryDy=0;entryPerimeter=0;" parent="1" source="8K_nrp7X1eubTlWL3vP8-36" target="8K_nrp7X1eubTlWL3vP8-64" edge="1">
          <mxGeometry width="50" height="50" relative="1" as="geometry">
            <mxPoint x="960" y="-2190" as="sourcePoint" />
            <mxPoint x="871" y="-2142" as="targetPoint" />
          </mxGeometry>
        </mxCell>
        <mxCell id="8K_nrp7X1eubTlWL3vP8-67" value="&lt;font style=&quot;font-size: 13px;&quot;&gt;&amp;lt;&amp;lt;include&amp;gt;&amp;gt;&lt;/font&gt;" style="text;html=1;strokeColor=none;fillColor=none;align=center;verticalAlign=middle;whiteSpace=wrap;rounded=0;rotation=280;" parent="1" vertex="1">
          <mxGeometry x="1065" y="-2050" width="50" height="30" as="geometry" />
        </mxCell>
        <mxCell id="8K_nrp7X1eubTlWL3vP8-68" value="" style="endArrow=none;html=1;rounded=0;fontFamily=Helvetica;fontSize=12;fontColor=default;entryX=0;entryY=0.5;entryDx=0;entryDy=0;" parent="1" target="8K_nrp7X1eubTlWL3vP8-11" edge="1">
          <mxGeometry width="50" height="50" relative="1" as="geometry">
            <mxPoint x="90" y="-2280" as="sourcePoint" />
            <mxPoint x="830" y="-2240" as="targetPoint" />
          </mxGeometry>
        </mxCell>
        <mxCell id="8K_nrp7X1eubTlWL3vP8-69" value="" style="endArrow=none;html=1;rounded=0;fontFamily=Helvetica;fontSize=12;fontColor=default;entryX=0;entryY=0.5;entryDx=0;entryDy=0;" parent="1" target="8K_nrp7X1eubTlWL3vP8-23" edge="1">
          <mxGeometry width="50" height="50" relative="1" as="geometry">
            <mxPoint x="100" y="-2270" as="sourcePoint" />
            <mxPoint x="340" y="-2520" as="targetPoint" />
          </mxGeometry>
        </mxCell>
        <mxCell id="8K_nrp7X1eubTlWL3vP8-70" value="" style="endArrow=none;html=1;rounded=0;fontFamily=Helvetica;fontSize=12;fontColor=default;entryX=0;entryY=0.5;entryDx=0;entryDy=0;" parent="1" target="8K_nrp7X1eubTlWL3vP8-27" edge="1">
          <mxGeometry width="50" height="50" relative="1" as="geometry">
            <mxPoint x="100" y="-2260" as="sourcePoint" />
            <mxPoint x="350" y="-2510" as="targetPoint" />
          </mxGeometry>
        </mxCell>
        <mxCell id="8K_nrp7X1eubTlWL3vP8-71" style="edgeStyle=orthogonalEdgeStyle;rounded=0;orthogonalLoop=1;jettySize=auto;html=1;entryX=0.67;entryY=0.04;entryDx=0;entryDy=0;entryPerimeter=0;fontFamily=Helvetica;fontSize=12;fontColor=default;startArrow=block;startFill=0;endArrow=none;endFill=0;" parent="1" source="8K_nrp7X1eubTlWL3vP8-52" target="8K_nrp7X1eubTlWL3vP8-57" edge="1">
          <mxGeometry relative="1" as="geometry" />
        </mxCell>
        <mxCell id="8K_nrp7X1eubTlWL3vP8-72" style="edgeStyle=orthogonalEdgeStyle;rounded=0;orthogonalLoop=1;jettySize=auto;html=1;entryX=0.5;entryY=0;entryDx=0;entryDy=0;entryPerimeter=0;endArrow=none;endFill=0;startArrow=block;startFill=0;sourcePerimeterSpacing=23;" parent="1" source="8K_nrp7X1eubTlWL3vP8-5" target="8K_nrp7X1eubTlWL3vP8-3" edge="1">
          <mxGeometry relative="1" as="geometry">
            <Array as="points">
              <mxPoint x="48" y="-2160" />
              <mxPoint x="105" y="-2160" />
            </Array>
          </mxGeometry>
        </mxCell>
        <mxCell id="8K_nrp7X1eubTlWL3vP8-73" value="&lt;span style=&quot;font-size: 14px;&quot;&gt;Ask Recommensations&lt;/span&gt;" style="ellipse;whiteSpace=wrap;html=1;" parent="1" vertex="1">
          <mxGeometry x="665" y="-2335" width="155" height="60" as="geometry" />
        </mxCell>
        <mxCell id="8K_nrp7X1eubTlWL3vP8-74" style="edgeStyle=orthogonalEdgeStyle;rounded=0;orthogonalLoop=1;jettySize=auto;html=1;fontFamily=Helvetica;fontSize=12;fontColor=default;dashed=1;endArrow=open;endFill=0;exitX=0.968;exitY=0.583;exitDx=0;exitDy=0;exitPerimeter=0;sourcePerimeterSpacing=0;startSize=6;targetPerimeterSpacing=0;endSize=8;" parent="1" source="8K_nrp7X1eubTlWL3vP8-27" edge="1">
          <mxGeometry relative="1" as="geometry">
            <mxPoint x="520" y="-2179.9714285714285" as="sourcePoint" />
            <mxPoint x="550" y="-2160" as="targetPoint" />
          </mxGeometry>
        </mxCell>
        <mxCell id="8K_nrp7X1eubTlWL3vP8-75" value="&lt;font style=&quot;font-size: 13px;&quot;&gt;&amp;lt;&amp;lt;include&amp;gt;&amp;gt;&lt;/font&gt;" style="text;html=1;strokeColor=none;fillColor=none;align=center;verticalAlign=middle;whiteSpace=wrap;rounded=0;" parent="1" vertex="1">
          <mxGeometry x="465" y="-2195" width="60" height="30" as="geometry" />
        </mxCell>
        <mxCell id="8K_nrp7X1eubTlWL3vP8-76" value="" style="endArrow=none;html=1;rounded=0;fontFamily=Helvetica;fontSize=12;fontColor=default;entryX=-0.006;entryY=0.625;entryDx=0;entryDy=0;entryPerimeter=0;" parent="1" target="8K_nrp7X1eubTlWL3vP8-73" edge="1">
          <mxGeometry width="50" height="50" relative="1" as="geometry">
            <mxPoint x="110" y="-2280" as="sourcePoint" />
            <mxPoint x="335" y="-2240" as="targetPoint" />
          </mxGeometry>
        </mxCell>
        <mxCell id="8K_nrp7X1eubTlWL3vP8-77" value="" style="endArrow=none;html=1;rounded=0;" parent="1" source="8K_nrp7X1eubTlWL3vP8-73" target="8K_nrp7X1eubTlWL3vP8-30" edge="1">
          <mxGeometry width="50" height="50" relative="1" as="geometry">
            <mxPoint x="1070" y="-2525" as="sourcePoint" />
            <mxPoint x="1340" y="-2430" as="targetPoint" />
          </mxGeometry>
        </mxCell>
        <mxCell id="8K_nrp7X1eubTlWL3vP8-78" value="" style="endArrow=open;html=1;rounded=0;fontFamily=Helvetica;fontSize=12;fontColor=default;dashed=1;startArrow=none;startFill=0;endFill=0;entryX=0.5;entryY=0;entryDx=0;entryDy=0;" parent="1" source="8K_nrp7X1eubTlWL3vP8-35" target="8K_nrp7X1eubTlWL3vP8-63" edge="1">
          <mxGeometry width="50" height="50" relative="1" as="geometry">
            <mxPoint x="811" y="-2074" as="sourcePoint" />
            <mxPoint x="780" y="-1995" as="targetPoint" />
          </mxGeometry>
        </mxCell>
        <mxCell id="8K_nrp7X1eubTlWL3vP8-79" value="&lt;font style=&quot;font-size: 13px;&quot;&gt;&amp;lt;&amp;lt;include&amp;gt;&amp;gt;&lt;/font&gt;" style="text;html=1;strokeColor=none;fillColor=none;align=center;verticalAlign=middle;whiteSpace=wrap;rounded=0;rotation=283;" parent="1" vertex="1">
          <mxGeometry x="910" y="-2035" width="68" height="20" as="geometry" />
        </mxCell>
        <mxCell id="8K_nrp7X1eubTlWL3vP8-80" value="" style="endArrow=none;html=1;rounded=0;exitX=1;exitY=0;exitDx=0;exitDy=0;" parent="1" source="8K_nrp7X1eubTlWL3vP8-33" edge="1">
          <mxGeometry width="50" height="50" relative="1" as="geometry">
            <mxPoint x="826" y="-2345" as="sourcePoint" />
            <mxPoint x="1410" y="-2220" as="targetPoint" />
          </mxGeometry>
        </mxCell>
        <mxCell id="8K_nrp7X1eubTlWL3vP8-81" style="edgeStyle=orthogonalEdgeStyle;rounded=0;orthogonalLoop=1;jettySize=auto;html=1;dashed=1;endArrow=open;endFill=0;sourcePerimeterSpacing=0;startSize=6;" parent="1" source="8K_nrp7X1eubTlWL3vP8-48" target="8K_nrp7X1eubTlWL3vP8-73" edge="1">
          <mxGeometry relative="1" as="geometry">
            <mxPoint x="730" y="-2346" as="sourcePoint" />
            <mxPoint x="627" y="-2406" as="targetPoint" />
            <Array as="points">
              <mxPoint x="742" y="-2350" />
            </Array>
          </mxGeometry>
        </mxCell>
        <mxCell id="8K_nrp7X1eubTlWL3vP8-83" style="edgeStyle=orthogonalEdgeStyle;rounded=0;orthogonalLoop=1;jettySize=auto;html=1;entryX=0.582;entryY=0.026;entryDx=0;entryDy=0;entryPerimeter=0;endArrow=none;endFill=0;startArrow=block;startFill=0;sourcePerimeterSpacing=2;" parent="1" source="8K_nrp7X1eubTlWL3vP8-33" target="8K_nrp7X1eubTlWL3vP8-36" edge="1">
          <mxGeometry relative="1" as="geometry">
            <Array as="points">
              <mxPoint x="995" y="-2140" />
              <mxPoint x="1148" y="-2140" />
            </Array>
          </mxGeometry>
        </mxCell>
        <mxCell id="8K_nrp7X1eubTlWL3vP8-84" style="edgeStyle=orthogonalEdgeStyle;rounded=0;orthogonalLoop=1;jettySize=auto;html=1;entryX=0.581;entryY=-0.015;entryDx=0;entryDy=0;entryPerimeter=0;endArrow=none;endFill=0;sourcePerimeterSpacing=12;" parent="1" source="8K_nrp7X1eubTlWL3vP8-33" target="8K_nrp7X1eubTlWL3vP8-35" edge="1">
          <mxGeometry relative="1" as="geometry" />
        </mxCell>
        <mxCell id="8K_nrp7X1eubTlWL3vP8-85" value="" style="endArrow=none;html=1;rounded=0;fontFamily=Helvetica;fontSize=12;fontColor=default;entryX=0;entryY=0.5;entryDx=0;entryDy=0;" parent="1" target="8K_nrp7X1eubTlWL3vP8-42" edge="1">
          <mxGeometry width="50" height="50" relative="1" as="geometry">
            <mxPoint x="110" y="-2250" as="sourcePoint" />
            <mxPoint x="345" y="-2155" as="targetPoint" />
          </mxGeometry>
        </mxCell>
        <mxCell id="8K_nrp7X1eubTlWL3vP8-86" value="" style="endArrow=none;html=1;rounded=0;fontFamily=Helvetica;fontSize=12;fontColor=default;entryX=0;entryY=0.5;entryDx=0;entryDy=0;" parent="1" target="8K_nrp7X1eubTlWL3vP8-52" edge="1">
          <mxGeometry width="50" height="50" relative="1" as="geometry">
            <mxPoint x="90" y="-2270" as="sourcePoint" />
            <mxPoint x="330" y="-1940" as="targetPoint" />
          </mxGeometry>
        </mxCell>
        <mxCell id="8K_nrp7X1eubTlWL3vP8-91" style="edgeStyle=orthogonalEdgeStyle;rounded=0;orthogonalLoop=1;jettySize=auto;html=1;dashed=1;endArrow=open;endFill=0;sourcePerimeterSpacing=-1;startSize=8;entryX=0.99;entryY=0.539;entryDx=0;entryDy=0;entryPerimeter=0;" parent="1" source="8K_nrp7X1eubTlWL3vP8-73" target="8K_nrp7X1eubTlWL3vP8-38" edge="1">
          <mxGeometry relative="1" as="geometry">
            <mxPoint x="937" y="-2340" as="sourcePoint" />
            <mxPoint x="620" y="-2342" as="targetPoint" />
            <Array as="points">
              <mxPoint x="710" y="-2340" />
            </Array>
          </mxGeometry>
        </mxCell>
        <mxCell id="8K_nrp7X1eubTlWL3vP8-92" value="" style="endArrow=none;html=1;rounded=0;fontFamily=Helvetica;fontSize=12;fontColor=default;entryX=0;entryY=0.5;entryDx=0;entryDy=0;" parent="1" target="8K_nrp7X1eubTlWL3vP8-18" edge="1">
          <mxGeometry width="50" height="50" relative="1" as="geometry">
            <mxPoint x="100" y="-2280" as="sourcePoint" />
            <mxPoint x="340" y="-2520" as="targetPoint" />
          </mxGeometry>
        </mxCell>
        <mxCell id="8K_nrp7X1eubTlWL3vP8-96" style="edgeStyle=orthogonalEdgeStyle;rounded=0;orthogonalLoop=1;jettySize=auto;html=1;sourcePerimeterSpacing=41;endArrow=none;endFill=0;entryX=0.433;entryY=0.003;entryDx=0;entryDy=0;entryPerimeter=0;" parent="1" source="8K_nrp7X1eubTlWL3vP8-16" target="8K_nrp7X1eubTlWL3vP8-31" edge="1">
          <mxGeometry relative="1" as="geometry">
            <mxPoint x="1435" y="-2310" as="targetPoint" />
            <Array as="points">
              <mxPoint x="1355" y="-2320" />
              <mxPoint x="1433" y="-2320" />
            </Array>
          </mxGeometry>
        </mxCell>
      </root>
    </mxGraphModel>
  </diagram>
  <diagram id="hu4fAZEiFRmJ16Q1EyB-" name="Page-5">
    <mxGraphModel dx="6445" dy="4233" grid="1" gridSize="10" guides="1" tooltips="1" connect="1" arrows="1" fold="1" page="1" pageScale="1" pageWidth="4681" pageHeight="3300" math="0" shadow="0">
      <root>
        <mxCell id="0" />
        <mxCell id="1" parent="0" />
        <mxCell id="plnBB56sXtTeSFs0McN8-1" value="" style="whiteSpace=wrap;html=1;aspect=fixed;" parent="1" vertex="1">
          <mxGeometry x="208" y="-2640" width="1030" height="1030" as="geometry" />
        </mxCell>
        <mxCell id="plnBB56sXtTeSFs0McN8-2" value="&lt;span style=&quot;font-size: 14px;&quot;&gt;Plant Enthusiasts&lt;/span&gt;" style="shape=umlActor;verticalLabelPosition=bottom;verticalAlign=top;html=1;" parent="1" vertex="1">
          <mxGeometry x="90" y="-2120" width="30" height="60" as="geometry" />
        </mxCell>
        <mxCell id="plnBB56sXtTeSFs0McN8-3" style="edgeStyle=orthogonalEdgeStyle;rounded=0;orthogonalLoop=1;jettySize=auto;html=1;entryX=0.711;entryY=-0.036;entryDx=0;entryDy=0;entryPerimeter=0;endArrow=none;endFill=0;sourcePerimeterSpacing=33;" parent="1" source="plnBB56sXtTeSFs0McN8-4" target="plnBB56sXtTeSFs0McN8-5" edge="1">
          <mxGeometry relative="1" as="geometry">
            <mxPoint x="-20" y="-2130" as="targetPoint" />
            <Array as="points">
              <mxPoint x="47" y="-2160" />
              <mxPoint x="-19" y="-2160" />
            </Array>
          </mxGeometry>
        </mxCell>
        <mxCell id="plnBB56sXtTeSFs0McN8-4" value="&lt;font style=&quot;font-size: 14px;&quot;&gt;Generalized User&lt;/font&gt;" style="shape=umlActor;verticalLabelPosition=bottom;verticalAlign=top;html=1;" parent="1" vertex="1">
          <mxGeometry x="30" y="-2275" width="35" height="70" as="geometry" />
        </mxCell>
        <mxCell id="plnBB56sXtTeSFs0McN8-5" value="&lt;span style=&quot;font-size: 14px;&quot;&gt;Customer&lt;/span&gt;" style="shape=umlActor;verticalLabelPosition=bottom;verticalAlign=top;html=1;" parent="1" vertex="1">
          <mxGeometry x="-40" y="-2120" width="30" height="60" as="geometry" />
        </mxCell>
        <mxCell id="plnBB56sXtTeSFs0McN8-6" value="McGregor Institute of Botanical Training" style="text;strokeColor=none;fillColor=none;html=1;fontSize=24;fontStyle=1;verticalAlign=middle;align=center;" parent="1" vertex="1">
          <mxGeometry x="680" y="-2640" width="140" height="40" as="geometry" />
        </mxCell>
        <mxCell id="plnBB56sXtTeSFs0McN8-7" style="edgeStyle=orthogonalEdgeStyle;rounded=0;orthogonalLoop=1;jettySize=auto;html=1;entryX=0.5;entryY=0;entryDx=0;entryDy=0;endArrow=none;endFill=0;startSize=8;sourcePerimeterSpacing=9;" parent="1" source="plnBB56sXtTeSFs0McN8-10" target="plnBB56sXtTeSFs0McN8-12" edge="1">
          <mxGeometry relative="1" as="geometry">
            <Array as="points">
              <mxPoint x="380" y="-2480" />
              <mxPoint x="330" y="-2480" />
              <mxPoint x="330" y="-2464" />
              <mxPoint x="325" y="-2464" />
            </Array>
          </mxGeometry>
        </mxCell>
        <mxCell id="plnBB56sXtTeSFs0McN8-8" style="edgeStyle=orthogonalEdgeStyle;rounded=0;orthogonalLoop=1;jettySize=auto;html=1;startArrow=block;startFill=0;endArrow=none;endFill=0;" parent="1" source="plnBB56sXtTeSFs0McN8-10" target="plnBB56sXtTeSFs0McN8-11" edge="1">
          <mxGeometry relative="1" as="geometry">
            <Array as="points">
              <mxPoint x="380" y="-2480" />
              <mxPoint x="470" y="-2480" />
            </Array>
          </mxGeometry>
        </mxCell>
        <mxCell id="plnBB56sXtTeSFs0McN8-9" style="edgeStyle=orthogonalEdgeStyle;rounded=0;orthogonalLoop=1;jettySize=auto;html=1;entryX=0;entryY=0.5;entryDx=0;entryDy=0;dashed=1;endArrow=open;endFill=0;" parent="1" source="plnBB56sXtTeSFs0McN8-10" target="plnBB56sXtTeSFs0McN8-13" edge="1">
          <mxGeometry relative="1" as="geometry" />
        </mxCell>
        <mxCell id="plnBB56sXtTeSFs0McN8-10" value="&lt;font style=&quot;font-size: 14px;&quot;&gt;Join Programs&lt;/font&gt;" style="ellipse;whiteSpace=wrap;html=1;" parent="1" vertex="1">
          <mxGeometry x="330" y="-2560" width="100" height="60" as="geometry" />
        </mxCell>
        <mxCell id="plnBB56sXtTeSFs0McN8-11" value="&lt;font style=&quot;font-size: 13px;&quot;&gt;Post Graduate&lt;/font&gt;" style="ellipse;whiteSpace=wrap;html=1;" parent="1" vertex="1">
          <mxGeometry x="420" y="-2470" width="100" height="40" as="geometry" />
        </mxCell>
        <mxCell id="plnBB56sXtTeSFs0McN8-12" value="&lt;font style=&quot;font-size: 13px;&quot;&gt;Graduate&lt;/font&gt;" style="ellipse;whiteSpace=wrap;html=1;" parent="1" vertex="1">
          <mxGeometry x="280" y="-2470" width="90" height="40" as="geometry" />
        </mxCell>
        <mxCell id="plnBB56sXtTeSFs0McN8-13" value="&lt;font style=&quot;font-size: 13px;&quot;&gt;Paid and Unpaid Courses&lt;/font&gt;" style="ellipse;whiteSpace=wrap;html=1;" parent="1" vertex="1">
          <mxGeometry x="520" y="-2560" width="120" height="60" as="geometry" />
        </mxCell>
        <mxCell id="plnBB56sXtTeSFs0McN8-14" value="&lt;font style=&quot;font-size: 13px;&quot;&gt;&amp;lt;&amp;lt;include&amp;gt;&amp;gt;&lt;/font&gt;" style="text;html=1;strokeColor=none;fillColor=none;align=center;verticalAlign=middle;whiteSpace=wrap;rounded=0;" parent="1" vertex="1">
          <mxGeometry x="440" y="-2570" width="60" height="30" as="geometry" />
        </mxCell>
        <mxCell id="plnBB56sXtTeSFs0McN8-15" value="&lt;font style=&quot;font-size: 14px;&quot;&gt;Staff&lt;/font&gt;" style="shape=umlActor;verticalLabelPosition=bottom;verticalAlign=top;html=1;" parent="1" vertex="1">
          <mxGeometry x="1330" y="-2450" width="50" height="70" as="geometry" />
        </mxCell>
        <mxCell id="plnBB56sXtTeSFs0McN8-16" style="edgeStyle=orthogonalEdgeStyle;rounded=0;orthogonalLoop=1;jettySize=auto;html=1;fontFamily=Helvetica;fontSize=12;fontColor=default;dashed=1;endArrow=open;endFill=0;exitX=0.5;exitY=0;exitDx=0;exitDy=0;" parent="1" source="plnBB56sXtTeSFs0McN8-17" target="plnBB56sXtTeSFs0McN8-19" edge="1">
          <mxGeometry relative="1" as="geometry" />
        </mxCell>
        <mxCell id="plnBB56sXtTeSFs0McN8-17" value="&lt;font style=&quot;font-size: 14px;&quot;&gt;Register users&lt;/font&gt;" style="ellipse;whiteSpace=wrap;html=1;" parent="1" vertex="1">
          <mxGeometry x="637.5" y="-2470" width="140" height="50" as="geometry" />
        </mxCell>
        <mxCell id="plnBB56sXtTeSFs0McN8-19" value="&lt;span style=&quot;font-size: 13px;&quot;&gt;Personal Information&lt;/span&gt;" style="ellipse;whiteSpace=wrap;html=1;" parent="1" vertex="1">
          <mxGeometry x="820" y="-2520" width="120" height="55" as="geometry" />
        </mxCell>
        <mxCell id="plnBB56sXtTeSFs0McN8-20" value="&lt;font style=&quot;font-size: 13px;&quot;&gt;&amp;lt;&amp;lt;include&amp;gt;&amp;gt;&lt;/font&gt;" style="text;html=1;strokeColor=none;fillColor=none;align=center;verticalAlign=middle;whiteSpace=wrap;rounded=0;" parent="1" vertex="1">
          <mxGeometry x="730" y="-2530" width="60" height="30" as="geometry" />
        </mxCell>
        <mxCell id="plnBB56sXtTeSFs0McN8-21" style="edgeStyle=orthogonalEdgeStyle;rounded=0;orthogonalLoop=1;jettySize=auto;html=1;fontFamily=Helvetica;fontSize=12;fontColor=default;dashed=1;endArrow=open;endFill=0;" parent="1" source="plnBB56sXtTeSFs0McN8-22" target="plnBB56sXtTeSFs0McN8-23" edge="1">
          <mxGeometry relative="1" as="geometry" />
        </mxCell>
        <mxCell id="plnBB56sXtTeSFs0McN8-22" value="&lt;span style=&quot;font-size: 14px;&quot;&gt;Purchase Plants&lt;/span&gt;" style="ellipse;whiteSpace=wrap;html=1;" parent="1" vertex="1">
          <mxGeometry x="325" y="-2280" width="100" height="60" as="geometry" />
        </mxCell>
        <mxCell id="plnBB56sXtTeSFs0McN8-23" value="&lt;span style=&quot;font-size: 13px;&quot;&gt;View Plant&lt;/span&gt;" style="ellipse;whiteSpace=wrap;html=1;" parent="1" vertex="1">
          <mxGeometry x="550" y="-2275" width="100" height="50" as="geometry" />
        </mxCell>
        <mxCell id="plnBB56sXtTeSFs0McN8-24" value="&lt;font style=&quot;font-size: 13px;&quot;&gt;&amp;lt;&amp;lt;include&amp;gt;&amp;gt;&lt;/font&gt;" style="text;html=1;strokeColor=none;fillColor=none;align=center;verticalAlign=middle;whiteSpace=wrap;rounded=0;" parent="1" vertex="1">
          <mxGeometry x="460" y="-2290" width="60" height="30" as="geometry" />
        </mxCell>
        <mxCell id="plnBB56sXtTeSFs0McN8-25" style="edgeStyle=orthogonalEdgeStyle;rounded=0;orthogonalLoop=1;jettySize=auto;html=1;entryX=0.5;entryY=0;entryDx=0;entryDy=0;fontFamily=Helvetica;fontSize=12;fontColor=default;endArrow=none;endFill=0;sourcePerimeterSpacing=9;" parent="1" source="plnBB56sXtTeSFs0McN8-26" target="plnBB56sXtTeSFs0McN8-28" edge="1">
          <mxGeometry relative="1" as="geometry" />
        </mxCell>
        <mxCell id="plnBB56sXtTeSFs0McN8-26" value="&lt;span style=&quot;font-size: 14px;&quot;&gt;Make Payment&lt;/span&gt;" style="ellipse;whiteSpace=wrap;html=1;" parent="1" vertex="1">
          <mxGeometry x="335" y="-2195" width="110" height="60" as="geometry" />
        </mxCell>
        <mxCell id="plnBB56sXtTeSFs0McN8-27" value="&lt;span style=&quot;font-size: 13px;&quot;&gt;Plant Purchased&lt;/span&gt;" style="ellipse;whiteSpace=wrap;html=1;" parent="1" vertex="1">
          <mxGeometry x="280" y="-2085" width="90" height="50" as="geometry" />
        </mxCell>
        <mxCell id="plnBB56sXtTeSFs0McN8-28" value="&lt;span style=&quot;font-size: 13px;&quot;&gt;Enrolled Courses&lt;/span&gt;" style="ellipse;whiteSpace=wrap;html=1;" parent="1" vertex="1">
          <mxGeometry x="425" y="-2085" width="100" height="50" as="geometry" />
        </mxCell>
        <mxCell id="plnBB56sXtTeSFs0McN8-29" value="&lt;span style=&quot;font-size: 14px;&quot;&gt;Expert&lt;/span&gt;" style="shape=umlActor;verticalLabelPosition=bottom;verticalAlign=top;html=1;" parent="1" vertex="1">
          <mxGeometry x="1300" y="-2305" width="30" height="60" as="geometry" />
        </mxCell>
        <mxCell id="plnBB56sXtTeSFs0McN8-30" value="&lt;span style=&quot;font-size: 14px;&quot;&gt;Admin&lt;/span&gt;" style="shape=umlActor;verticalLabelPosition=bottom;verticalAlign=top;html=1;" parent="1" vertex="1">
          <mxGeometry x="1420" y="-2305" width="30" height="60" as="geometry" />
        </mxCell>
        <mxCell id="plnBB56sXtTeSFs0McN8-31" style="edgeStyle=orthogonalEdgeStyle;rounded=0;orthogonalLoop=1;jettySize=auto;html=1;entryX=0.5;entryY=0;entryDx=0;entryDy=0;endArrow=none;endFill=0;startSize=7;sourcePerimeterSpacing=11;" parent="1" source="plnBB56sXtTeSFs0McN8-32" target="plnBB56sXtTeSFs0McN8-33" edge="1">
          <mxGeometry relative="1" as="geometry">
            <Array as="points">
              <mxPoint x="995" y="-2140" />
              <mxPoint x="833" y="-2140" />
            </Array>
          </mxGeometry>
        </mxCell>
        <mxCell id="plnBB56sXtTeSFs0McN8-32" value="&lt;span style=&quot;font-size: 14px;&quot;&gt;Generate Report&lt;/span&gt;" style="ellipse;whiteSpace=wrap;html=1;" parent="1" vertex="1">
          <mxGeometry x="925" y="-2207.5" width="140" height="55" as="geometry" />
        </mxCell>
        <mxCell id="plnBB56sXtTeSFs0McN8-33" value="&lt;span style=&quot;font-size: 13px;&quot;&gt;Financial Report&lt;/span&gt;" style="ellipse;whiteSpace=wrap;html=1;" parent="1" vertex="1">
          <mxGeometry x="777.5" y="-2123.37" width="110" height="50" as="geometry" />
        </mxCell>
        <mxCell id="plnBB56sXtTeSFs0McN8-34" value="&lt;span style=&quot;font-size: 13px;&quot;&gt;Employee Report&lt;/span&gt;" style="ellipse;whiteSpace=wrap;html=1;" parent="1" vertex="1">
          <mxGeometry x="931" y="-2115" width="110" height="50" as="geometry" />
        </mxCell>
        <mxCell id="plnBB56sXtTeSFs0McN8-35" value="&lt;span style=&quot;font-size: 13px;&quot;&gt;Users Report&lt;/span&gt;" style="ellipse;whiteSpace=wrap;html=1;" parent="1" vertex="1">
          <mxGeometry x="1090" y="-2120" width="100" height="50" as="geometry" />
        </mxCell>
        <mxCell id="plnBB56sXtTeSFs0McN8-36" style="edgeStyle=orthogonalEdgeStyle;rounded=0;orthogonalLoop=1;jettySize=auto;html=1;entryX=0.406;entryY=-0.002;entryDx=0;entryDy=0;entryPerimeter=0;fontFamily=Helvetica;fontSize=12;fontColor=default;startArrow=block;startFill=0;endArrow=none;endFill=0;" parent="1" source="plnBB56sXtTeSFs0McN8-26" target="plnBB56sXtTeSFs0McN8-27" edge="1">
          <mxGeometry relative="1" as="geometry" />
        </mxCell>
        <mxCell id="plnBB56sXtTeSFs0McN8-37" value="&lt;span style=&quot;font-size: 13px;&quot;&gt;Provide site location and images&lt;/span&gt;" style="ellipse;whiteSpace=wrap;html=1;" parent="1" vertex="1">
          <mxGeometry x="470" y="-2370" width="140" height="55" as="geometry" />
        </mxCell>
        <mxCell id="plnBB56sXtTeSFs0McN8-38" value="&lt;font style=&quot;font-size: 13px;&quot;&gt;&amp;lt;&amp;lt;include&amp;gt;&amp;gt;&lt;/font&gt;" style="text;html=1;strokeColor=none;fillColor=none;align=center;verticalAlign=middle;whiteSpace=wrap;rounded=0;" parent="1" vertex="1">
          <mxGeometry x="630" y="-2370" width="60" height="30" as="geometry" />
        </mxCell>
        <mxCell id="plnBB56sXtTeSFs0McN8-39" style="edgeStyle=orthogonalEdgeStyle;rounded=0;orthogonalLoop=1;jettySize=auto;html=1;entryX=0.5;entryY=0;entryDx=0;entryDy=0;fontFamily=Helvetica;fontSize=12;fontColor=default;endArrow=none;endFill=0;startSize=8;sourcePerimeterSpacing=9;" parent="1" source="plnBB56sXtTeSFs0McN8-41" target="plnBB56sXtTeSFs0McN8-43" edge="1">
          <mxGeometry relative="1" as="geometry" />
        </mxCell>
        <mxCell id="plnBB56sXtTeSFs0McN8-40" style="edgeStyle=orthogonalEdgeStyle;rounded=0;orthogonalLoop=1;jettySize=auto;html=1;entryX=0;entryY=0.5;entryDx=0;entryDy=0;fontFamily=Helvetica;fontSize=12;fontColor=default;dashed=1;startArrow=open;startFill=0;endArrow=none;endFill=0;" parent="1" source="plnBB56sXtTeSFs0McN8-41" target="plnBB56sXtTeSFs0McN8-45" edge="1">
          <mxGeometry relative="1" as="geometry" />
        </mxCell>
        <mxCell id="plnBB56sXtTeSFs0McN8-41" value="&lt;span style=&quot;font-size: 14px;&quot;&gt;&amp;nbsp;Take Exam&lt;/span&gt;" style="ellipse;whiteSpace=wrap;html=1;" parent="1" vertex="1">
          <mxGeometry x="320" y="-1980" width="140" height="60" as="geometry" />
        </mxCell>
        <mxCell id="plnBB56sXtTeSFs0McN8-42" value="&lt;span style=&quot;font-size: 13px;&quot;&gt;Mock Test&lt;/span&gt;" style="ellipse;whiteSpace=wrap;html=1;" parent="1" vertex="1">
          <mxGeometry x="300" y="-1880" width="90" height="50" as="geometry" />
        </mxCell>
        <mxCell id="plnBB56sXtTeSFs0McN8-43" value="&lt;span style=&quot;font-size: 13px;&quot;&gt;Certification Exams&lt;/span&gt;" style="ellipse;whiteSpace=wrap;html=1;" parent="1" vertex="1">
          <mxGeometry x="420" y="-1880" width="110" height="50" as="geometry" />
        </mxCell>
        <mxCell id="plnBB56sXtTeSFs0McN8-44" style="edgeStyle=orthogonalEdgeStyle;rounded=0;orthogonalLoop=1;jettySize=auto;html=1;fontFamily=Helvetica;fontSize=12;fontColor=default;startArrow=block;startFill=0;entryX=0.272;entryY=0.071;entryDx=0;entryDy=0;entryPerimeter=0;endArrow=none;endFill=0;" parent="1" source="plnBB56sXtTeSFs0McN8-41" target="plnBB56sXtTeSFs0McN8-42" edge="1">
          <mxGeometry relative="1" as="geometry">
            <mxPoint x="325" y="-1880" as="targetPoint" />
          </mxGeometry>
        </mxCell>
        <mxCell id="plnBB56sXtTeSFs0McN8-45" value="&lt;span style=&quot;font-size: 13px;&quot;&gt;Check Results&lt;/span&gt;" style="ellipse;whiteSpace=wrap;html=1;" parent="1" vertex="1">
          <mxGeometry x="565" y="-1977.5" width="110" height="55" as="geometry" />
        </mxCell>
        <mxCell id="plnBB56sXtTeSFs0McN8-46" value="&lt;span style=&quot;font-size: 13px;&quot;&gt;&amp;lt;&amp;lt;extends&amp;gt;&amp;gt;&lt;/span&gt;" style="text;html=1;strokeColor=none;fillColor=none;align=center;verticalAlign=middle;whiteSpace=wrap;rounded=0;" parent="1" vertex="1">
          <mxGeometry x="480" y="-1980" width="60" height="30" as="geometry" />
        </mxCell>
        <mxCell id="plnBB56sXtTeSFs0McN8-47" value="&lt;span style=&quot;font-size: 13px;&quot;&gt;Provides Reply&lt;/span&gt;" style="ellipse;whiteSpace=wrap;html=1;" parent="1" vertex="1">
          <mxGeometry x="925" y="-2370" width="120" height="55" as="geometry" />
        </mxCell>
        <mxCell id="plnBB56sXtTeSFs0McN8-48" style="edgeStyle=orthogonalEdgeStyle;rounded=0;orthogonalLoop=1;jettySize=auto;html=1;entryX=0.5;entryY=0;entryDx=0;entryDy=0;fontFamily=Helvetica;fontSize=12;fontColor=default;endArrow=none;endFill=0;sourcePerimeterSpacing=13;" parent="1" source="plnBB56sXtTeSFs0McN8-51" target="plnBB56sXtTeSFs0McN8-54" edge="1">
          <mxGeometry relative="1" as="geometry" />
        </mxCell>
        <mxCell id="plnBB56sXtTeSFs0McN8-49" style="edgeStyle=orthogonalEdgeStyle;rounded=0;orthogonalLoop=1;jettySize=auto;html=1;entryX=0.5;entryY=0;entryDx=0;entryDy=0;fontFamily=Helvetica;fontSize=12;fontColor=default;endArrow=none;endFill=0;sourcePerimeterSpacing=10;" parent="1" source="plnBB56sXtTeSFs0McN8-51" target="plnBB56sXtTeSFs0McN8-56" edge="1">
          <mxGeometry relative="1" as="geometry">
            <Array as="points">
              <mxPoint x="370" y="-1720" />
              <mxPoint x="535" y="-1720" />
            </Array>
          </mxGeometry>
        </mxCell>
        <mxCell id="plnBB56sXtTeSFs0McN8-50" style="edgeStyle=orthogonalEdgeStyle;rounded=0;orthogonalLoop=1;jettySize=auto;html=1;entryX=0.5;entryY=0;entryDx=0;entryDy=0;fontFamily=Helvetica;fontSize=12;fontColor=default;endArrow=none;endFill=0;sourcePerimeterSpacing=10;" parent="1" source="plnBB56sXtTeSFs0McN8-51" target="plnBB56sXtTeSFs0McN8-57" edge="1">
          <mxGeometry relative="1" as="geometry">
            <Array as="points">
              <mxPoint x="370" y="-1720" />
              <mxPoint x="645" y="-1720" />
            </Array>
          </mxGeometry>
        </mxCell>
        <mxCell id="plnBB56sXtTeSFs0McN8-51" value="&lt;span style=&quot;font-size: 14px;&quot;&gt;Participate in Forum&lt;/span&gt;" style="ellipse;whiteSpace=wrap;html=1;" parent="1" vertex="1">
          <mxGeometry x="300" y="-1800" width="140" height="60" as="geometry" />
        </mxCell>
        <mxCell id="plnBB56sXtTeSFs0McN8-52" style="edgeStyle=orthogonalEdgeStyle;rounded=0;orthogonalLoop=1;jettySize=auto;html=1;entryX=0.5;entryY=0;entryDx=0;entryDy=0;entryPerimeter=0;fontFamily=Helvetica;fontSize=12;fontColor=default;startArrow=block;startFill=0;endArrow=none;endFill=0;sourcePerimeterSpacing=5;" parent="1" target="plnBB56sXtTeSFs0McN8-29" edge="1">
          <mxGeometry relative="1" as="geometry">
            <mxPoint x="1355" y="-2350" as="sourcePoint" />
            <Array as="points">
              <mxPoint x="1355" y="-2320" />
              <mxPoint x="1315" y="-2320" />
            </Array>
          </mxGeometry>
        </mxCell>
        <mxCell id="plnBB56sXtTeSFs0McN8-53" value="&lt;span style=&quot;font-size: 13px;&quot;&gt;&amp;lt;&amp;lt;extends&amp;gt;&amp;gt;&lt;/span&gt;" style="text;html=1;strokeColor=none;fillColor=none;align=center;verticalAlign=middle;whiteSpace=wrap;rounded=0;" parent="1" vertex="1">
          <mxGeometry x="802.5" y="-2380" width="60" height="30" as="geometry" />
        </mxCell>
        <mxCell id="plnBB56sXtTeSFs0McN8-54" value="&lt;span style=&quot;font-size: 13px;&quot;&gt;Create Post&lt;/span&gt;" style="ellipse;whiteSpace=wrap;html=1;" parent="1" vertex="1">
          <mxGeometry x="260" y="-1700" width="90" height="50" as="geometry" />
        </mxCell>
        <mxCell id="plnBB56sXtTeSFs0McN8-55" value="&lt;span style=&quot;font-size: 13px;&quot;&gt;Comment&lt;/span&gt;" style="ellipse;whiteSpace=wrap;html=1;" parent="1" vertex="1">
          <mxGeometry x="370" y="-1700" width="90" height="50" as="geometry" />
        </mxCell>
        <mxCell id="plnBB56sXtTeSFs0McN8-56" value="&lt;span style=&quot;font-size: 13px;&quot;&gt;Engage on Post&lt;/span&gt;" style="ellipse;whiteSpace=wrap;html=1;" parent="1" vertex="1">
          <mxGeometry x="490" y="-1700" width="90" height="50" as="geometry" />
        </mxCell>
        <mxCell id="plnBB56sXtTeSFs0McN8-57" value="&lt;span style=&quot;font-size: 13px;&quot;&gt;Upvote&lt;/span&gt;" style="ellipse;whiteSpace=wrap;html=1;" parent="1" vertex="1">
          <mxGeometry x="600" y="-1700" width="90" height="50" as="geometry" />
        </mxCell>
        <mxCell id="plnBB56sXtTeSFs0McN8-58" value="&lt;span style=&quot;font-size: 13px;&quot;&gt;Payment&amp;nbsp; Methods&lt;/span&gt;" style="ellipse;whiteSpace=wrap;html=1;" parent="1" vertex="1">
          <mxGeometry x="550" y="-2190" width="100" height="50" as="geometry" />
        </mxCell>
        <mxCell id="plnBB56sXtTeSFs0McN8-59" value="&lt;font style=&quot;font-size: 13px;&quot;&gt;&amp;lt;&amp;lt;include&amp;gt;&amp;gt;&lt;/font&gt;" style="text;html=1;strokeColor=none;fillColor=none;align=center;verticalAlign=middle;whiteSpace=wrap;rounded=0;rotation=288;opacity=70;" parent="1" vertex="1">
          <mxGeometry x="743" y="-2050" width="68" height="18" as="geometry" />
        </mxCell>
        <mxCell id="plnBB56sXtTeSFs0McN8-60" value="&lt;span style=&quot;font-size: 13px;&quot;&gt;Finance data&lt;/span&gt;" style="ellipse;whiteSpace=wrap;html=1;" parent="1" vertex="1">
          <mxGeometry x="730" y="-1990" width="100" height="55" as="geometry" />
        </mxCell>
        <mxCell id="plnBB56sXtTeSFs0McN8-61" value="&lt;span style=&quot;font-size: 13px;&quot;&gt;Employee Data&lt;/span&gt;" style="ellipse;whiteSpace=wrap;html=1;" parent="1" vertex="1">
          <mxGeometry x="900" y="-1980" width="115" height="50" as="geometry" />
        </mxCell>
        <mxCell id="plnBB56sXtTeSFs0McN8-62" value="&lt;span style=&quot;font-size: 13px;&quot;&gt;User Data&lt;/span&gt;" style="ellipse;whiteSpace=wrap;html=1;" parent="1" vertex="1">
          <mxGeometry x="1060" y="-1982.5" width="90" height="55" as="geometry" />
        </mxCell>
        <mxCell id="plnBB56sXtTeSFs0McN8-63" value="" style="endArrow=open;html=1;rounded=0;fontFamily=Helvetica;fontSize=12;fontColor=default;exitX=0.256;exitY=1.015;exitDx=0;exitDy=0;exitPerimeter=0;dashed=1;startArrow=none;startFill=0;endFill=0;entryX=0.5;entryY=0;entryDx=0;entryDy=0;" parent="1" source="plnBB56sXtTeSFs0McN8-33" target="plnBB56sXtTeSFs0McN8-60" edge="1">
          <mxGeometry width="50" height="50" relative="1" as="geometry">
            <mxPoint x="830" y="-2020" as="sourcePoint" />
            <mxPoint x="730" y="-2160" as="targetPoint" />
          </mxGeometry>
        </mxCell>
        <mxCell id="plnBB56sXtTeSFs0McN8-64" value="" style="endArrow=open;html=1;rounded=0;fontFamily=Helvetica;fontSize=12;fontColor=default;exitX=0.283;exitY=0.982;exitDx=0;exitDy=0;exitPerimeter=0;dashed=1;startArrow=none;startFill=0;endFill=0;entryX=0.472;entryY=-0.045;entryDx=0;entryDy=0;entryPerimeter=0;" parent="1" source="plnBB56sXtTeSFs0McN8-35" target="plnBB56sXtTeSFs0McN8-62" edge="1">
          <mxGeometry width="50" height="50" relative="1" as="geometry">
            <mxPoint x="960" y="-2190" as="sourcePoint" />
            <mxPoint x="871" y="-2142" as="targetPoint" />
          </mxGeometry>
        </mxCell>
        <mxCell id="plnBB56sXtTeSFs0McN8-65" value="&lt;font style=&quot;font-size: 13px;&quot;&gt;&amp;lt;&amp;lt;include&amp;gt;&amp;gt;&lt;/font&gt;" style="text;html=1;strokeColor=none;fillColor=none;align=center;verticalAlign=middle;whiteSpace=wrap;rounded=0;rotation=280;" parent="1" vertex="1">
          <mxGeometry x="1065" y="-2050" width="50" height="30" as="geometry" />
        </mxCell>
        <mxCell id="plnBB56sXtTeSFs0McN8-66" value="" style="endArrow=none;html=1;rounded=0;fontFamily=Helvetica;fontSize=12;fontColor=default;entryX=0;entryY=0.5;entryDx=0;entryDy=0;" parent="1" target="plnBB56sXtTeSFs0McN8-10" edge="1">
          <mxGeometry width="50" height="50" relative="1" as="geometry">
            <mxPoint x="90" y="-2280" as="sourcePoint" />
            <mxPoint x="830" y="-2240" as="targetPoint" />
          </mxGeometry>
        </mxCell>
        <mxCell id="plnBB56sXtTeSFs0McN8-67" value="" style="endArrow=none;html=1;rounded=0;fontFamily=Helvetica;fontSize=12;fontColor=default;entryX=0;entryY=0.5;entryDx=0;entryDy=0;" parent="1" target="plnBB56sXtTeSFs0McN8-22" edge="1">
          <mxGeometry width="50" height="50" relative="1" as="geometry">
            <mxPoint x="100" y="-2270" as="sourcePoint" />
            <mxPoint x="340" y="-2520" as="targetPoint" />
          </mxGeometry>
        </mxCell>
        <mxCell id="plnBB56sXtTeSFs0McN8-68" value="" style="endArrow=none;html=1;rounded=0;fontFamily=Helvetica;fontSize=12;fontColor=default;entryX=0;entryY=0.5;entryDx=0;entryDy=0;" parent="1" target="plnBB56sXtTeSFs0McN8-26" edge="1">
          <mxGeometry width="50" height="50" relative="1" as="geometry">
            <mxPoint x="100" y="-2260" as="sourcePoint" />
            <mxPoint x="350" y="-2510" as="targetPoint" />
          </mxGeometry>
        </mxCell>
        <mxCell id="plnBB56sXtTeSFs0McN8-69" style="edgeStyle=orthogonalEdgeStyle;rounded=0;orthogonalLoop=1;jettySize=auto;html=1;entryX=0.67;entryY=0.04;entryDx=0;entryDy=0;entryPerimeter=0;fontFamily=Helvetica;fontSize=12;fontColor=default;startArrow=block;startFill=0;endArrow=none;endFill=0;" parent="1" source="plnBB56sXtTeSFs0McN8-51" target="plnBB56sXtTeSFs0McN8-55" edge="1">
          <mxGeometry relative="1" as="geometry" />
        </mxCell>
        <mxCell id="plnBB56sXtTeSFs0McN8-70" style="edgeStyle=orthogonalEdgeStyle;rounded=0;orthogonalLoop=1;jettySize=auto;html=1;entryX=0.5;entryY=0;entryDx=0;entryDy=0;entryPerimeter=0;endArrow=none;endFill=0;startArrow=block;startFill=0;sourcePerimeterSpacing=23;" parent="1" source="plnBB56sXtTeSFs0McN8-4" target="plnBB56sXtTeSFs0McN8-2" edge="1">
          <mxGeometry relative="1" as="geometry">
            <Array as="points">
              <mxPoint x="48" y="-2160" />
              <mxPoint x="105" y="-2160" />
            </Array>
          </mxGeometry>
        </mxCell>
        <mxCell id="plnBB56sXtTeSFs0McN8-71" value="&lt;span style=&quot;font-size: 14px;&quot;&gt;Ask Recommensations&lt;/span&gt;" style="ellipse;whiteSpace=wrap;html=1;" parent="1" vertex="1">
          <mxGeometry x="665" y="-2335" width="155" height="60" as="geometry" />
        </mxCell>
        <mxCell id="plnBB56sXtTeSFs0McN8-72" style="edgeStyle=orthogonalEdgeStyle;rounded=0;orthogonalLoop=1;jettySize=auto;html=1;fontFamily=Helvetica;fontSize=12;fontColor=default;dashed=1;endArrow=open;endFill=0;exitX=0.968;exitY=0.583;exitDx=0;exitDy=0;exitPerimeter=0;sourcePerimeterSpacing=0;startSize=6;targetPerimeterSpacing=0;endSize=8;" parent="1" source="plnBB56sXtTeSFs0McN8-26" edge="1">
          <mxGeometry relative="1" as="geometry">
            <mxPoint x="520" y="-2179.9714285714285" as="sourcePoint" />
            <mxPoint x="550" y="-2160" as="targetPoint" />
          </mxGeometry>
        </mxCell>
        <mxCell id="plnBB56sXtTeSFs0McN8-73" value="&lt;font style=&quot;font-size: 13px;&quot;&gt;&amp;lt;&amp;lt;include&amp;gt;&amp;gt;&lt;/font&gt;" style="text;html=1;strokeColor=none;fillColor=none;align=center;verticalAlign=middle;whiteSpace=wrap;rounded=0;" parent="1" vertex="1">
          <mxGeometry x="465" y="-2195" width="60" height="30" as="geometry" />
        </mxCell>
        <mxCell id="plnBB56sXtTeSFs0McN8-74" value="" style="endArrow=none;html=1;rounded=0;fontFamily=Helvetica;fontSize=12;fontColor=default;entryX=-0.006;entryY=0.625;entryDx=0;entryDy=0;entryPerimeter=0;" parent="1" target="plnBB56sXtTeSFs0McN8-71" edge="1">
          <mxGeometry width="50" height="50" relative="1" as="geometry">
            <mxPoint x="110" y="-2280" as="sourcePoint" />
            <mxPoint x="335" y="-2240" as="targetPoint" />
          </mxGeometry>
        </mxCell>
        <mxCell id="plnBB56sXtTeSFs0McN8-75" value="" style="endArrow=none;html=1;rounded=0;" parent="1" source="plnBB56sXtTeSFs0McN8-71" target="plnBB56sXtTeSFs0McN8-29" edge="1">
          <mxGeometry width="50" height="50" relative="1" as="geometry">
            <mxPoint x="1070" y="-2525" as="sourcePoint" />
            <mxPoint x="1340" y="-2430" as="targetPoint" />
          </mxGeometry>
        </mxCell>
        <mxCell id="plnBB56sXtTeSFs0McN8-76" value="" style="endArrow=open;html=1;rounded=0;fontFamily=Helvetica;fontSize=12;fontColor=default;dashed=1;startArrow=none;startFill=0;endFill=0;entryX=0.5;entryY=0;entryDx=0;entryDy=0;" parent="1" source="plnBB56sXtTeSFs0McN8-34" target="plnBB56sXtTeSFs0McN8-61" edge="1">
          <mxGeometry width="50" height="50" relative="1" as="geometry">
            <mxPoint x="811" y="-2074" as="sourcePoint" />
            <mxPoint x="780" y="-1995" as="targetPoint" />
          </mxGeometry>
        </mxCell>
        <mxCell id="plnBB56sXtTeSFs0McN8-77" value="&lt;font style=&quot;font-size: 13px;&quot;&gt;&amp;lt;&amp;lt;include&amp;gt;&amp;gt;&lt;/font&gt;" style="text;html=1;strokeColor=none;fillColor=none;align=center;verticalAlign=middle;whiteSpace=wrap;rounded=0;rotation=283;" parent="1" vertex="1">
          <mxGeometry x="910" y="-2035" width="68" height="20" as="geometry" />
        </mxCell>
        <mxCell id="plnBB56sXtTeSFs0McN8-78" value="" style="endArrow=none;html=1;rounded=0;exitX=1;exitY=0;exitDx=0;exitDy=0;" parent="1" source="plnBB56sXtTeSFs0McN8-32" edge="1">
          <mxGeometry width="50" height="50" relative="1" as="geometry">
            <mxPoint x="826" y="-2345" as="sourcePoint" />
            <mxPoint x="1410" y="-2220" as="targetPoint" />
          </mxGeometry>
        </mxCell>
        <mxCell id="plnBB56sXtTeSFs0McN8-79" style="edgeStyle=orthogonalEdgeStyle;rounded=0;orthogonalLoop=1;jettySize=auto;html=1;dashed=1;endArrow=open;endFill=0;sourcePerimeterSpacing=0;startSize=6;" parent="1" source="plnBB56sXtTeSFs0McN8-47" target="plnBB56sXtTeSFs0McN8-71" edge="1">
          <mxGeometry relative="1" as="geometry">
            <mxPoint x="730" y="-2346" as="sourcePoint" />
            <mxPoint x="627" y="-2406" as="targetPoint" />
            <Array as="points">
              <mxPoint x="742" y="-2350" />
            </Array>
          </mxGeometry>
        </mxCell>
        <mxCell id="plnBB56sXtTeSFs0McN8-80" style="edgeStyle=orthogonalEdgeStyle;rounded=0;orthogonalLoop=1;jettySize=auto;html=1;entryX=0.582;entryY=0.026;entryDx=0;entryDy=0;entryPerimeter=0;endArrow=none;endFill=0;startArrow=block;startFill=0;sourcePerimeterSpacing=2;" parent="1" source="plnBB56sXtTeSFs0McN8-32" target="plnBB56sXtTeSFs0McN8-35" edge="1">
          <mxGeometry relative="1" as="geometry">
            <Array as="points">
              <mxPoint x="995" y="-2140" />
              <mxPoint x="1148" y="-2140" />
            </Array>
          </mxGeometry>
        </mxCell>
        <mxCell id="plnBB56sXtTeSFs0McN8-81" style="edgeStyle=orthogonalEdgeStyle;rounded=0;orthogonalLoop=1;jettySize=auto;html=1;entryX=0.581;entryY=-0.015;entryDx=0;entryDy=0;entryPerimeter=0;endArrow=none;endFill=0;sourcePerimeterSpacing=12;" parent="1" source="plnBB56sXtTeSFs0McN8-32" target="plnBB56sXtTeSFs0McN8-34" edge="1">
          <mxGeometry relative="1" as="geometry" />
        </mxCell>
        <mxCell id="plnBB56sXtTeSFs0McN8-82" value="" style="endArrow=none;html=1;rounded=0;fontFamily=Helvetica;fontSize=12;fontColor=default;entryX=0;entryY=0.5;entryDx=0;entryDy=0;" parent="1" target="plnBB56sXtTeSFs0McN8-41" edge="1">
          <mxGeometry width="50" height="50" relative="1" as="geometry">
            <mxPoint x="110" y="-2250" as="sourcePoint" />
            <mxPoint x="345" y="-2155" as="targetPoint" />
          </mxGeometry>
        </mxCell>
        <mxCell id="plnBB56sXtTeSFs0McN8-83" value="" style="endArrow=none;html=1;rounded=0;fontFamily=Helvetica;fontSize=12;fontColor=default;entryX=0;entryY=0.5;entryDx=0;entryDy=0;" parent="1" target="plnBB56sXtTeSFs0McN8-51" edge="1">
          <mxGeometry width="50" height="50" relative="1" as="geometry">
            <mxPoint x="90" y="-2270" as="sourcePoint" />
            <mxPoint x="330" y="-1940" as="targetPoint" />
          </mxGeometry>
        </mxCell>
        <mxCell id="plnBB56sXtTeSFs0McN8-84" style="edgeStyle=orthogonalEdgeStyle;rounded=0;orthogonalLoop=1;jettySize=auto;html=1;dashed=1;endArrow=open;endFill=0;sourcePerimeterSpacing=-1;startSize=8;entryX=0.99;entryY=0.539;entryDx=0;entryDy=0;entryPerimeter=0;" parent="1" source="plnBB56sXtTeSFs0McN8-71" target="plnBB56sXtTeSFs0McN8-37" edge="1">
          <mxGeometry relative="1" as="geometry">
            <mxPoint x="937" y="-2340" as="sourcePoint" />
            <mxPoint x="620" y="-2342" as="targetPoint" />
            <Array as="points">
              <mxPoint x="710" y="-2340" />
            </Array>
          </mxGeometry>
        </mxCell>
        <mxCell id="plnBB56sXtTeSFs0McN8-85" value="" style="endArrow=none;html=1;rounded=0;fontFamily=Helvetica;fontSize=12;fontColor=default;entryX=0;entryY=0.5;entryDx=0;entryDy=0;" parent="1" target="plnBB56sXtTeSFs0McN8-17" edge="1">
          <mxGeometry width="50" height="50" relative="1" as="geometry">
            <mxPoint x="100" y="-2280" as="sourcePoint" />
            <mxPoint x="340" y="-2520" as="targetPoint" />
          </mxGeometry>
        </mxCell>
        <mxCell id="plnBB56sXtTeSFs0McN8-86" style="edgeStyle=orthogonalEdgeStyle;rounded=0;orthogonalLoop=1;jettySize=auto;html=1;sourcePerimeterSpacing=41;endArrow=none;endFill=0;entryX=0.433;entryY=0.003;entryDx=0;entryDy=0;entryPerimeter=0;" parent="1" source="plnBB56sXtTeSFs0McN8-15" target="plnBB56sXtTeSFs0McN8-30" edge="1">
          <mxGeometry relative="1" as="geometry">
            <mxPoint x="1435" y="-2310" as="targetPoint" />
            <Array as="points">
              <mxPoint x="1355" y="-2320" />
              <mxPoint x="1433" y="-2320" />
            </Array>
          </mxGeometry>
        </mxCell>
      </root>
    </mxGraphModel>
  </diagram>
</mxfile>
